Recursive Sans-Casual Medium.ufo
<glyph name="exclam" format="2">
  <advance width="322.72727272727275"/>
  <unicode hex="0021"/>
  <outline>
    <contour>
      <point x="201.1818181818182" y="262.72727272727275" type="line"/>
      <point x="212.27272727272728" y="334.8181818181818"/>
      <point x="220.81818181818184" y="424.8181818181818"/>
      <point x="220.81818181818184" y="496.8181818181818" type="curve"/>
      <point x="220.81818181818184" y="656.8181818181819" type="line" smooth="yes"/>
      <point x="220.81818181818184" y="695.5454545454545"/>
      <point x="188.8181818181818" y="710.0"/>
      <point x="133.54545454545456" y="710.0" type="curve"/>
      <point x="117.27272727272727" y="710.0"/>
      <point x="104.81818181818181" y="709.0"/>
      <point x="91.0909090909091" y="705.1818181818181" type="curve"/>
      <point x="98.45454545454545" y="669.7272727272727"/>
      <point x="100.81818181818181" y="633.8181818181819"/>
      <point x="100.81818181818181" y="595.4545454545455" type="curve" smooth="yes"/>
      <point x="100.81818181818181" y="499.0" type="line"/>
      <point x="100.81818181818181" y="397.09090909090907"/>
      <point x="108.9090909090909" y="300.4545454545455"/>
      <point x="126.54545454545455" y="282.8181818181818" type="curve" smooth="yes"/>
      <point x="140.0909090909091" y="269.2727272727273"/>
      <point x="162.72727272727272" y="262.72727272727275"/>
      <point x="192.1818181818182" y="262.72727272727275" type="curve"/>
    </contour>
    <contour>
      <point x="239.18181818181816" y="4.909090909090908" type="curve"/>
      <point x="239.18181818181816" y="88.63636363636364" type="line" smooth="yes"/>
      <point x="239.18181818181816" y="144.0"/>
      <point x="197.54545454545456" y="161.8181818181818"/>
      <point x="148.9090909090909" y="161.8181818181818" type="curve"/>
      <point x="120.09090909090908" y="161.8181818181818"/>
      <point x="96.81818181818181" y="155.45454545454547"/>
      <point x="77.0" y="143.27272727272728" type="curve"/>
      <point x="77.0" y="59.54545454545455" type="line" smooth="yes"/>
      <point x="77.0" y="8.272727272727272"/>
      <point x="118.63636363636364" y="-7.727272727272728"/>
      <point x="171.36363636363637" y="-7.727272727272728" type="curve" smooth="yes"/>
      <point x="195.1818181818182" y="-7.727272727272728"/>
      <point x="219.36363636363635" y="-3.636363636363637"/>
    </contour>
  </outline>
</glyph>
<glyph name="quotedbl" format="2">
  <advance width="600.0"/>
  <unicode hex="0022"/>
  <outline>
    <contour>
      <point x="230.9090909090909" y="441.6363636363636" type="curve"/>
      <point x="242.72727272727275" y="667.0" type="line" smooth="yes"/>
      <point x="246.54545454545456" y="725.7272727272727"/>
      <point x="217.54545454545456" y="754.0"/>
      <point x="150.45454545454547" y="754.0" type="curve" smooth="yes"/>
      <point x="135.0" y="754.0"/>
      <point x="122.72727272727272" y="752.4545454545455"/>
      <point x="112.18181818181819" y="750.0" type="curve"/>
      <point x="120.63636363636364" y="726.0909090909091"/>
      <point x="123.45454545454545" y="709.0909090909091"/>
      <point x="126.36363636363636" y="654.3636363636364" type="curve" smooth="yes"/>
      <point x="136.36363636363637" y="485.09090909090907" type="line" smooth="yes"/>
      <point x="138.27272727272725" y="451.54545454545456"/>
      <point x="155.9090909090909" y="438.90909090909093"/>
      <point x="199.63636363636363" y="438.90909090909093" type="curve" smooth="yes"/>
      <point x="211.72727272727272" y="438.90909090909093"/>
      <point x="222.45454545454544" y="439.8181818181818"/>
    </contour>
    <contour>
      <point x="460.0" y="441.6363636363636" type="curve"/>
      <point x="473.1818181818182" y="660.4545454545455" type="line" smooth="yes"/>
      <point x="477.4545454545455" y="725.7272727272727"/>
      <point x="448.0" y="754.0"/>
      <point x="385.2727272727273" y="754.0" type="curve" smooth="yes"/>
      <point x="372.2727272727273" y="754.0"/>
      <point x="362.5454545454545" y="753.0"/>
      <point x="350.9090909090909" y="750.4545454545455" type="curve"/>
      <point x="366.8181818181818" y="485.09090909090907" type="line"/>
      <point x="368.7272727272727" y="451.54545454545456"/>
      <point x="386.3636363636364" y="438.90909090909093"/>
      <point x="430.09090909090907" y="438.90909090909093" type="curve" smooth="yes"/>
      <point x="442.1818181818182" y="438.90909090909093"/>
      <point x="451.54545454545456" y="439.8181818181818"/>
    </contour>
  </outline>
</glyph>
<glyph name="numbersign" format="2">
  <advance width="600.0"/>
  <unicode hex="0023"/>
  <outline>
    <contour>
      <point x="215.27272727272728" y="715.4545454545455" type="curve"/>
      <point x="206.1818181818182" y="513.4545454545455"/>
      <point x="165.27272727272725" y="239.9090909090909"/>
      <point x="46.36363636363636" y="-10.363636363636363" type="curve"/>
      <point x="54.72727272727272" y="-15.636363636363637"/>
      <point x="62.9090909090909" y="-19.09090909090909"/>
      <point x="80.45454545454544" y="-19.09090909090909" type="curve"/>
      <point x="107.54545454545453" y="-19.545454545454547"/>
      <point x="126.27272727272727" y="-13.727272727272727"/>
      <point x="143.45454545454544" y="21.81818181818182" type="curve" smooth="yes"/>
      <point x="246.9090909090909" y="254.54545454545453"/>
      <point x="285.0" y="512.0909090909091"/>
      <point x="291.8181818181818" y="677.2727272727273" type="curve" smooth="yes"/>
      <point x="294.54545454545456" y="714.4545454545455"/>
      <point x="275.0" y="720.0"/>
      <point x="250.0909090909091" y="720.0" type="curve" smooth="yes"/>
      <point x="238.45454545454544" y="720.0"/>
      <point x="226.36363636363637" y="718.9090909090909"/>
    </contour>
    <contour>
      <point x="417.54545454545456" y="714.5454545454545" type="curve"/>
      <point x="408.0" y="514.7272727272727"/>
      <point x="367.54545454545456" y="239.45454545454547"/>
      <point x="248.1818181818182" y="-11.272727272727273" type="curve"/>
      <point x="256.5454545454545" y="-16.545454545454547"/>
      <point x="264.7272727272727" y="-20.0"/>
      <point x="282.2727272727273" y="-20.0" type="curve"/>
      <point x="309.3636363636364" y="-20.0"/>
      <point x="327.6363636363636" y="-14.181818181818182"/>
      <point x="344.3636363636364" y="20.454545454545457" type="curve" smooth="yes"/>
      <point x="448.72727272727275" y="254.0909090909091"/>
      <point x="486.8181818181818" y="511.6363636363636"/>
      <point x="494.09090909090907" y="677.2727272727273" type="curve" smooth="yes"/>
      <point x="496.3636363636363" y="713.5454545454545"/>
      <point x="476.81818181818176" y="719.5454545454545"/>
      <point x="451.9090909090909" y="719.5454545454545" type="curve" smooth="yes"/>
      <point x="440.27272727272725" y="719.5454545454545"/>
      <point x="428.1818181818182" y="718.0"/>
    </contour>
    <contour>
      <point x="572.2727272727273" y="436.3636363636364" type="line"/>
      <point x="572.2727272727273" y="440.72727272727275"/>
      <point x="572.2727272727273" y="445.6363636363636"/>
      <point x="572.2727272727273" y="450.4545454545455" type="curve" smooth="yes"/>
      <point x="572.2727272727273" y="481.0"/>
      <point x="566.090909090909" y="499.2727272727273"/>
      <point x="554.4545454545454" y="510.90909090909093" type="curve" smooth="yes"/>
      <point x="546.0" y="519.3636363636364"/>
      <point x="534.7272727272727" y="522.7272727272727"/>
      <point x="511.09090909090907" y="522.7272727272727" type="curve"/>
      <point x="80.0" y="522.7272727272727" type="line"/>
      <point x="75.9090909090909" y="511.54545454545456"/>
      <point x="74.0909090909091" y="498.90909090909093"/>
      <point x="74.0909090909091" y="488.6363636363636" type="curve" smooth="yes"/>
      <point x="74.0909090909091" y="453.45454545454544"/>
      <point x="84.54545454545455" y="436.3636363636364"/>
      <point x="119.81818181818181" y="436.3636363636364" type="curve" smooth="yes"/>
    </contour>
    <contour>
      <point x="27.27272727272727" y="263.6363636363636" type="line"/>
      <point x="27.27272727272727" y="259.27272727272725"/>
      <point x="27.27272727272727" y="254.36363636363637"/>
      <point x="27.27272727272727" y="249.54545454545456" type="curve" smooth="yes"/>
      <point x="27.27272727272727" y="219.0"/>
      <point x="33.45454545454545" y="200.72727272727275"/>
      <point x="45.090909090909086" y="189.0909090909091" type="curve" smooth="yes"/>
      <point x="53.54545454545454" y="180.63636363636365"/>
      <point x="64.81818181818181" y="177.27272727272728"/>
      <point x="88.45454545454545" y="177.27272727272728" type="curve"/>
      <point x="538.1818181818181" y="177.27272727272728" type="line"/>
      <point x="540.0" y="188.45454545454547"/>
      <point x="541.3636363636364" y="201.0909090909091"/>
      <point x="541.3636363636364" y="211.36363636363637" type="curve" smooth="yes"/>
      <point x="541.3636363636364" y="246.54545454545456"/>
      <point x="530.9090909090909" y="263.6363636363636"/>
      <point x="495.6363636363636" y="263.6363636363636" type="curve"/>
    </contour>
  </outline>
</glyph>
<glyph name="percent" format="2">
  <advance width="600.0"/>
  <unicode hex="0025"/>
  <outline>
    <contour>
      <point x="177.45454545454544" y="710.0" type="curve" smooth="yes"/>
      <point x="83.45454545454545" y="710.0"/>
      <point x="20.454545454545453" y="637.0"/>
      <point x="20.454545454545453" y="529.0" type="curve" smooth="yes"/>
      <point x="20.454545454545453" y="522.9999999999999" type="line" smooth="yes"/>
      <point x="20.454545454545453" y="420.0"/>
      <point x="77.45454545454545" y="356.0"/>
      <point x="170.45454545454544" y="356.0" type="curve" smooth="yes"/>
      <point x="267.45454545454544" y="356.0"/>
      <point x="329.4545454545455" y="423.8181818181818"/>
      <point x="329.4545454545455" y="530.5454545454545" type="curve" smooth="yes"/>
      <point x="329.4545454545455" y="536.5454545454545" type="line" smooth="yes"/>
      <point x="329.4545454545455" y="639.4545454545454"/>
      <point x="266.5454545454545" y="710.0"/>
    </contour>
    <contour>
      <point x="89.0" y="520.7272727272727" type="curve" smooth="yes"/>
      <point x="89.0" y="525.8181818181819" type="line" smooth="yes"/>
      <point x="89.0" y="595.0"/>
      <point x="125.81818181818183" y="642.2727272727273"/>
      <point x="180.0909090909091" y="642.2727272727273" type="curve" smooth="yes"/>
      <point x="194.45454545454544" y="642.2727272727273"/>
      <point x="205.27272727272728" y="640.7272727272727"/>
      <point x="215.0909090909091" y="637.6363636363636" type="curve" smooth="yes"/>
      <point x="240.90909090909088" y="613.4545454545454"/>
      <point x="247.9090909090909" y="581.4545454545454"/>
      <point x="247.9090909090909" y="547.1818181818182" type="curve" smooth="yes"/>
      <point x="247.9090909090909" y="542.0909090909091" type="line" smooth="yes"/>
      <point x="247.9090909090909" y="476.45454545454544"/>
      <point x="216.63636363636363" y="438.45454545454544"/>
      <point x="153.54545454545453" y="438.45454545454544" type="curve" smooth="yes"/>
      <point x="144.81818181818184" y="438.45454545454544"/>
      <point x="128.27272727272728" y="439.45454545454544"/>
      <point x="111.36363636363637" y="447.2727272727273" type="curve" smooth="yes"/>
      <point x="93.81818181818181" y="466.6363636363636"/>
      <point x="89.0" y="495.3636363636364"/>
    </contour>
    <contour>
      <point x="427.5454545454545" y="344.0" type="curve" smooth="yes"/>
      <point x="333.54545454545456" y="344.0"/>
      <point x="270.5454545454545" y="271.0"/>
      <point x="270.5454545454545" y="163.0" type="curve" smooth="yes"/>
      <point x="270.5454545454545" y="157.0" type="line" smooth="yes"/>
      <point x="270.5454545454545" y="54.0"/>
      <point x="327.54545454545456" y="-10.0"/>
      <point x="420.5454545454545" y="-10.0" type="curve" smooth="yes"/>
      <point x="517.5454545454545" y="-10.0"/>
      <point x="579.5454545454546" y="57.81818181818182"/>
      <point x="579.5454545454546" y="164.54545454545456" type="curve" smooth="yes"/>
      <point x="579.5454545454546" y="170.54545454545456" type="line" smooth="yes"/>
      <point x="579.5454545454546" y="273.4545454545455"/>
      <point x="516.6363636363636" y="344.0"/>
    </contour>
    <contour>
      <point x="339.0909090909091" y="154.72727272727272" type="curve" smooth="yes"/>
      <point x="339.0909090909091" y="159.8181818181818" type="line" smooth="yes"/>
      <point x="339.0909090909091" y="229.0"/>
      <point x="375.9090909090909" y="276.2727272727273"/>
      <point x="430.18181818181813" y="276.2727272727273" type="curve" smooth="yes"/>
      <point x="444.5454545454545" y="276.2727272727273"/>
      <point x="455.3636363636363" y="274.72727272727275"/>
      <point x="465.1818181818182" y="271.6363636363636" type="curve" smooth="yes"/>
      <point x="491.0" y="247.45454545454544"/>
      <point x="498.0" y="215.45454545454544"/>
      <point x="498.0" y="181.1818181818182" type="curve" smooth="yes"/>
      <point x="498.0" y="176.0909090909091" type="line" smooth="yes"/>
      <point x="498.0" y="110.45454545454545"/>
      <point x="466.72727272727275" y="72.45454545454545"/>
      <point x="403.6363636363636" y="72.45454545454545" type="curve" smooth="yes"/>
      <point x="394.9090909090909" y="72.45454545454545"/>
      <point x="378.3636363636364" y="73.45454545454547"/>
      <point x="361.45454545454544" y="81.27272727272727" type="curve" smooth="yes"/>
      <point x="343.90909090909093" y="100.63636363636364"/>
      <point x="339.0909090909091" y="129.36363636363637"/>
    </contour>
    <contour>
      <point x="360.8181818181818" y="411.0" type="curve"/>
      <point x="373.45454545454544" y="404.72727272727275"/>
      <point x="388.9090909090909" y="401.90909090909093"/>
      <point x="406.72727272727275" y="401.90909090909093" type="curve" smooth="yes"/>
      <point x="425.90909090909093" y="401.90909090909093"/>
      <point x="437.3636363636364" y="405.3636363636364"/>
      <point x="450.1818181818182" y="420.0" type="curve" smooth="yes"/>
      <point x="501.9090909090909" y="477.9090909090909"/>
      <point x="544.5454545454545" y="599.5454545454545"/>
      <point x="544.5454545454545" y="668.0" type="curve" smooth="yes"/>
      <point x="544.5454545454546" y="696.4545454545455"/>
      <point x="533.0" y="709.1818181818181"/>
      <point x="503.18181818181813" y="709.1818181818181" type="curve" smooth="yes"/>
      <point x="483.8181818181818" y="709.1818181818181"/>
      <point x="466.8181818181818" y="706.7272727272727"/>
      <point x="451.90909090909093" y="703.7272727272727" type="curve"/>
      <point x="445.1818181818182" y="597.4545454545455"/>
      <point x="416.3636363636364" y="504.72727272727275"/>
    </contour>
    <contour>
      <point x="239.1818181818182" y="288.45454545454544" type="curve"/>
      <point x="226.54545454545456" y="294.72727272727275"/>
      <point x="211.0909090909091" y="297.54545454545456"/>
      <point x="193.27272727272728" y="297.54545454545456" type="curve" smooth="yes"/>
      <point x="174.0909090909091" y="297.54545454545456"/>
      <point x="162.63636363636363" y="294.09090909090907"/>
      <point x="149.8181818181818" y="279.45454545454544" type="curve" smooth="yes"/>
      <point x="98.0909090909091" y="221.54545454545456"/>
      <point x="55.45454545454545" y="99.9090909090909"/>
      <point x="55.45454545454545" y="31.454545454545457" type="curve" smooth="yes"/>
      <point x="55.45454545454545" y="3.0"/>
      <point x="67.0" y="-9.727272727272727"/>
      <point x="96.81818181818181" y="-9.727272727272727" type="curve" smooth="yes"/>
      <point x="116.18181818181819" y="-9.727272727272727"/>
      <point x="133.1818181818182" y="-7.272727272727273"/>
      <point x="148.09090909090907" y="-4.272727272727273" type="curve"/>
      <point x="154.8181818181818" y="102.0"/>
      <point x="183.63636363636363" y="194.72727272727272"/>
    </contour>
  </outline>
</glyph>
<glyph name="ampersand" format="2">
  <advance width="600.0"/>
  <unicode hex="0026"/>
  <outline>
    <contour>
      <point x="247.72727272727272" y="369.3636363636364" type="curve" smooth="yes"/>
      <point x="218.9090909090909" y="427.0909090909091"/>
      <point x="202.45454545454544" y="482.72727272727275"/>
      <point x="202.45454545454544" y="528.9090909090909" type="curve" smooth="yes"/>
      <point x="202.45454545454544" y="540.2727272727273"/>
      <point x="203.45454545454544" y="552.4545454545454"/>
      <point x="206.54545454545456" y="562.7272727272727" type="curve"/>
      <point x="227.09090909090912" y="592.2727272727274"/>
      <point x="268.27272727272725" y="614.0"/>
      <point x="322.6363636363636" y="614.0" type="curve" smooth="yes"/>
      <point x="388.45454545454544" y="614.0"/>
      <point x="432.0" y="599.6363636363636"/>
      <point x="465.3636363636364" y="574.090909090909" type="curve"/>
      <point x="471.3636363636364" y="574.090909090909" type="line"/>
      <point x="476.0909090909091" y="585.6363636363636"/>
      <point x="478.90909090909093" y="599.3636363636364"/>
      <point x="478.90909090909093" y="615.090909090909" type="curve" smooth="yes"/>
      <point x="478.90909090909093" y="641.2727272727274"/>
      <point x="474.6363636363637" y="660.3636363636364"/>
      <point x="458.72727272727275" y="676.2727272727274" type="curve" smooth="yes"/>
      <point x="437.6363636363636" y="697.3636363636364"/>
      <point x="394.5454545454545" y="710.0"/>
      <point x="321.81818181818187" y="710.0" type="curve" smooth="yes"/>
      <point x="199.36363636363637" y="710.0"/>
      <point x="112.45454545454545" y="627.3636363636364"/>
      <point x="112.45454545454545" y="535.1818181818182" type="curve" smooth="yes"/>
      <point x="112.45454545454545" y="530.8181818181818" type="line" smooth="yes"/>
      <point x="112.45454545454545" y="473.45454545454544"/>
      <point x="134.72727272727272" y="406.6363636363636"/>
      <point x="172.09090909090907" y="336.1818181818182" type="curve" smooth="yes"/>
      <point x="220.9090909090909" y="244.1818181818182"/>
      <point x="291.6363636363636" y="149.9090909090909"/>
      <point x="359.9090909090909" y="82.18181818181819" type="curve" smooth="yes"/>
      <point x="430.2727272727273" y="11.272727272727272"/>
      <point x="467.0" y="-10.0"/>
      <point x="515.5454545454546" y="-10.0" type="curve" smooth="yes"/>
      <point x="531.9090909090909" y="-10.0"/>
      <point x="545.1818181818181" y="-6.090909090909091"/>
      <point x="554.5454545454545" y="1.6363636363636367" type="curve" smooth="yes"/>
      <point x="567.3636363636363" y="12.81818181818182"/>
      <point x="574.1818181818181" y="32.09090909090909"/>
      <point x="574.1818181818181" y="58.81818181818182" type="curve" smooth="yes"/>
      <point x="574.1818181818181" y="76.54545454545456"/>
      <point x="572.2727272727273" y="92.9090909090909"/>
      <point x="568.4545454545454" y="105.00000000000001" type="curve"/>
      <point x="562.4545454545454" y="105.00000000000001" type="line"/>
      <point x="552.0909090909091" y="94.1818181818182"/>
      <point x="540.6363636363636" y="90.00000000000001"/>
      <point x="520.1818181818182" y="90.00000000000001" type="curve" smooth="yes"/>
      <point x="487.3636363636363" y="90.00000000000001"/>
      <point x="444.5454545454545" y="114.00000000000001"/>
      <point x="406.18181818181813" y="152.36363636363637" type="curve" smooth="yes"/>
      <point x="342.8181818181818" y="215.27272727272728"/>
      <point x="284.0" y="296.27272727272725"/>
    </contour>
    <contour>
      <point x="204.54545454545453" y="-9.545454545454545" type="curve" smooth="yes"/>
      <point x="287.0" y="-9.545454545454545"/>
      <point x="333.4545454545455" y="23.454545454545453"/>
      <point x="360.27272727272725" y="75.81818181818181" type="curve"/>
      <point x="396.27272727272725" y="75.81818181818181" type="line"/>
      <point x="343.3636363636364" y="131.63636363636363" type="line"/>
      <point x="311.09090909090907" y="91.72727272727273"/>
      <point x="278.7713214620455" y="76.63636363636364"/>
      <point x="221.9090909090909" y="76.63636363636364" type="curve" smooth="yes"/>
      <point x="158.1818181818182" y="76.63636363636364"/>
      <point x="124.27272727272728" y="123.54545454545455"/>
      <point x="124.27272727272728" y="181.63636363636363" type="curve" smooth="yes"/>
      <point x="124.27272727272728" y="184.63636363636365" type="line" smooth="yes"/>
      <point x="124.27272727272728" y="252.18181818181816"/>
      <point x="167.45454545454547" y="284.5454545454545"/>
      <point x="221.0" y="294.90909090909093" type="curve"/>
      <point x="176.9090909090909" y="363.72727272727275" type="line"/>
      <point x="166.0909090909091" y="338.0909090909091" type="line"/>
      <point x="90.72727272727272" y="321.54545454545456"/>
      <point x="33.81818181818181" y="265.2727272727273"/>
      <point x="33.81818181818181" y="168.0" type="curve" smooth="yes"/>
      <point x="33.81818181818181" y="164.0909090909091" type="line" smooth="yes"/>
      <point x="33.81818181818181" y="63.0"/>
      <point x="98.63636363636364" y="-9.545454545454545"/>
    </contour>
    <contour>
      <point x="430.45454545454544" y="397.54545454545456" type="curve"/>
      <point x="430.45454545454544" y="387.0"/>
      <point x="430.45454545454544" y="377.0"/>
      <point x="430.45454545454544" y="365.54545454545456" type="curve" smooth="yes"/>
      <point x="430.45454545454544" y="287.7346041055909"/>
      <point x="414.18181818181813" y="226.54545454545456"/>
      <point x="368.1818181818182" y="161.81818181818184" type="curve"/>
      <point x="419.45454545454544" y="109.72727272727272" type="line"/>
      <point x="419.45454545454544" y="147.8181818181818" type="line"/>
      <point x="494.6363636363636" y="204.9090909090909"/>
      <point x="527.2727272727274" y="272.9090909090909"/>
      <point x="527.2727272727274" y="338.09090909090907" type="curve" smooth="yes"/>
      <point x="527.2727272727274" y="349.72727272727275" type="line" smooth="yes"/>
      <point x="527.2727272727274" y="383.8181818181818"/>
      <point x="499.9090909090909" y="399.8181818181818"/>
      <point x="453.2727272727273" y="399.8181818181818" type="curve"/>
      <point x="443.54545454545456" y="399.8181818181818"/>
      <point x="436.0909090909091" y="398.9090909090909"/>
    </contour>
  </outline>
</glyph>
<glyph name="quotesingle" format="2">
  <advance width="275.0"/>
  <unicode hex="0027"/>
  <outline>
    <contour>
      <point x="192.5" y="442.0" type="curve"/>
      <point x="204.5" y="658.5" type="line" smooth="yes"/>
      <point x="208.5" y="725.0"/>
      <point x="178.5" y="754.0"/>
      <point x="106.5" y="754.0" type="curve" smooth="yes"/>
      <point x="93.5" y="754.0"/>
      <point x="81.0" y="752.5"/>
      <point x="70.0" y="750.0" type="curve"/>
      <point x="78.5" y="726.0"/>
      <point x="81.5" y="708.0"/>
      <point x="84.5" y="653.5" type="curve" smooth="yes"/>
      <point x="94.5" y="486.5" type="line" smooth="yes"/>
      <point x="96.5" y="452.0"/>
      <point x="114.5" y="439.0"/>
      <point x="159.0" y="439.0" type="curve" smooth="yes"/>
      <point x="172.0" y="439.0"/>
      <point x="183.5" y="440.0"/>
    </contour>
  </outline>
</glyph>
<glyph name="parenleft" format="2">
  <advance width="450.0"/>
  <unicode hex="0028"/>
  <outline>
    <contour>
      <point x="242.0" y="739.0" type="curve" smooth="yes"/>
      <point x="136.0" y="633.0"/>
      <point x="76.5" y="477.5"/>
      <point x="76.5" y="302.0" type="curve" smooth="yes"/>
      <point x="76.5" y="295.5" type="line" smooth="yes"/>
      <point x="76.5" y="120.0"/>
      <point x="136.5" y="-36.0"/>
      <point x="242.0" y="-141.5" type="curve" smooth="yes"/>
      <point x="263.5" y="-163.0"/>
      <point x="282.5" y="-172.5"/>
      <point x="306.0" y="-172.5" type="curve" smooth="yes"/>
      <point x="337.5" y="-172.5"/>
      <point x="357.5" y="-162.0"/>
      <point x="373.5" y="-148.5" type="curve"/>
      <point x="373.5" y="-143.5" type="line"/>
      <point x="253.0" y="-28.5"/>
      <point x="189.0" y="125.5"/>
      <point x="189.0" y="295.5" type="curve" smooth="yes"/>
      <point x="189.0" y="302.0" type="line" smooth="yes"/>
      <point x="189.0" y="471.0"/>
      <point x="252.5" y="626.0"/>
      <point x="373.5" y="741.0" type="curve"/>
      <point x="373.5" y="746.0" type="line"/>
      <point x="357.5" y="759.5"/>
      <point x="337.5" y="770.0"/>
      <point x="306.0" y="770.0" type="curve" smooth="yes"/>
      <point x="282.5" y="770.0"/>
      <point x="263.5" y="760.5"/>
    </contour>
  </outline>
</glyph>
<glyph name="parenright" format="2">
  <advance width="450.0"/>
  <unicode hex="0029"/>
  <outline>
    <contour>
      <point x="204.27272727272728" y="-143.0" type="curve" smooth="yes"/>
      <point x="311.3636363636364" y="-35.90909090909091"/>
      <point x="371.5454545454545" y="119.54545454545453"/>
      <point x="371.5454545454545" y="295.6363636363636" type="curve" smooth="yes"/>
      <point x="371.5454545454545" y="301.9090909090909" type="line" smooth="yes"/>
      <point x="371.5454545454545" y="478.0"/>
      <point x="310.9090909090909" y="633.9090909090909"/>
      <point x="204.27272727272728" y="740.5454545454546" type="curve" smooth="yes"/>
      <point x="183.8181818181818" y="761.0"/>
      <point x="165.8181818181818" y="770.0"/>
      <point x="143.45454545454547" y="770.0" type="curve" smooth="yes"/>
      <point x="113.18181818181819" y="770.0"/>
      <point x="93.9090909090909" y="760.0"/>
      <point x="78.45454545454545" y="747.1818181818182" type="curve"/>
      <point x="78.45454545454545" y="742.2727272727274" type="line"/>
      <point x="200.45454545454544" y="626.0"/>
      <point x="264.27272727272725" y="472.3636363636364"/>
      <point x="264.27272727272725" y="301.9090909090909" type="curve" smooth="yes"/>
      <point x="264.27272727272725" y="295.6363636363636" type="line" smooth="yes"/>
      <point x="264.27272727272725" y="126.18181818181819"/>
      <point x="200.9090909090909" y="-28.454545454545453"/>
      <point x="78.45454545454545" y="-144.72727272727275" type="curve"/>
      <point x="78.45454545454545" y="-149.63636363636365" type="line"/>
      <point x="93.9090909090909" y="-162.45454545454547"/>
      <point x="113.18181818181819" y="-172.45454545454547"/>
      <point x="143.45454545454547" y="-172.45454545454547" type="curve" smooth="yes"/>
      <point x="165.8181818181818" y="-172.45454545454547"/>
      <point x="183.8181818181818" y="-163.45454545454544"/>
    </contour>
  </outline>
</glyph>
<glyph name="asterisk" format="2">
  <advance width="600.0"/>
  <unicode hex="002A"/>
  <outline>
    <contour>
      <point x="288.45454545454544" y="576.9090909090909" type="curve" smooth="yes"/>
      <point x="273.1818181818182" y="576.9090909090909"/>
      <point x="258.1818181818182" y="574.4545454545455"/>
      <point x="246.27272727272728" y="569.6363636363636" type="curve"/>
      <point x="253.45454545454547" y="547.2727272727273"/>
      <point x="257.6363636363636" y="527.3636363636363"/>
      <point x="260.90909090909093" y="500.3636363636364" type="curve" smooth="yes"/>
      <point x="265.27272727272725" y="448.6363636363636"/>
      <point x="268.6363636363636" y="404.90909090909093"/>
      <point x="276.90909090909093" y="362.0" type="curve"/>
      <point x="270.9090909090909" y="358.0" type="line"/>
      <point x="231.36363636363635" y="390.0"/>
      <point x="183.8181818181818" y="425.6363636363636"/>
      <point x="132.72727272727275" y="459.7272727272727" type="curve" smooth="yes"/>
      <point x="108.90909090909092" y="476.18181818181813"/>
      <point x="83.54545454545455" y="466.5454545454545"/>
      <point x="64.72727272727273" y="435.6363636363636" type="curve" smooth="yes"/>
      <point x="58.454545454545446" y="425.54545454545456"/>
      <point x="54.54545454545454" y="412.9090909090909"/>
      <point x="51.18181818181818" y="401.72727272727275" type="curve"/>
      <point x="122.81818181818181" y="367.8181818181818"/>
      <point x="177.63636363636363" y="341.90909090909093"/>
      <point x="242.0909090909091" y="314.3636363636364" type="curve"/>
      <point x="242.0909090909091" y="308.3636363636364" type="line"/>
      <point x="188.36363636363637" y="286.72727272727275"/>
      <point x="138.72727272727272" y="264.6363636363636"/>
      <point x="86.63636363636363" y="241.0909090909091" type="curve" smooth="yes"/>
      <point x="61.0" y="230.36363636363635"/>
      <point x="57.54545454545455" y="199.0909090909091"/>
      <point x="75.0" y="169.18181818181816" type="curve" smooth="yes"/>
      <point x="82.36363636363636" y="157.0"/>
      <point x="90.0" y="148.36363636363637"/>
      <point x="98.27272727272728" y="140.0909090909091" type="curve"/>
      <point x="159.1818181818182" y="182.54545454545453"/>
      <point x="213.0" y="219.36363636363637"/>
      <point x="267.0909090909091" y="261.45454545454544" type="curve"/>
      <point x="272.6363636363636" y="257.4545454545455" type="line"/>
      <point x="264.27272727272725" y="212.45454545454544"/>
      <point x="258.90909090909093" y="174.36363636363637"/>
      <point x="253.54545454545453" y="128.0" type="curve" smooth="yes"/>
      <point x="244.18181818181816" y="73.0909090909091"/>
      <point x="262.1818181818182" y="42.63636363636363"/>
      <point x="313.72727272727275" y="42.63636363636363" type="curve" smooth="yes"/>
      <point x="328.3636363636364" y="42.63636363636363"/>
      <point x="343.9090909090909" y="44.54545454545455"/>
      <point x="357.5454545454545" y="49.36363636363637" type="curve"/>
      <point x="350.27272727272725" y="71.18181818181817"/>
      <point x="344.0909090909091" y="91.63636363636364"/>
      <point x="340.3636363636363" y="122.63636363636364" type="curve" smooth="yes"/>
      <point x="336.45454545454544" y="170.54545454545456"/>
      <point x="333.54545454545456" y="210.36363636363637"/>
      <point x="326.72727272727275" y="257.90909090909093" type="curve"/>
      <point x="332.72727272727275" y="261.45454545454544" type="line"/>
      <point x="376.54545454545456" y="225.1818181818182"/>
      <point x="416.0" y="197.8181818181818"/>
      <point x="465.0" y="163.27272727272728" type="curve" smooth="yes"/>
      <point x="492.27272727272725" y="143.63636363636365"/>
      <point x="518.4545454545454" y="154.36363636363637"/>
      <point x="537.3636363636364" y="186.72727272727272" type="curve" smooth="yes"/>
      <point x="543.8181818181819" y="197.0909090909091"/>
      <point x="547.0909090909091" y="206.8181818181818"/>
      <point x="550.9090909090909" y="221.27272727272725" type="curve"/>
      <point x="478.4545454545455" y="254.81818181818184"/>
      <point x="416.1818181818182" y="283.6363636363636"/>
      <point x="358.54545454545456" y="307.0" type="curve"/>
      <point x="358.54545454545456" y="313.0" type="line"/>
      <point x="409.3636363636364" y="333.1818181818182"/>
      <point x="458.45454545454544" y="355.1818181818182"/>
      <point x="516.5454545454546" y="381.8181818181818" type="curve" smooth="yes"/>
      <point x="542.6363636363636" y="393.0909090909091"/>
      <point x="545.4545454545455" y="419.09090909090907"/>
      <point x="527.1818181818182" y="453.0909090909091" type="curve" smooth="yes"/>
      <point x="522.3636363636364" y="462.3636363636364"/>
      <point x="516.0" y="470.1818181818182"/>
      <point x="504.8181818181818" y="481.1818181818182" type="curve"/>
      <point x="424.1818181818182" y="426.0"/>
      <point x="371.9090909090909" y="389.90909090909093"/>
      <point x="334.09090909090907" y="358.0" type="curve"/>
      <point x="328.54545454545456" y="362.0" type="line"/>
      <point x="337.3636363636364" y="400.0"/>
      <point x="342.8181818181818" y="442.6363636363636"/>
      <point x="348.6363636363636" y="490.45454545454544" type="curve" smooth="yes"/>
      <point x="358.4545454545455" y="545.4545454545454"/>
      <point x="340.0" y="576.9090909090909"/>
    </contour>
  </outline>
</glyph>
<glyph name="plus" format="2">
  <advance width="600.0"/>
  <unicode hex="002B"/>
  <outline>
    <contour>
      <point x="240.5" y="539.5" type="curve"/>
      <point x="247.5" y="507.5"/>
      <point x="250.5" y="474.5"/>
      <point x="250.5" y="435.0" type="curve" smooth="yes"/>
      <point x="250.5" y="333.5"/>
      <point x="250.5" y="232.0"/>
      <point x="250.5" y="130.5" type="curve" smooth="yes"/>
      <point x="250.5" y="75.0"/>
      <point x="272.5" y="55.0"/>
      <point x="318.0" y="55.0" type="curve" smooth="yes"/>
      <point x="329.5" y="55.0"/>
      <point x="338.5" y="56.0"/>
      <point x="350.5" y="59.0" type="curve"/>
      <point x="350.5" y="194.0"/>
      <point x="350.5" y="329.5"/>
      <point x="350.5" y="464.5" type="curve" smooth="yes"/>
      <point x="350.5" y="519.0"/>
      <point x="327.5" y="545.0"/>
      <point x="279.5" y="545.0" type="curve" smooth="yes"/>
      <point x="265.5" y="545.0"/>
      <point x="254.0" y="543.0"/>
    </contour>
    <contour>
      <point x="55.5" y="350.0" type="line"/>
      <point x="53.0" y="338.5"/>
      <point x="51.0" y="323.0"/>
      <point x="51.0" y="308.5" type="curve" smooth="yes"/>
      <point x="51.0" y="266.5"/>
      <point x="72.5" y="250.0"/>
      <point x="124.0" y="250.0" type="curve"/>
      <point x="549.0" y="250.0" type="line"/>
      <point x="550.0" y="263.0"/>
      <point x="550.5" y="275.0"/>
      <point x="550.5" y="286.5" type="curve"/>
      <point x="550.5" y="334.0"/>
      <point x="533.5" y="350.0"/>
      <point x="482.5" y="350.0" type="curve"/>
    </contour>
  </outline>
</glyph>
<glyph name="comma" format="2">
  <advance width="375.5"/>
  <unicode hex="002C"/>
  <outline>
    <contour>
      <point x="146.5" y="-195.0" type="curve" smooth="yes"/>
      <point x="163.0" y="-195.0"/>
      <point x="171.5" y="-191.5"/>
      <point x="180.0" y="-182.0" type="curve"/>
      <point x="234.0" y="-123.0"/>
      <point x="283.5" y="0.5"/>
      <point x="283.5" y="119.5" type="curve"/>
      <point x="283.5" y="166.5"/>
      <point x="255.0" y="183.0"/>
      <point x="200.0" y="183.0" type="curve" smooth="yes"/>
      <point x="181.0" y="183.0"/>
      <point x="166.5" y="181.0"/>
      <point x="146.0" y="175.0" type="curve"/>
      <point x="146.0" y="19.0"/>
      <point x="125.5" y="-72.5"/>
      <point x="72.0" y="-169.0" type="curve"/>
      <point x="94.0" y="-188.0"/>
      <point x="114.5" y="-195.0"/>
    </contour>
  </outline>
</glyph>
<glyph name="hyphen" format="2">
  <advance width="600.0"/>
  <unicode hex="002D"/>
  <outline>
    <contour>
      <point x="105.45454545454545" y="347.2727272727273" type="line"/>
      <point x="105.45454545454545" y="342.90909090909093"/>
      <point x="105.45454545454545" y="338.0"/>
      <point x="105.45454545454545" y="333.1818181818182" type="curve" smooth="yes"/>
      <point x="105.45454545454545" y="265.6363636363636"/>
      <point x="115.18181818181817" y="251.8181818181818"/>
      <point x="166.63636363636363" y="251.8181818181818" type="curve"/>
      <point x="496.8181818181818" y="251.8181818181818" type="line"/>
      <point x="498.6363636363636" y="263.0"/>
      <point x="500.0" y="275.6363636363637"/>
      <point x="500.0" y="285.90909090909093" type="curve" smooth="yes"/>
      <point x="500.0" y="332.0909090909091"/>
      <point x="488.9090909090909" y="347.2727272727273"/>
      <point x="454.27272727272725" y="347.2727272727273" type="curve"/>
    </contour>
  </outline>
</glyph>
<glyph name="period" format="2">
  <advance width="325.0"/>
  <unicode hex="002E"/>
  <outline>
    <contour>
      <point x="245.5" y="4.5" type="curve"/>
      <point x="245.5" y="90.5" type="line" smooth="yes"/>
      <point x="245.5" y="148.0"/>
      <point x="202.0" y="165.5"/>
      <point x="153.5" y="165.5" type="curve"/>
      <point x="124.0" y="165.5"/>
      <point x="100.0" y="159.0"/>
      <point x="79.5" y="146.5" type="curve"/>
      <point x="79.5" y="60.5" type="line" smooth="yes"/>
      <point x="79.5" y="7.5"/>
      <point x="123.0" y="-8.0"/>
      <point x="176.0" y="-8.0" type="curve" smooth="yes"/>
      <point x="200.0" y="-8.0"/>
      <point x="225.0" y="-4.0"/>
    </contour>
  </outline>
</glyph>
<glyph name="slash" format="2">
  <advance width="600.0"/>
  <unicode hex="002F"/>
  <outline>
    <contour>
      <point x="555.5454545454545" y="750.4545454545455" type="curve"/>
      <point x="540.3636363636364" y="758.0909090909091"/>
      <point x="527.9090909090909" y="761.4545454545455"/>
      <point x="510.54545454545456" y="761.4545454545455" type="curve" smooth="yes"/>
      <point x="475.72727272727275" y="761.4545454545455"/>
      <point x="448.7272727272727" y="749.8181818181819"/>
      <point x="440.09090909090907" y="721.2727272727273" type="curve" smooth="yes"/>
      <point x="361.0909090909091" y="443.1818181818182"/>
      <point x="251.18181818181816" y="186.1818181818182"/>
      <point x="109.18181818181819" y="-47.0" type="curve" smooth="yes"/>
      <point x="88.9090909090909" y="-79.81818181818181"/>
      <point x="72.72727272727272" y="-102.54545454545455"/>
      <point x="52.36363636363636" y="-123.9090909090909" type="curve"/>
      <point x="68.18181818181817" y="-133.36363636363637"/>
      <point x="84.0" y="-137.1818181818182"/>
      <point x="105.54545454545455" y="-137.1818181818182" type="curve" smooth="yes"/>
      <point x="141.0909090909091" y="-137.1818181818182"/>
      <point x="168.36363636363637" y="-122.63636363636364"/>
      <point x="192.1818181818182" y="-86.72727272727272" type="curve"/>
      <point x="347.1818181818182" y="155.54545454545456"/>
      <point x="467.7272727272727" y="434.45454545454544"/>
    </contour>
  </outline>
</glyph>
<glyph name="zero" format="2">
  <advance width="600.0"/>
  <unicode hex="0030"/>
  <outline>
    <contour>
      <point x="303.09090909090907" y="720.0" type="curve" smooth="yes"/>
      <point x="166.63636363636363" y="720.0"/>
      <point x="63.63636363636364" y="586.8181818181819"/>
      <point x="63.63636363636364" y="358.1818181818182" type="curve" smooth="yes"/>
      <point x="63.63636363636364" y="312.72727272727275" type="line" smooth="yes"/>
      <point x="63.63636363636364" y="102.72727272727273"/>
      <point x="159.63636363636365" y="-20.0"/>
      <point x="297.2727272727273" y="-20.0" type="curve" smooth="yes"/>
      <point x="433.81818181818187" y="-20.0"/>
      <point x="536.3636363636364" y="104.0909090909091"/>
      <point x="536.3636363636364" y="319.09090909090907" type="curve" smooth="yes"/>
      <point x="536.3636363636364" y="364.54545454545456" type="line" smooth="yes"/>
      <point x="536.3636363636364" y="588.1818181818182"/>
      <point x="441.27272727272725" y="720.0"/>
    </contour>
    <contour>
      <point x="315.8181818181818" y="625.0" type="curve" smooth="yes"/>
      <point x="332.72727272727275" y="625.0"/>
      <point x="347.5454545454545" y="624.4545454545455"/>
      <point x="359.9090909090909" y="621.2727272727273" type="curve" smooth="yes"/>
      <point x="424.27272727272725" y="572.5454545454546"/>
      <point x="440.90909090909093" y="472.4545454545455"/>
      <point x="440.90909090909093" y="376.6363636363636" type="curve" smooth="yes"/>
      <point x="440.90909090909093" y="332.72727272727275" type="line" smooth="yes"/>
      <point x="440.90909090909093" y="186.00000000000003"/>
      <point x="387.4545454545455" y="75.00000000000001"/>
      <point x="284.1818181818182" y="75.00000000000001" type="curve" smooth="yes"/>
      <point x="265.54545454545456" y="75.00000000000001"/>
      <point x="248.81818181818187" y="75.54545454545456"/>
      <point x="235.54545454545453" y="78.63636363636365" type="curve" smooth="yes"/>
      <point x="173.36363636363637" y="123.72727272727273"/>
      <point x="159.0909090909091" y="216.54545454545456"/>
      <point x="159.0909090909091" y="300.6363636363636" type="curve" smooth="yes"/>
      <point x="159.0909090909091" y="344.54545454545456" type="line" smooth="yes"/>
      <point x="159.0909090909091" y="504.45454545454544"/>
      <point x="212.54545454545453" y="625.0"/>
    </contour>
  </outline>
</glyph>
<glyph name="one" format="2">
  <advance width="600.0"/>
  <unicode hex="0031"/>
  <outline>
    <contour>
      <point x="269.4545454545455" y="703.2727272727273" type="curve"/>
      <point x="253.90909090909088" y="677.3636363636364"/>
      <point x="230.9090909090909" y="644.9090909090909"/>
      <point x="201.0" y="614.5454545454545" type="curve" smooth="yes"/>
      <point x="165.36363636363635" y="578.909090909091"/>
      <point x="129.0" y="552.7272727272727"/>
      <point x="87.54545454545455" y="532.909090909091" type="curve"/>
      <point x="87.54545454545455" y="518.8181818181818" type="line" smooth="yes"/>
      <point x="87.54545454545455" y="464.0"/>
      <point x="101.18181818181817" y="444.6363636363636"/>
      <point x="123.36363636363636" y="444.6363636363636" type="curve" smooth="yes"/>
      <point x="146.1818181818182" y="444.6363636363636"/>
      <point x="170.9090909090909" y="455.8181818181818"/>
      <point x="206.0" y="489.90909090909093" type="curve" smooth="yes"/>
      <point x="246.0" y="527.8181818181818"/>
      <point x="275.0909090909091" y="569.8181818181819"/>
      <point x="293.2727272727273" y="621.6363636363636" type="curve"/>
      <point x="259.2727272727273" y="591.3636363636364" type="line"/>
      <point x="311.45454545454544" y="591.3636363636364" type="line"/>
      <point x="287.27272727272725" y="623.1818181818182" type="line"/>
      <point x="287.27272727272725" y="544.4545454545454"/>
      <point x="287.27272727272725" y="233.18181818181822"/>
      <point x="287.27272727272725" y="177.27272727272728" type="curve" smooth="yes"/>
      <point x="287.27272727272725" y="142.0909090909091"/>
      <point x="295.8181818181818" y="114.81818181818183"/>
      <point x="312.1818181818182" y="101.45454545454545" type="curve"/>
      <point x="312.1818181818182" y="69.09090909090911" type="line"/>
      <point x="382.72727272727275" y="69.09090909090911" type="line"/>
      <point x="382.72727272727275" y="163.63636363636363"/>
      <point x="382.72727272727275" y="578.6363636363636"/>
      <point x="382.72727272727275" y="673.8181818181819" type="curve" smooth="yes"/>
      <point x="382.72727272727275" y="701.1818181818181"/>
      <point x="360.54545454545456" y="710.0"/>
      <point x="317.4545454545455" y="710.0" type="curve"/>
      <point x="298.6363636363637" y="710.0"/>
      <point x="281.0909090909091" y="707.1818181818181"/>
    </contour>
    <contour>
      <point x="79.45454545454545" y="95.45454545454545" type="curve"/>
      <point x="78.36363636363636" y="87.81818181818183"/>
      <point x="77.81818181818181" y="80.0909090909091"/>
      <point x="77.81818181818181" y="68.54545454545455" type="curve" smooth="yes"/>
      <point x="77.81818181818181" y="45.27272727272727"/>
      <point x="82.54545454545455" y="24.90909090909091"/>
      <point x="94.54545454545455" y="12.90909090909091" type="curve" smooth="yes"/>
      <point x="104.0909090909091" y="3.3636363636363638"/>
      <point x="118.0909090909091" y="0.0"/>
      <point x="144.45454545454544" y="0.0" type="curve" smooth="yes"/>
      <point x="193.54545454545456" y="0.0"/>
      <point x="544.0" y="0.0"/>
      <point x="554.9090909090909" y="0.0" type="curve"/>
      <point x="556.7272727272726" y="6.545454545454545"/>
      <point x="557.6363636363636" y="15.545454545454547"/>
      <point x="557.6363636363636" y="23.909090909090914" type="curve" smooth="yes"/>
      <point x="557.6363636363636" y="65.0909090909091"/>
      <point x="486.27272727272725" y="95.45454545454545"/>
      <point x="365.9090909090909" y="95.45454545454545" type="curve"/>
      <point x="281.9090909090909" y="95.45454545454545"/>
      <point x="90.36363636363637" y="95.45454545454545"/>
    </contour>
  </outline>
</glyph>
<glyph name="two" format="2">
  <advance width="600.0"/>
  <unicode hex="0032"/>
  <outline>
    <contour>
      <point x="303.6363636363637" y="720.0" type="curve" smooth="yes"/>
      <point x="228.0909090909091" y="720.0"/>
      <point x="171.0909090909091" y="694.6363636363636"/>
      <point x="133.72727272727272" y="657.2727272727273" type="curve" smooth="yes"/>
      <point x="101.18181818181819" y="624.7272727272727"/>
      <point x="83.0" y="585.1818181818181"/>
      <point x="83.0" y="542.6363636363636" type="curve" smooth="yes"/>
      <point x="83.0" y="507.2727272727273"/>
      <point x="107.81818181818181" y="481.72727272727275"/>
      <point x="155.54545454545453" y="476.81818181818176" type="curve"/>
      <point x="161.54545454545456" y="476.81818181818176" type="line"/>
      <point x="165.9090909090909" y="572.8181818181818"/>
      <point x="214.8181818181818" y="624.5454545454545"/>
      <point x="305.90909090909093" y="624.5454545454545" type="curve" smooth="yes"/>
      <point x="350.5454545454545" y="624.5454545454545"/>
      <point x="379.0" y="615.6363636363636"/>
      <point x="403.9090909090909" y="599.3636363636363" type="curve" smooth="yes"/>
      <point x="417.0909090909091" y="579.4545454545454"/>
      <point x="424.90909090909093" y="553.2727272727274"/>
      <point x="424.90909090909093" y="526.6363636363636" type="curve" smooth="yes"/>
      <point x="424.90909090909093" y="523.2727272727273" type="line" smooth="yes"/>
      <point x="424.90909090909093" y="445.18181818181813"/>
      <point x="389.9090909090909" y="385.27272727272725"/>
      <point x="279.3636363636364" y="320.3636363636364" type="curve" smooth="yes"/>
      <point x="142.81818181818184" y="242.18181818181816"/>
      <point x="63.63636363636363" y="167.45454545454547"/>
      <point x="63.63636363636363" y="76.81818181818181" type="curve" smooth="yes"/>
      <point x="63.63636363636363" y="72.36363636363637" type="line" smooth="yes"/>
      <point x="63.63636363636363" y="42.81818181818182"/>
      <point x="85.81818181818181" y="0.0"/>
      <point x="108.9090909090909" y="0.0" type="curve" smooth="yes"/>
      <point x="132.0" y="0.0"/>
      <point x="518.9090909090909" y="0.0"/>
      <point x="533.0" y="0.0" type="curve"/>
      <point x="535.3636363636364" y="10.818181818181818"/>
      <point x="537.2727272727273" y="24.545454545454547"/>
      <point x="537.2727272727273" y="37.909090909090914" type="curve" smooth="yes"/>
      <point x="537.2727272727273" y="79.36363636363637"/>
      <point x="524.6363636363636" y="95.45454545454545"/>
      <point x="485.54545454545456" y="95.45454545454545" type="curve"/>
      <point x="277.9090909090909" y="95.45454545454545" type="line" smooth="yes"/>
      <point x="207.72727272727272" y="95.45454545454545"/>
      <point x="165.1818181818182" y="88.81818181818181"/>
      <point x="121.36363636363636" y="68.81818181818181" type="curve"/>
      <point x="172.9090909090909" y="81.63636363636364" type="line"/>
      <point x="136.0909090909091" y="81.63636363636364" type="line"/>
      <point x="143.1818181818182" y="56.45454545454545" type="line"/>
      <point x="150.45454545454547" y="131.0"/>
      <point x="183.09090909090907" y="167.8181818181818"/>
      <point x="325.72727272727275" y="248.54545454545456" type="curve" smooth="yes"/>
      <point x="454.72727272727275" y="320.1818181818182"/>
      <point x="521.3636363636364" y="406.90909090909093"/>
      <point x="521.3636363636364" y="516.6363636363636" type="curve" smooth="yes"/>
      <point x="521.3636363636364" y="522.7272727272727" type="line" smooth="yes"/>
      <point x="521.3636363636364" y="643.0"/>
      <point x="433.6363636363636" y="720.0"/>
    </contour>
  </outline>
</glyph>
<glyph name="three" format="2">
  <advance width="600.0"/>
  <unicode hex="0033"/>
  <outline>
    <contour>
      <point x="300.0" y="719.5" type="curve" smooth="yes"/>
      <point x="213.5" y="719.5"/>
      <point x="142.5" y="691.5"/>
      <point x="110.5" y="659.5" type="curve" smooth="yes"/>
      <point x="87.0" y="636.0"/>
      <point x="79.5" y="617.0"/>
      <point x="79.5" y="578.5" type="curve" smooth="yes"/>
      <point x="79.5" y="558.0"/>
      <point x="81.0" y="544.0"/>
      <point x="86.5" y="527.0" type="curve"/>
      <point x="92.5" y="527.0" type="line"/>
      <point x="144.0" y="590.5"/>
      <point x="199.5" y="619.5"/>
      <point x="289.5" y="619.5" type="curve" smooth="yes"/>
      <point x="374.0" y="619.5"/>
      <point x="421.0" y="583.0"/>
      <point x="438.0" y="530.0" type="curve" smooth="yes"/>
      <point x="438.0" y="525.0" type="line" smooth="yes"/>
      <point x="418.0" y="424.0"/>
      <point x="316.5" y="372.0"/>
      <point x="174.0" y="372.0" type="curve"/>
      <point x="171.0" y="360.0"/>
      <point x="170.0" y="351.0"/>
      <point x="170.0" y="334.0" type="curve" smooth="yes"/>
      <point x="170.0" y="296.5"/>
      <point x="180.0" y="282.0"/>
      <point x="207.0" y="280.5" type="curve" smooth="yes"/>
      <point x="334.5" y="276.5"/>
      <point x="437.0" y="237.0"/>
      <point x="450.0" y="160.5" type="curve" smooth="yes"/>
      <point x="450.0" y="156.5" type="line" smooth="yes"/>
      <point x="429.0" y="109.5"/>
      <point x="377.0" y="80.0"/>
      <point x="289.5" y="80.0" type="curve" smooth="yes"/>
      <point x="193.0" y="80.0"/>
      <point x="131.0" y="107.5"/>
      <point x="76.5" y="172.5" type="curve"/>
      <point x="70.5" y="172.5" type="line"/>
      <point x="66.0" y="156.5"/>
      <point x="64.5" y="142.0"/>
      <point x="64.5" y="121.0" type="curve" smooth="yes"/>
      <point x="64.5" y="84.0"/>
      <point x="70.5" y="63.0"/>
      <point x="92.0" y="41.5" type="curve" smooth="yes"/>
      <point x="129.0" y="4.5"/>
      <point x="206.5" y="-20.0"/>
      <point x="300.0" y="-20.0" type="curve" smooth="yes"/>
      <point x="446.0" y="-20.0"/>
      <point x="537.0" y="54.5"/>
      <point x="537.0" y="156.0" type="curve" smooth="yes"/>
      <point x="537.0" y="166.5" type="line" smooth="yes"/>
      <point x="537.0" y="249.5"/>
      <point x="471.0" y="307.5"/>
      <point x="311.0" y="336.0" type="curve"/>
      <point x="342.0" y="305.0" type="line"/>
      <point x="342.0" y="358.5" type="line"/>
      <point x="312.0" y="327.5" type="line"/>
      <point x="463.0" y="365.0"/>
      <point x="525.5" y="449.0"/>
      <point x="526.5" y="528.0" type="curve" smooth="yes"/>
      <point x="527.0" y="543.5" type="line" smooth="yes"/>
      <point x="529.0" y="645.0"/>
      <point x="440.0" y="719.5"/>
    </contour>
  </outline>
</glyph>
<glyph name="four" format="2">
  <advance width="600.0"/>
  <unicode hex="0034"/>
  <outline>
    <contour>
      <point x="400.5" y="713.0" type="curve" smooth="yes"/>
      <point x="367.5" y="713.0"/>
      <point x="347.5" y="705.5"/>
      <point x="295.5" y="651.5" type="curve" smooth="yes"/>
      <point x="167.0" y="517.0"/>
      <point x="46.0" y="324.5"/>
      <point x="46.0" y="240.0" type="curve" smooth="yes"/>
      <point x="46.0" y="230.0" type="line"/>
      <point x="46.0" y="182.0"/>
      <point x="65.0" y="150.0"/>
      <point x="99.0" y="150.0" type="curve" smooth="yes"/>
      <point x="564.0" y="150.0" type="line"/>
      <point x="566.5" y="160.0"/>
      <point x="568.0" y="171.5"/>
      <point x="568.0" y="185.5" type="curve" smooth="yes"/>
      <point x="568.0" y="223.0"/>
      <point x="558.0" y="250.0"/>
      <point x="524.0" y="250.0" type="curve" smooth="yes"/>
      <point x="296.0" y="250.0" type="line" smooth="yes"/>
      <point x="225.5" y="250.0"/>
      <point x="180.0" y="245.5"/>
      <point x="120.0" y="226.0" type="curve"/>
      <point x="136.0" y="216.5" type="line"/>
      <point x="136.0" y="262.0" type="line"/>
      <point x="124.0" y="211.5" type="line"/>
      <point x="200.5" y="391.0"/>
      <point x="354.0" y="588.5"/>
      <point x="495.0" y="678.5" type="curve"/>
      <point x="495.0" y="684.5" type="line"/>
      <point x="478.0" y="702.0"/>
      <point x="445.5" y="713.0"/>
    </contour>
    <contour>
      <point x="410.0" y="396.5" type="curve"/>
      <point x="395.0" y="361.5"/>
      <point x="380.0" y="240.5"/>
      <point x="380.0" y="199.5" type="curve" smooth="yes"/>
      <point x="380.0" y="167.0"/>
      <point x="380.0" y="93.5"/>
      <point x="380.0" y="56.0" type="curve" smooth="yes"/>
      <point x="380.0" y="14.5"/>
      <point x="400.5" y="-9.0"/>
      <point x="457.5" y="-9.0" type="curve" smooth="yes"/>
      <point x="471.0" y="-9.0"/>
      <point x="484.0" y="-7.0"/>
      <point x="494.0" y="-3.0" type="curve"/>
      <point x="487.5" y="24.0"/>
      <point x="485.0" y="54.5"/>
      <point x="485.0" y="97.0" type="curve" smooth="yes"/>
      <point x="485.0" y="352.0" type="line"/>
      <point x="485.0" y="377.0"/>
      <point x="459.0" y="396.5"/>
      <point x="417.5" y="396.5" type="curve" smooth="yes"/>
      <point x="415.0" y="396.5"/>
      <point x="412.5" y="396.5"/>
    </contour>
  </outline>
</glyph>
<glyph name="six" format="2">
  <advance width="600.0"/>
  <unicode hex="0036"/>
  <outline>
    <contour>
      <point x="350.5" y="720.0" type="curve" smooth="yes"/>
      <point x="181.5" y="720.0"/>
      <point x="62.5" y="599.5"/>
      <point x="62.5" y="320.0" type="curve" smooth="yes"/>
      <point x="62.5" y="312.0" type="line" smooth="yes"/>
      <point x="62.5" y="87.0"/>
      <point x="154.5" y="-20.0"/>
      <point x="310.0" y="-20.0" type="curve" smooth="yes"/>
      <point x="446.0" y="-20.0"/>
      <point x="539.0" y="65.0"/>
      <point x="539.0" y="190.0" type="curve" smooth="yes"/>
      <point x="539.0" y="199.5" type="line" smooth="yes"/>
      <point x="539.0" y="316.0"/>
      <point x="452.5" y="392.0"/>
      <point x="336.5" y="392.0" type="curve" smooth="yes"/>
      <point x="262.0" y="392.0"/>
      <point x="196.0" y="365.5"/>
      <point x="153.0" y="303.5" type="curve"/>
      <point x="197.0" y="327.0" type="line"/>
      <point x="131.0" y="327.0" type="line"/>
      <point x="133.5" y="251.5" type="line"/>
      <point x="189.0" y="286.5"/>
      <point x="251.5" y="305.0"/>
      <point x="315.5" y="305.0" type="curve" smooth="yes"/>
      <point x="364.0" y="305.0"/>
      <point x="404.5" y="291.0"/>
      <point x="428.5" y="268.5" type="curve" smooth="yes"/>
      <point x="436.0" y="249.0"/>
      <point x="439.0" y="231.5"/>
      <point x="439.0" y="207.5" type="curve" smooth="yes"/>
      <point x="439.0" y="201.0" type="line" smooth="yes"/>
      <point x="439.0" y="128.5"/>
      <point x="389.0" y="78.5"/>
      <point x="303.0" y="78.5" type="curve" smooth="yes"/>
      <point x="266.5" y="78.5"/>
      <point x="237.5" y="85.0"/>
      <point x="209.5" y="102.0" type="curve" smooth="yes"/>
      <point x="182.5" y="136.5"/>
      <point x="165.0" y="206.5"/>
      <point x="165.0" y="308.5" type="curve" smooth="yes"/>
      <point x="165.0" y="316.5" type="line" smooth="yes"/>
      <point x="165.0" y="454.5"/>
      <point x="192.0" y="542.0"/>
      <point x="227.5" y="588.5" type="curve" smooth="yes"/>
      <point x="259.0" y="607.5"/>
      <point x="305.5" y="620.0"/>
      <point x="352.0" y="620.0" type="curve" smooth="yes"/>
      <point x="413.5" y="620.0"/>
      <point x="457.0" y="607.0"/>
      <point x="498.0" y="577.5" type="curve"/>
      <point x="504.0" y="577.5" type="line"/>
      <point x="508.0" y="588.5"/>
      <point x="510.5" y="602.0"/>
      <point x="510.5" y="619.5" type="curve" smooth="yes"/>
      <point x="510.5" y="656.0"/>
      <point x="500.5" y="673.0"/>
      <point x="484.5" y="686.5" type="curve" smooth="yes"/>
      <point x="468.5" y="700.0"/>
      <point x="430.0" y="720.0"/>
    </contour>
  </outline>
</glyph>
<glyph name="seven" format="2">
  <advance width="600.0"/>
  <unicode hex="0037"/>
  <outline>
    <contour>
      <point x="94.0" y="720.0" type="curve"/>
      <point x="78.5" y="662.0"/>
      <point x="68.0" y="570.5"/>
      <point x="68.0" y="507.5" type="curve" smooth="yes"/>
      <point x="68.0" y="469.0"/>
      <point x="91.5" y="462.0"/>
      <point x="128.5" y="462.0" type="curve" smooth="yes"/>
      <point x="144.0" y="462.0"/>
      <point x="157.0" y="463.5"/>
      <point x="167.0" y="466.0" type="curve"/>
      <point x="167.0" y="530.5"/>
      <point x="187.0" y="664.0"/>
      <point x="187.0" y="681.5" type="curve" smooth="yes"/>
      <point x="187.0" y="706.5"/>
      <point x="142.0" y="720.0"/>
    </contour>
    <contour>
      <point x="332.5" y="-4.0" type="curve"/>
      <point x="332.5" y="104.5"/>
      <point x="351.0" y="191.5"/>
      <point x="438.5" y="356.0" type="curve" smooth="yes"/>
      <point x="499.5" y="473.5"/>
      <point x="535.5" y="561.5"/>
      <point x="535.5" y="612.5" type="curve" smooth="yes"/>
      <point x="535.5" y="620.5" type="line"/>
      <point x="535.5" y="666.5"/>
      <point x="520.0" y="700.0"/>
      <point x="484.0" y="700.0" type="curve" smooth="yes"/>
      <point x="100.0" y="700.0" type="line"/>
      <point x="100.0" y="680.0"/>
      <point x="116.0" y="604.0"/>
      <point x="147.5" y="604.0" type="curve" smooth="yes"/>
      <point x="289.5" y="604.0" type="line" smooth="yes"/>
      <point x="369.5" y="604.0"/>
      <point x="416.5" y="609.0"/>
      <point x="468.5" y="625.0" type="curve"/>
      <point x="429.0" y="636.0" type="line"/>
      <point x="449.0" y="589.5" type="line"/>
      <point x="447.0" y="648.5" type="line"/>
      <point x="436.5" y="578.0"/>
      <point x="417.5" y="517.5"/>
      <point x="360.0" y="419.0" type="curve" smooth="yes"/>
      <point x="264.5" y="254.0"/>
      <point x="226.0" y="145.5"/>
      <point x="226.0" y="46.0" type="curve" smooth="yes"/>
      <point x="226.0" y="7.0"/>
      <point x="251.5" y="-10.0"/>
      <point x="292.0" y="-10.0" type="curve" smooth="yes"/>
      <point x="308.5" y="-10.0"/>
      <point x="324.0" y="-7.5"/>
    </contour>
  </outline>
</glyph>
<glyph name="eight" format="2">
  <advance width="600.0"/>
  <unicode hex="0038"/>
  <outline>
    <contour>
      <point x="307.5" y="720.5" type="curve" smooth="yes"/>
      <point x="165.5" y="720.5"/>
      <point x="71.0" y="629.5"/>
      <point x="71.0" y="514.0" type="curve" smooth="yes"/>
      <point x="71.0" y="510.0" type="line" smooth="yes"/>
      <point x="71.0" y="434.5"/>
      <point x="111.0" y="355.0"/>
      <point x="261.5" y="299.5" type="curve" smooth="yes"/>
      <point x="350.5" y="266.5" type="line" smooth="yes"/>
      <point x="425.0" y="239.0"/>
      <point x="451.0" y="203.0"/>
      <point x="455.5" y="155.0" type="curve" smooth="yes"/>
      <point x="432.5" y="102.5"/>
      <point x="377.0" y="75.0"/>
      <point x="297.0" y="75.0" type="curve" smooth="yes"/>
      <point x="224.0" y="75.0"/>
      <point x="162.0" y="101.5"/>
      <point x="154.0" y="150.5" type="curve" smooth="yes"/>
      <point x="154.0" y="209.0"/>
      <point x="201.5" y="260.5"/>
      <point x="321.0" y="304.0" type="curve"/>
      <point x="220.0" y="332.0" type="line"/>
      <point x="220.0" y="289.0" type="line"/>
      <point x="249.5" y="314.5" type="line"/>
      <point x="118.0" y="304.5"/>
      <point x="62.0" y="235.0"/>
      <point x="62.0" y="158.0" type="curve" smooth="yes"/>
      <point x="62.0" y="152.0" type="line" smooth="yes"/>
      <point x="62.0" y="50.5"/>
      <point x="152.5" y="-20.0"/>
      <point x="294.0" y="-20.0" type="curve" smooth="yes"/>
      <point x="447.0" y="-20.0"/>
      <point x="542.0" y="56.5"/>
      <point x="542.0" y="161.0" type="curve" smooth="yes"/>
      <point x="542.0" y="166.5" type="line" smooth="yes"/>
      <point x="542.0" y="220.0"/>
      <point x="504.5" y="291.0"/>
      <point x="381.0" y="335.5" type="curve" smooth="yes"/>
      <point x="291.0" y="368.0" type="line" smooth="yes"/>
      <point x="197.0" y="402.0"/>
      <point x="163.0" y="446.5"/>
      <point x="163.0" y="505.0" type="curve"/>
      <point x="163.0" y="583.5"/>
      <point x="234.0" y="625.5"/>
      <point x="307.0" y="625.5" type="curve" smooth="yes"/>
      <point x="354.5" y="625.5"/>
      <point x="393.0" y="615.5"/>
      <point x="418.5" y="596.5" type="curve" smooth="yes"/>
      <point x="431.0" y="577.5"/>
      <point x="438.5" y="552.0"/>
      <point x="438.5" y="521.5" type="curve" smooth="yes"/>
      <point x="438.5" y="517.5" type="line" smooth="yes"/>
      <point x="438.5" y="441.5"/>
      <point x="391.5" y="386.5"/>
      <point x="280.0" y="344.5" type="curve"/>
      <point x="383.0" y="312.5" type="line"/>
      <point x="383.0" y="363.0" type="line"/>
      <point x="355.5" y="335.5" type="line"/>
      <point x="475.0" y="356.0"/>
      <point x="533.5" y="428.5"/>
      <point x="533.5" y="517.0" type="curve" smooth="yes"/>
      <point x="533.5" y="522.0" type="line" smooth="yes"/>
      <point x="533.5" y="637.5"/>
      <point x="435.5" y="720.5"/>
    </contour>
  </outline>
</glyph>
<glyph name="nine" format="2">
  <advance width="600.0"/>
  <unicode hex="0039"/>
  <outline>
    <contour>
      <point x="290.54545454545456" y="720.0" type="curve" smooth="yes"/>
      <point x="155.0909090909091" y="720.0"/>
      <point x="62.54545454545454" y="619.3636363636364"/>
      <point x="62.54545454545454" y="462.1818181818182" type="curve" smooth="yes"/>
      <point x="62.54545454545454" y="457.6363636363636" type="line" smooth="yes"/>
      <point x="62.54545454545454" y="317.54545454545456"/>
      <point x="144.27272727272728" y="245.90909090909088"/>
      <point x="262.45454545454544" y="245.90909090909088" type="curve" smooth="yes"/>
      <point x="334.54545454545456" y="245.90909090909088"/>
      <point x="410.0909090909091" y="273.27272727272725"/>
      <point x="450.54545454545456" y="337.0" type="curve"/>
      <point x="407.6363636363636" y="312.18181818181813" type="line"/>
      <point x="469.45454545454544" y="312.18181818181813" type="line"/>
      <point x="469.45454545454544" y="389.27272727272725" type="line"/>
      <point x="414.0" y="353.0909090909091"/>
      <point x="349.72727272727275" y="334.09090909090907"/>
      <point x="283.8181818181818" y="334.09090909090907" type="curve" smooth="yes"/>
      <point x="240.81818181818184" y="334.09090909090907"/>
      <point x="202.27272727272728" y="347.27272727272725"/>
      <point x="176.1818181818182" y="370.0909090909091" type="curve" smooth="yes"/>
      <point x="162.1818181818182" y="396.09090909090907"/>
      <point x="158.0" y="423.54545454545456"/>
      <point x="158.0" y="462.4545454545455" type="curve" smooth="yes"/>
      <point x="158.0" y="468.45454545454544" type="line" smooth="yes"/>
      <point x="158.0" y="564.8181818181819"/>
      <point x="208.72727272727275" y="630.2727272727273"/>
      <point x="301.27272727272725" y="630.2727272727273" type="curve" smooth="yes"/>
      <point x="336.1818181818182" y="630.2727272727273"/>
      <point x="363.0" y="624.0"/>
      <point x="391.0" y="607.0" type="curve" smooth="yes"/>
      <point x="422.6363636363636" y="569.8181818181819"/>
      <point x="439.6363636363636" y="494.8181818181818"/>
      <point x="439.6363636363636" y="389.7272727272727" type="curve" smooth="yes"/>
      <point x="439.6363636363636" y="381.6363636363636" type="line" smooth="yes"/>
      <point x="439.6363636363636" y="256.0909090909091"/>
      <point x="418.09090909090907" y="168.36363636363637"/>
      <point x="380.3636363636363" y="105.9090909090909" type="curve" smooth="yes"/>
      <point x="343.6363636363636" y="85.27272727272727"/>
      <point x="300.0" y="75.45454545454545"/>
      <point x="249.9090909090909" y="75.45454545454545" type="curve" smooth="yes"/>
      <point x="186.72727272727272" y="75.45454545454545"/>
      <point x="143.1818181818182" y="89.27272727272728"/>
      <point x="101.36363636363636" y="119.81818181818181" type="curve"/>
      <point x="95.36363636363636" y="119.81818181818181" type="line"/>
      <point x="92.36363636363636" y="108.63636363636363"/>
      <point x="90.9090909090909" y="98.0909090909091"/>
      <point x="90.9090909090909" y="82.18181818181819" type="curve" smooth="yes"/>
      <point x="90.9090909090909" y="46.54545454545455"/>
      <point x="100.72727272727272" y="28.636363636363637"/>
      <point x="115.81818181818181" y="13.545454545454543" type="curve" smooth="yes"/>
      <point x="131.45454545454544" y="-2.090909090909091"/>
      <point x="174.27272727272728" y="-20.0"/>
      <point x="250.54545454545456" y="-20.0" type="curve" smooth="yes"/>
      <point x="423.8181818181818" y="-20.0"/>
      <point x="536.9090909090909" y="83.36363636363636"/>
      <point x="536.9090909090909" y="371.27272727272725" type="curve" smooth="yes"/>
      <point x="536.9090909090909" y="379.3636363636363" type="line" smooth="yes"/>
      <point x="536.9090909090909" y="616.4545454545454"/>
      <point x="446.5454545454545" y="720.0"/>
    </contour>
  </outline>
</glyph>
<glyph name="colon" format="2">
  <advance width="325.0"/>
  <unicode hex="003A"/>
  <outline>
    <contour>
      <point x="244.5" y="381.0" type="curve"/>
      <point x="244.5" y="467.0" type="line" smooth="yes"/>
      <point x="244.5" y="524.5"/>
      <point x="201.0" y="542.0"/>
      <point x="152.5" y="542.0" type="curve"/>
      <point x="123.0" y="542.0"/>
      <point x="99.0" y="535.5"/>
      <point x="78.5" y="523.0" type="curve"/>
      <point x="78.5" y="437.0" type="line" smooth="yes"/>
      <point x="78.5" y="384.0"/>
      <point x="122.0" y="368.5"/>
      <point x="175.0" y="368.5" type="curve" smooth="yes"/>
      <point x="199.0" y="368.5"/>
      <point x="224.0" y="372.5"/>
    </contour>
    <contour>
      <point x="244.5" y="4.5" type="curve"/>
      <point x="244.5" y="90.5" type="line" smooth="yes"/>
      <point x="244.5" y="148.0"/>
      <point x="201.0" y="165.5"/>
      <point x="152.5" y="165.5" type="curve"/>
      <point x="123.0" y="165.5"/>
      <point x="99.0" y="159.0"/>
      <point x="78.5" y="146.5" type="curve"/>
      <point x="78.5" y="60.5" type="line" smooth="yes"/>
      <point x="78.5" y="7.5"/>
      <point x="122.0" y="-8.0"/>
      <point x="175.0" y="-8.0" type="curve" smooth="yes"/>
      <point x="199.0" y="-8.0"/>
      <point x="224.0" y="-4.0"/>
    </contour>
  </outline>
</glyph>
<glyph name="semicolon" format="2">
  <advance width="373.2727272727273"/>
  <unicode hex="003B"/>
  <outline>
    <contour>
      <point x="270.45454545454544" y="382.7272727272727" type="curve"/>
      <point x="270.45454545454544" y="466.45454545454544" type="line" smooth="yes"/>
      <point x="270.45454545454544" y="521.8181818181818"/>
      <point x="228.8181818181818" y="539.6363636363636"/>
      <point x="180.18181818181816" y="539.6363636363636" type="curve"/>
      <point x="151.36363636363635" y="539.6363636363636"/>
      <point x="128.0909090909091" y="533.2727272727273"/>
      <point x="108.27272727272728" y="521.0909090909091" type="curve"/>
      <point x="108.27272727272728" y="437.3636363636363" type="line" smooth="yes"/>
      <point x="108.27272727272728" y="386.0909090909091"/>
      <point x="149.9090909090909" y="370.09090909090907"/>
      <point x="202.63636363636363" y="370.09090909090907" type="curve" smooth="yes"/>
      <point x="226.45454545454547" y="370.09090909090907"/>
      <point x="250.63636363636363" y="374.1818181818182"/>
    </contour>
    <contour>
      <point x="136.63636363636365" y="-194.54545454545456" type="curve" smooth="yes"/>
      <point x="152.63636363636365" y="-194.54545454545456"/>
      <point x="160.8181818181818" y="-191.1818181818182"/>
      <point x="169.0909090909091" y="-181.9090909090909" type="curve"/>
      <point x="222.72727272727272" y="-123.54545454545455"/>
      <point x="272.0" y="-1.9090909090909065"/>
      <point x="272.0" y="119.54545454545455" type="curve"/>
      <point x="272.0" y="165.0"/>
      <point x="244.0909090909091" y="180.72727272727272"/>
      <point x="192.1818181818182" y="180.72727272727272" type="curve" smooth="yes"/>
      <point x="173.72727272727275" y="180.72727272727272"/>
      <point x="159.45454545454547" y="178.72727272727272"/>
      <point x="139.72727272727272" y="172.72727272727272" type="curve"/>
      <point x="139.72727272727272" y="16.090909090909093"/>
      <point x="119.54545454545453" y="-72.72727272727272"/>
      <point x="65.45454545454545" y="-169.8181818181818" type="curve"/>
      <point x="86.63636363636364" y="-187.9090909090909"/>
      <point x="106.09090909090908" y="-194.54545454545456"/>
    </contour>
  </outline>
</glyph>
<glyph name="less" format="2">
  <advance width="600.0"/>
  <unicode hex="003C"/>
  <outline>
    <contour>
      <point x="69.0" y="327.0" type="curve"/>
      <point x="69.0" y="316.5"/>
      <point x="69.0" y="305.5"/>
      <point x="69.0" y="295.0" type="curve" smooth="yes"/>
      <point x="69.0" y="272.0"/>
      <point x="75.5" y="258.5"/>
      <point x="107.5" y="230.0" type="curve" smooth="yes"/>
      <point x="209.5" y="140.5"/>
      <point x="313.5" y="67.0"/>
      <point x="520.5" y="18.5" type="curve"/>
      <point x="524.0" y="29.0"/>
      <point x="525.5" y="40.0"/>
      <point x="525.5" y="55.5" type="curve" smooth="yes"/>
      <point x="525.5" y="91.5"/>
      <point x="516.5" y="119.0"/>
      <point x="496.5" y="125.5" type="curve" smooth="yes"/>
      <point x="342.5" y="171.0"/>
      <point x="271.5" y="212.0"/>
      <point x="152.0" y="317.0" type="curve"/>
      <point x="175.5" y="267.0" type="line"/>
      <point x="175.5" y="332.0" type="line"/>
      <point x="153.5" y="281.0" type="line"/>
      <point x="268.0" y="393.0"/>
      <point x="348.0" y="445.0"/>
      <point x="527.5" y="486.5" type="curve"/>
      <point x="527.5" y="493.0"/>
      <point x="527.5" y="498.5"/>
      <point x="527.5" y="505.0" type="curve" smooth="yes"/>
      <point x="527.5" y="537.5"/>
      <point x="509.0" y="575.0"/>
      <point x="484.0" y="575.0" type="curve" smooth="yes"/>
      <point x="471.0" y="575.0"/>
      <point x="440.0" y="567.5"/>
      <point x="396.5" y="551.0" type="curve" smooth="yes"/>
      <point x="256.5" y="497.5"/>
      <point x="144.5" y="417.0"/>
    </contour>
  </outline>
</glyph>
<glyph name="equal" format="2">
  <advance width="600.0"/>
  <unicode hex="003D"/>
  <outline>
    <contour>
      <point x="55.0" y="475.0" type="line"/>
      <point x="55.0" y="470.5"/>
      <point x="55.0" y="465.5"/>
      <point x="55.0" y="460.5" type="curve" smooth="yes"/>
      <point x="55.0" y="392.5"/>
      <point x="69.5" y="375.0"/>
      <point x="125.0" y="375.0" type="curve" smooth="yes"/>
      <point x="546.5" y="375.0" type="line"/>
      <point x="549.0" y="388.5"/>
      <point x="551.0" y="403.5"/>
      <point x="551.0" y="416.5" type="curve" smooth="yes"/>
      <point x="551.0" y="459.0"/>
      <point x="534.0" y="475.0"/>
      <point x="493.0" y="475.0" type="curve" smooth="yes"/>
    </contour>
    <contour>
      <point x="59.5" y="225.0" type="line"/>
      <point x="57.0" y="212.0"/>
      <point x="55.0" y="197.0"/>
      <point x="55.0" y="183.5" type="curve" smooth="yes"/>
      <point x="55.0" y="141.0"/>
      <point x="72.0" y="125.0"/>
      <point x="113.0" y="125.0" type="curve" smooth="yes"/>
      <point x="551.0" y="125.0" type="line"/>
      <point x="551.0" y="129.5"/>
      <point x="551.0" y="134.5"/>
      <point x="551.0" y="139.5" type="curve" smooth="yes"/>
      <point x="551.0" y="207.5"/>
      <point x="536.5" y="225.0"/>
      <point x="481.0" y="225.0" type="curve" smooth="yes"/>
    </contour>
  </outline>
</glyph>
<glyph name="greater" format="2">
  <advance width="600.0"/>
  <unicode hex="003E"/>
  <outline>
    <contour>
      <point x="530.909090909091" y="275.9090909090909" type="curve"/>
      <point x="530.909090909091" y="286.5454545454545"/>
      <point x="530.909090909091" y="297.7272727272727"/>
      <point x="530.909090909091" y="308.3636363636364" type="curve" smooth="yes"/>
      <point x="530.909090909091" y="330.90909090909093"/>
      <point x="524.1818181818182" y="344.1818181818182"/>
      <point x="493.1818181818182" y="371.54545454545456" type="curve" smooth="yes"/>
      <point x="390.3636363636364" y="461.1818181818182"/>
      <point x="288.0" y="533.9090909090909"/>
      <point x="79.63636363636364" y="582.5454545454545" type="curve"/>
      <point x="76.27272727272727" y="572.4545454545455"/>
      <point x="74.81818181818181" y="561.909090909091"/>
      <point x="74.81818181818181" y="547.1818181818181" type="curve" smooth="yes"/>
      <point x="74.81818181818181" y="512.9090909090909"/>
      <point x="83.54545454545455" y="486.54545454545456"/>
      <point x="102.9090909090909" y="480.27272727272725" type="curve"/>
      <point x="260.7272727272727" y="433.90909090909093"/>
      <point x="331.1818181818182" y="392.90909090909093"/>
      <point x="453.45454545454544" y="285.6363636363636" type="curve"/>
      <point x="429.9090909090909" y="335.6363636363636" type="line"/>
      <point x="429.9090909090909" y="270.7272727272727" type="line"/>
      <point x="452.0" y="321.6363636363637" type="line"/>
      <point x="335.0" y="208.0909090909091"/>
      <point x="255.4545454545454" y="156.45454545454547"/>
      <point x="73.0" y="114.0" type="curve"/>
      <point x="73.0" y="107.63636363636364"/>
      <point x="73.0" y="102.27272727272728"/>
      <point x="73.0" y="95.9090909090909" type="curve" smooth="yes"/>
      <point x="73.0" y="64.36363636363636"/>
      <point x="90.81818181818181" y="29.272727272727273"/>
      <point x="114.54545454545455" y="29.272727272727273" type="curve" smooth="yes"/>
      <point x="127.54545454545455" y="29.272727272727273"/>
      <point x="158.8181818181818" y="36.81818181818182"/>
      <point x="202.63636363636365" y="53.27272727272727" type="curve" smooth="yes"/>
      <point x="343.7272727272727" y="106.72727272727272"/>
      <point x="454.27272727272725" y="185.54545454545453"/>
    </contour>
  </outline>
</glyph>
<glyph name="question" format="2">
  <advance width="600.0"/>
  <unicode hex="003F"/>
  <outline>
    <contour>
      <point x="362.7272727272727" y="2.636363636363635" type="curve"/>
      <point x="362.7272727272727" y="90.00000000000001" type="line" smooth="yes"/>
      <point x="362.7272727272727" y="137.1818181818182"/>
      <point x="318.8181818181818" y="152.72727272727275"/>
      <point x="263.8181818181818" y="152.72727272727275" type="curve" smooth="yes"/>
      <point x="241.36363636363635" y="152.72727272727275"/>
      <point x="219.0" y="149.0909090909091"/>
      <point x="200.54545454545453" y="142.36363636363637" type="curve"/>
      <point x="200.54545454545453" y="55.0" type="line" smooth="yes"/>
      <point x="200.54545454545453" y="7.818181818181817"/>
      <point x="244.45454545454544" y="-7.727272727272728"/>
      <point x="299.45454545454544" y="-7.727272727272728" type="curve" smooth="yes"/>
      <point x="321.90909090909093" y="-7.727272727272728"/>
      <point x="344.27272727272725" y="-4.090909090909092"/>
    </contour>
    <contour>
      <point x="305.0" y="720.0" type="curve" smooth="yes"/>
      <point x="229.36363636363635" y="720.0"/>
      <point x="166.18181818181816" y="697.8181818181819"/>
      <point x="130.99999999999997" y="663.1818181818181" type="curve" smooth="yes"/>
      <point x="104.0" y="636.7272727272727"/>
      <point x="87.54545454545455" y="601.2727272727273"/>
      <point x="87.54545454545455" y="563.5454545454545" type="curve" smooth="yes"/>
      <point x="87.54545454545455" y="542.5454545454545"/>
      <point x="93.81818181818181" y="527.8181818181819"/>
      <point x="105.63636363636363" y="514.3636363636364" type="curve"/>
      <point x="111.63636363636363" y="514.3636363636364" type="line"/>
      <point x="153.36363636363637" y="581.7272727272727"/>
      <point x="213.36363636363637" y="624.5454545454545"/>
      <point x="308.1818181818182" y="624.5454545454545" type="curve" smooth="yes"/>
      <point x="352.27272727272725" y="624.5454545454545"/>
      <point x="387.8181818181818" y="615.5454545454546"/>
      <point x="411.90909090909093" y="600.1818181818181" type="curve"/>
      <point x="418.9090909090909" y="586.5454545454546"/>
      <point x="423.27272727272725" y="570.8181818181819"/>
      <point x="423.27272727272725" y="550.2727272727273" type="curve" smooth="yes"/>
      <point x="423.27272727272725" y="507.09090909090907"/>
      <point x="408.54545454545456" y="471.8181818181818"/>
      <point x="348.7272727272727" y="429.0" type="curve" smooth="yes"/>
      <point x="326.27272727272725" y="413.0" type="line" smooth="yes"/>
      <point x="263.5454545454545" y="368.4545454545455"/>
      <point x="234.8181818181818" y="331.4545454545455"/>
      <point x="234.8181818181818" y="294.5454545454545" type="curve" smooth="yes"/>
      <point x="234.8181818181818" y="290.0" type="line" smooth="yes"/>
      <point x="234.8181818181818" y="267.54545454545456"/>
      <point x="260.45454545454544" y="243.8181818181818"/>
      <point x="314.72727272727275" y="243.8181818181818" type="curve" smooth="yes"/>
      <point x="321.6363636363636" y="243.8181818181818" type="line"/>
      <point x="321.6363636363636" y="250.63636363636363" type="line" smooth="yes"/>
      <point x="321.6363636363636" y="285.8181818181818"/>
      <point x="334.2727272727273" y="308.8181818181818"/>
      <point x="388.8181818181818" y="347.7272727272727" type="curve" smooth="yes"/>
      <point x="413.9090909090909" y="364.6363636363636" type="line" smooth="yes"/>
      <point x="489.27272727272725" y="416.27272727272725"/>
      <point x="519.7272727272727" y="472.45454545454544"/>
      <point x="519.7272727272727" y="540.3636363636364" type="curve" smooth="yes"/>
      <point x="519.7272727272727" y="545.5454545454545" type="line" smooth="yes"/>
      <point x="519.7272727272727" y="632.8181818181819"/>
      <point x="457.1818181818182" y="720.0"/>
    </contour>
  </outline>
</glyph>
<glyph name="at" format="2">
  <advance width="1050.0"/>
  <unicode hex="0040"/>
  <outline>
    <contour>
      <point x="528.0" y="738.0909090909091" type="curve" smooth="yes"/>
      <point x="799.0909090909091" y="738.0909090909091"/>
      <point x="986.3636363636364" y="575.7272727272726"/>
      <point x="986.3636363636364" y="346.09090909090907" type="curve" smooth="yes"/>
      <point x="986.3636363636364" y="334.0909090909091" type="line" smooth="yes"/>
      <point x="986.3636363636364" y="166.0909090909091"/>
      <point x="865.8403770142727" y="38.0"/>
      <point x="727.3636363636364" y="38.0" type="curve" smooth="yes"/>
      <point x="723.3636363636364" y="38.0" type="line" smooth="yes"/>
      <point x="649.7272727272727" y="38.0"/>
      <point x="611.0909090909091" y="107.72727272727273"/>
      <point x="612.0909090909091" y="197.36363636363637" type="curve" smooth="yes"/>
      <point x="613.0909090909091" y="264.45454545454544"/>
      <point x="640.1818181818181" y="352.72727272727275"/>
      <point x="652.3636363636364" y="414.90909090909093" type="curve" smooth="yes"/>
      <point x="658.7272727272727" y="447.0"/>
      <point x="662.7272727272726" y="479.0"/>
      <point x="662.7272727272727" y="510.0" type="curve"/>
      <point x="673.7272727272727" y="510.0" type="line" smooth="yes"/>
      <point x="725.9090909090909" y="510.0"/>
      <point x="749.8181818181818" y="481.0"/>
      <point x="745.1818181818181" y="423.0" type="curve" smooth="yes"/>
      <point x="740.6363636363636" y="351.45454545454544"/>
      <point x="709.3636363636364" y="263.54545454545456"/>
      <point x="704.8181818181818" y="202.36363636363637" type="curve" smooth="yes"/>
      <point x="702.090909090909" y="140.63636363636363"/>
      <point x="708.0" y="112.1818181818182"/>
      <point x="724.7272727272727" y="90.81818181818184" type="curve"/>
      <point x="729.6363636363637" y="90.81818181818184" type="line"/>
      <point x="834.4167679255454" y="119.9098286658182"/>
      <point x="899.0909090909091" y="215.1818181818182"/>
      <point x="899.0909090909091" y="340.0909090909091" type="curve" smooth="yes"/>
      <point x="899.0909090909091" y="353.09090909090907" type="line" smooth="yes"/>
      <point x="899.0909090909091" y="449.6363636363636"/>
      <point x="861.7272727272726" y="535.7272727272726"/>
      <point x="798.5454545454545" y="602.7272727272726" type="curve" smooth="yes"/>
      <point x="708.4545454545455" y="647.8181818181819"/>
      <point x="632.0" y="662.4545454545454"/>
      <point x="547.0" y="662.4545454545454" type="curve" smooth="yes"/>
      <point x="311.4545454545455" y="662.4545454545454"/>
      <point x="150.9090909090909" y="495.54545454545456"/>
      <point x="150.9090909090909" y="248.9090909090909" type="curve" smooth="yes"/>
      <point x="150.9090909090909" y="238.9090909090909" type="line" smooth="yes"/>
      <point x="150.9090909090909" y="133.18181818181822"/>
      <point x="186.72727272727272" y="36.72727272727273"/>
      <point x="250.0909090909091" y="-35.90909090909091" type="curve" smooth="yes"/>
      <point x="336.4564514273182" y="-81.39574411372726"/>
      <point x="416.5138339920909" y="-102.18181818181819"/>
      <point x="533.5454545454546" y="-102.18181818181819" type="curve"/>
      <point x="634.3636363636364" y="-102.18181818181819"/>
      <point x="743.8181818181819" y="-78.09090909090908"/>
      <point x="813.0" y="-29.818181818181813" type="curve"/>
      <point x="817.0" y="-29.818181818181813" type="line"/>
      <point x="817.0" y="-34.81818181818181" type="line" smooth="yes"/>
      <point x="817.0" y="-61.090909090909086"/>
      <point x="805.8181818181818" y="-85.0"/>
      <point x="782.7272727272727" y="-108.0909090909091" type="curve" smooth="yes"/>
      <point x="739.909090909091" y="-150.45454545454547"/>
      <point x="658.1818181818181" y="-181.0"/>
      <point x="545.0" y="-181.0" type="curve"/>
      <point x="255.53645364536365" y="-181.0"/>
      <point x="63.63636363636363" y="-10.81818181818182"/>
      <point x="63.63636363636363" y="249.9090909090909" type="curve" smooth="yes"/>
      <point x="63.63636363636363" y="262.9090909090909" type="line" smooth="yes"/>
      <point x="63.63636363636363" y="545.8181818181819"/>
      <point x="253.1818181818182" y="738.0909090909091"/>
    </contour>
    <contour>
      <point x="427.09090909090907" y="33.54545454545455" type="curve"/>
      <point x="354.4545454545455" y="33.54545454545455"/>
      <point x="307.3636363636364" y="104.18181818181819"/>
      <point x="306.45454545454544" y="218.0" type="curve" smooth="yes"/>
      <point x="306.45454545454544" y="226.0" type="line" smooth="yes"/>
      <point x="306.45454545454544" y="389.45454545454544"/>
      <point x="400.90909090909093" y="519.0"/>
      <point x="530.5454545454545" y="519.0" type="curve"/>
      <point x="585.9090909090909" y="519.0"/>
      <point x="629.0909090909091" y="485.3636363636364"/>
      <point x="651.7272727272726" y="439.5454545454545" type="curve"/>
      <point x="672.6363636363636" y="439.5454545454545" type="line"/>
      <point x="659.2727272727273" y="362.09090909090907" type="line"/>
      <point x="629.3636363636364" y="407.1818181818182"/>
      <point x="595.2727272727273" y="436.09090909090907"/>
      <point x="547.9090909090909" y="436.09090909090907" type="curve" smooth="yes"/>
      <point x="449.9090909090909" y="436.09090909090907"/>
      <point x="396.0" y="328.8181818181818"/>
      <point x="396.0" y="223.99999999999997" type="curve" smooth="yes"/>
      <point x="396.0" y="215.0" type="line" smooth="yes"/>
      <point x="396.0" y="164.43636363634545"/>
      <point x="402.3636363636364" y="142.8181818181818"/>
      <point x="414.45454545454544" y="123.36363636363637" type="curve" smooth="yes"/>
      <point x="518.3636363636364" y="105.36363636363637"/>
      <point x="588.8181818181818" y="169.54545454545453"/>
      <point x="649.0" y="286.4545454545455" type="curve"/>
      <point x="631.9090909090909" y="160.8181818181818" type="line"/>
      <point x="611.1818181818181" y="160.8181818181818" type="line"/>
      <point x="562.2727272727273" y="76.0909090909091"/>
      <point x="496.90909090909093" y="33.54545454545455"/>
    </contour>
  </outline>
</glyph>
<glyph name="A" format="2">
  <advance width="650.0"/>
  <unicode hex="0041"/>
  <outline>
    <contour>
      <point x="37.5" y="280.0" type="line"/>
      <point x="37.5" y="262.5" type="line" smooth="yes"/>
      <point x="37.5" y="214.0"/>
      <point x="45.5" y="185.0"/>
      <point x="79.5" y="185.0" type="curve"/>
      <point x="491.0" y="185.0" type="line"/>
      <point x="491.0" y="270.0" type="line"/>
      <point x="453.5" y="261.0" type="line"/>
      <point x="434.5" y="274.5"/>
      <point x="412.0" y="280.0"/>
      <point x="374.5" y="280.0" type="curve"/>
    </contour>
    <contour>
      <point x="178.5" y="-3.5" type="curve"/>
      <point x="187.5" y="279.0"/>
      <point x="251.5" y="451.0"/>
      <point x="348.0" y="634.0" type="curve"/>
      <point x="303.5" y="606.5" type="line"/>
      <point x="369.5" y="606.5" type="line"/>
      <point x="326.0" y="634.0" type="line"/>
      <point x="420.5" y="461.0"/>
      <point x="472.0" y="267.0"/>
      <point x="492.0" y="37.0" type="curve"/>
      <point x="494.5" y="5.5"/>
      <point x="518.0" y="-10.0"/>
      <point x="559.0" y="-10.0" type="curve" smooth="yes"/>
      <point x="574.0" y="-10.0"/>
      <point x="588.0" y="-8.0"/>
      <point x="600.0" y="-3.5" type="curve"/>
      <point x="599.0" y="35.0"/>
      <point x="596.0" y="79.0"/>
      <point x="591.5" y="119.0" type="curve" smooth="yes"/>
      <point x="569.5" y="310.5"/>
      <point x="511.5" y="487.0"/>
      <point x="459.0" y="598.0" type="curve" smooth="yes"/>
      <point x="417.0" y="689.5"/>
      <point x="387.5" y="710.0"/>
      <point x="331.0" y="710.0" type="curve"/>
      <point x="310.0" y="710.0"/>
      <point x="294.5" y="708.0"/>
      <point x="282.0" y="704.5" type="curve"/>
      <point x="161.5" y="532.0"/>
      <point x="81.0" y="299.5"/>
      <point x="71.0" y="35.0" type="curve"/>
      <point x="70.5" y="1.5"/>
      <point x="98.5" y="-10.0"/>
      <point x="132.5" y="-10.0" type="curve"/>
      <point x="148.5" y="-10.0"/>
      <point x="163.5" y="-7.5"/>
    </contour>
  </outline>
</glyph>
<glyph name="C" format="2">
  <advance width="600.0"/>
  <unicode hex="0043"/>
  <outline>
    <contour>
      <point x="331.09090909090907" y="-20.0" type="curve" smooth="yes"/>
      <point x="412.0" y="-20.0"/>
      <point x="466.0909090909091" y="-0.09090909090909122"/>
      <point x="503.8181818181818" y="37.63636363636363" type="curve"/>
      <point x="524.6363636363636" y="58.45454545454545"/>
      <point x="539.0909090909091" y="86.0"/>
      <point x="539.0909090909091" y="128.72727272727275" type="curve"/>
      <point x="539.0909090909091" y="141.9090909090909"/>
      <point x="537.0909090909091" y="158.54545454545456"/>
      <point x="533.1818181818182" y="172.18181818181822" type="curve"/>
      <point x="527.1818181818181" y="172.18181818181822" type="line"/>
      <point x="481.6363636363636" y="107.63636363636364"/>
      <point x="419.81818181818187" y="75.45454545454547"/>
      <point x="337.0" y="75.45454545454547" type="curve" smooth="yes"/>
      <point x="260.0" y="75.45454545454547"/>
      <point x="213.45454545454544" y="111.9090909090909"/>
      <point x="180.0909090909091" y="163.8181818181818" type="curve" smooth="yes"/>
      <point x="174.54545454545453" y="194.1818181818182"/>
      <point x="172.54545454545456" y="221.8181818181818"/>
      <point x="172.54545454545456" y="260.6363636363636" type="curve" smooth="yes"/>
      <point x="172.54545454545456" y="281.3636363636363" type="line" smooth="yes"/>
      <point x="172.54545454545456" y="481.45454545454544"/>
      <point x="261.4545454545455" y="630.0"/>
      <point x="372.2727272727273" y="630.0" type="curve"/>
      <point x="393.8181818181818" y="630.0"/>
      <point x="415.8181818181818" y="625.3636363636364"/>
      <point x="443.27272727272725" y="606.6363636363636" type="curve"/>
      <point x="417.90909090909093" y="647.7272727272726" type="line"/>
      <point x="430.6363636363637" y="584.9090909090909"/>
      <point x="424.0909090909091" y="544.3636363636364"/>
      <point x="424.0909090909091" y="458.9090909090909" type="curve"/>
      <point x="424.0909090909091" y="426.18181818181813"/>
      <point x="446.0" y="411.99999999999994"/>
      <point x="486.81818181818187" y="411.99999999999994" type="curve" smooth="yes"/>
      <point x="502.45454545454544" y="411.99999999999994"/>
      <point x="515.0909090909091" y="414.3636363636363"/>
      <point x="524.0909090909091" y="418.18181818181813" type="curve"/>
      <point x="524.0909090909091" y="462.7272727272727"/>
      <point x="524.0909090909091" y="510.45454545454544"/>
      <point x="524.0909090909091" y="557.7272727272727" type="curve"/>
      <point x="524.0909090909091" y="606.909090909091"/>
      <point x="511.54545454545456" y="645.6363636363636"/>
      <point x="480.72727272727275" y="676.4545454545455" type="curve" smooth="yes"/>
      <point x="453.27272727272725" y="703.909090909091"/>
      <point x="418.90909090909093" y="720.0"/>
      <point x="369.54545454545456" y="720.0" type="curve"/>
      <point x="192.36363636363637" y="720.0"/>
      <point x="71.81818181818181" y="538.090909090909"/>
      <point x="71.81818181818181" y="286.90909090909093" type="curve" smooth="yes"/>
      <point x="71.81818181818181" y="260.3636363636364" type="line" smooth="yes"/>
      <point x="71.81818181818181" y="103.0"/>
      <point x="168.54545454545456" y="-20.0"/>
    </contour>
  </outline>
</glyph>
<glyph name="E" format="2">
  <advance width="550.0"/>
  <unicode hex="0045"/>
  <outline>
    <contour>
      <point x="43.18181818181818" y="700.0" type="line"/>
      <point x="41.81818181818182" y="689.7272727272727"/>
      <point x="40.90909090909091" y="678.9090909090909"/>
      <point x="40.90909090909091" y="669.5454545454545" type="curve" smooth="yes"/>
      <point x="40.90909090909091" y="637.0909090909091"/>
      <point x="50.27272727272727" y="604.5454545454545"/>
      <point x="74.36363636363636" y="604.5454545454545" type="curve" smooth="yes"/>
      <point x="499.72727272727275" y="604.5454545454545" type="line"/>
      <point x="503.0909090909091" y="613.6363636363636"/>
      <point x="504.54545454545456" y="625.0"/>
      <point x="504.54545454545456" y="639.4545454545455" type="curve" smooth="yes"/>
      <point x="504.54545454545456" y="661.6363636363636"/>
      <point x="495.8181818181818" y="700.0"/>
      <point x="459.1818181818182" y="700.0" type="curve" smooth="yes"/>
    </contour>
    <contour>
      <point x="151.8181818181818" y="372.72727272727275" type="line"/>
      <point x="151.8181818181818" y="286.3636363636364" type="line"/>
      <point x="436.8181818181818" y="286.3636363636364" type="line"/>
      <point x="437.72727272727275" y="292.5454545454545"/>
      <point x="438.1818181818182" y="298.81818181818187"/>
      <point x="438.1818181818182" y="307.27272727272725" type="curve" smooth="yes"/>
      <point x="438.1818181818182" y="341.0909090909091"/>
      <point x="423.3636363636364" y="372.72727272727275"/>
      <point x="388.8181818181818" y="372.72727272727275" type="curve"/>
    </contour>
    <contour>
      <point x="157.8181818181818" y="0.0" type="curve" smooth="yes"/>
      <point x="500.72727272727275" y="0.0" type="line"/>
      <point x="503.0909090909091" y="8.454545454545455"/>
      <point x="504.54545454545456" y="22.818181818181817"/>
      <point x="504.54545454545456" y="35.09090909090909" type="curve" smooth="yes"/>
      <point x="504.54545454545456" y="76.54545454545455"/>
      <point x="485.1818181818182" y="95.45454545454545"/>
      <point x="438.3636363636364" y="95.45454545454545" type="curve"/>
      <point x="188.63636363636365" y="95.45454545454545" type="line"/>
      <point x="188.63636363636365" y="235.63636363636365"/>
      <point x="188.63636363636365" y="389.3636363636364"/>
      <point x="188.63636363636365" y="529.0" type="curve" smooth="yes"/>
      <point x="188.63636363636365" y="562.8181818181818"/>
      <point x="181.45454545454547" y="583.7272727272727"/>
      <point x="163.72727272727272" y="599.0909090909091" type="curve"/>
      <point x="176.0" y="628.6363636363636" type="line"/>
      <point x="88.63636363636364" y="628.6363636363636" type="line"/>
      <point x="88.63636363636364" y="466.90909090909093"/>
      <point x="88.63636363636364" y="265.3636363636364"/>
      <point x="88.63636363636364" y="86.72727272727273" type="curve" smooth="yes"/>
      <point x="88.63636363636364" y="40.54545454545455"/>
      <point x="123.54545454545456" y="0.0"/>
    </contour>
  </outline>
</glyph>
<glyph name="F" format="2">
  <advance width="550.0"/>
  <unicode hex="0046"/>
  <outline>
    <contour>
      <point x="213.5" y="-1.5" type="curve"/>
      <point x="204.0" y="26.5"/>
      <point x="202.5" y="48.5"/>
      <point x="202.5" y="88.0" type="curve"/>
      <point x="202.5" y="235.0"/>
      <point x="202.5" y="381.5"/>
      <point x="202.5" y="522.0" type="curve"/>
      <point x="202.5" y="557.0"/>
      <point x="195.0" y="579.5"/>
      <point x="176.5" y="594.5" type="curve"/>
      <point x="188.0" y="624.5" type="line"/>
      <point x="97.5" y="624.5" type="line"/>
      <point x="97.5" y="439.0"/>
      <point x="97.5" y="257.0"/>
      <point x="97.5" y="71.5" type="curve" smooth="yes"/>
      <point x="97.5" y="17.5"/>
      <point x="125.0" y="-6.5"/>
      <point x="176.0" y="-6.5" type="curve" smooth="yes"/>
      <point x="191.0" y="-6.5"/>
      <point x="200.5" y="-5.0"/>
    </contour>
    <contour>
      <point x="40.0" y="700.0" type="line"/>
      <point x="38.5" y="689.0"/>
      <point x="37.5" y="677.5"/>
      <point x="37.5" y="667.5" type="curve"/>
      <point x="37.5" y="634.0"/>
      <point x="47.5" y="600.0"/>
      <point x="75.5" y="600.0" type="curve"/>
      <point x="505.0" y="600.0" type="line"/>
      <point x="508.5" y="609.5"/>
      <point x="510.0" y="622.0"/>
      <point x="510.0" y="635.5" type="curve" smooth="yes"/>
      <point x="510.0" y="658.0"/>
      <point x="501.0" y="700.0"/>
      <point x="463.5" y="700.0" type="curve"/>
    </contour>
    <contour>
      <point x="160.0" y="325.0" type="line"/>
      <point x="160.0" y="225.0" type="line"/>
      <point x="463.0" y="225.0" type="line"/>
      <point x="464.5" y="232.5"/>
      <point x="465.0" y="245.5"/>
      <point x="465.0" y="254.5" type="curve"/>
      <point x="465.0" y="292.0"/>
      <point x="444.5" y="325.0"/>
      <point x="404.0" y="325.0" type="curve"/>
    </contour>
  </outline>
</glyph>
<glyph name="G" format="2">
  <advance width="650.0"/>
  <unicode hex="0047"/>
  <outline>
    <contour>
      <point x="337.5" y="327.5" type="line"/>
      <point x="335.5" y="323.0"/>
      <point x="334.5" y="314.0"/>
      <point x="334.5" y="306.5" type="curve" smooth="yes"/>
      <point x="334.5" y="261.5"/>
      <point x="359.5" y="238.0"/>
      <point x="425.0" y="238.0" type="curve"/>
      <point x="607.5" y="238.0" type="line"/>
      <point x="607.5" y="247.5" type="line" smooth="yes"/>
      <point x="607.5" y="306.5"/>
      <point x="595.5" y="327.5"/>
      <point x="562.0" y="327.5" type="curve" smooth="yes"/>
    </contour>
    <contour>
      <point x="380.0" y="720.0" type="curve" smooth="yes"/>
      <point x="195.0" y="720.0"/>
      <point x="62.5" y="535.0"/>
      <point x="62.5" y="277.0" type="curve" smooth="yes"/>
      <point x="62.5" y="251.5" type="line" smooth="yes"/>
      <point x="62.5" y="93.0"/>
      <point x="164.0" y="-20.0"/>
      <point x="338.0" y="-20.0" type="curve" smooth="yes"/>
      <point x="405.0" y="-20.0"/>
      <point x="474.5" y="3.0"/>
      <point x="512.0" y="38.5" type="curve" smooth="yes"/>
      <point x="546.5" y="70.5"/>
      <point x="569.5" y="110.0"/>
      <point x="569.5" y="166.5" type="curve" smooth="yes"/>
      <point x="569.5" y="198.0"/>
      <point x="563.5" y="218.0"/>
      <point x="548.0" y="233.0" type="curve"/>
      <point x="562.0" y="262.0" type="line"/>
      <point x="485.5" y="262.0" type="line"/>
      <point x="490.0" y="245.5"/>
      <point x="492.0" y="227.5"/>
      <point x="492.0" y="204.5" type="curve"/>
      <point x="492.0" y="130.5"/>
      <point x="433.5" y="80.0"/>
      <point x="339.0" y="80.0" type="curve" smooth="yes"/>
      <point x="247.5" y="80.0"/>
      <point x="190.5" y="122.5"/>
      <point x="165.5" y="200.0" type="curve" smooth="yes"/>
      <point x="164.0" y="219.5"/>
      <point x="163.5" y="241.0"/>
      <point x="163.5" y="263.5" type="curve" smooth="yes"/>
      <point x="163.5" y="277.0" type="line" smooth="yes"/>
      <point x="163.5" y="474.0"/>
      <point x="257.0" y="625.5"/>
      <point x="390.5" y="625.5" type="curve" smooth="yes"/>
      <point x="420.5" y="625.5"/>
      <point x="447.0" y="621.5"/>
      <point x="469.0" y="604.5" type="curve"/>
      <point x="447.0" y="643.5" type="line"/>
      <point x="457.5" y="601.5"/>
      <point x="455.0" y="575.5"/>
      <point x="455.0" y="506.0" type="curve" smooth="yes"/>
      <point x="455.0" y="475.0"/>
      <point x="475.0" y="463.5"/>
      <point x="516.0" y="463.5" type="curve" smooth="yes"/>
      <point x="531.5" y="463.5"/>
      <point x="545.5" y="465.5"/>
      <point x="555.0" y="469.0" type="curve"/>
      <point x="555.0" y="498.5"/>
      <point x="555.0" y="529.5"/>
      <point x="555.0" y="560.5" type="curve" smooth="yes"/>
      <point x="555.0" y="612.5"/>
      <point x="539.5" y="646.0"/>
      <point x="508.0" y="677.0" type="curve" smooth="yes"/>
      <point x="477.0" y="707.0"/>
      <point x="435.0" y="720.0"/>
    </contour>
  </outline>
</glyph>
<glyph name="J" format="2">
  <advance width="500.0"/>
  <unicode hex="004A"/>
  <outline>
    <contour>
      <point x="211.5" y="80.0" type="curve" smooth="yes"/>
      <point x="146.0" y="80.0"/>
      <point x="106.0" y="94.5"/>
      <point x="54.5" y="127.0" type="curve"/>
      <point x="48.5" y="127.0" type="line"/>
      <point x="46.5" y="117.0"/>
      <point x="45.0" y="105.0"/>
      <point x="45.0" y="87.0" type="curve"/>
      <point x="45.0" y="54.5"/>
      <point x="51.5" y="33.0"/>
      <point x="66.0" y="18.0" type="curve"/>
      <point x="88.5" y="-6.0"/>
      <point x="129.0" y="-20.0"/>
      <point x="204.0" y="-20.0" type="curve"/>
      <point x="357.5" y="-20.0"/>
      <point x="435.0" y="96.5"/>
      <point x="435.0" y="210.5" type="curve"/>
      <point x="435.0" y="366.5"/>
      <point x="435.0" y="515.0"/>
      <point x="435.0" y="645.5" type="curve" smooth="yes"/>
      <point x="435.0" y="685.5"/>
      <point x="407.5" y="705.0"/>
      <point x="342.5" y="705.0" type="curve" smooth="yes"/>
      <point x="251.0" y="705.0"/>
      <point x="165.5" y="703.0"/>
      <point x="75.5" y="700.0" type="curve"/>
      <point x="73.5" y="690.5"/>
      <point x="72.5" y="677.5"/>
      <point x="72.5" y="662.5" type="curve" smooth="yes"/>
      <point x="72.5" y="618.0"/>
      <point x="90.0" y="595.0"/>
      <point x="119.5" y="595.0" type="curve"/>
      <point x="196.5" y="595.0"/>
      <point x="269.5" y="602.5"/>
      <point x="357.0" y="619.0" type="curve"/>
      <point x="310.0" y="625.5" type="line"/>
      <point x="351.0" y="599.5" type="line"/>
      <point x="330.5" y="641.5" type="line"/>
      <point x="330.5" y="491.5"/>
      <point x="330.5" y="359.5"/>
      <point x="330.5" y="226.0" type="curve"/>
      <point x="330.5" y="168.5"/>
      <point x="320.0" y="129.5"/>
      <point x="300.0" y="98.5" type="curve" smooth="yes"/>
      <point x="274.0" y="85.0"/>
      <point x="248.0" y="80.0"/>
    </contour>
  </outline>
</glyph>
<glyph name="L" format="2">
  <advance width="550.0"/>
  <unicode hex="004C"/>
  <outline>
    <contour>
      <point x="149.5" y="0.0" type="curve" smooth="yes"/>
      <point x="472.0" y="0.0" type="line"/>
      <point x="477.5" y="66.0"/>
      <point x="463.5" y="100.0"/>
      <point x="425.5" y="100.0" type="curve" smooth="yes"/>
      <point x="187.5" y="100.0" type="line"/>
      <point x="187.5" y="280.0"/>
      <point x="187.5" y="465.0"/>
      <point x="187.5" y="635.0" type="curve" smooth="yes"/>
      <point x="187.5" y="684.0"/>
      <point x="174.5" y="710.0"/>
      <point x="121.0" y="710.0" type="curve" smooth="yes"/>
      <point x="102.0" y="710.0"/>
      <point x="87.0" y="707.5"/>
      <point x="72.5" y="703.5" type="curve"/>
      <point x="80.0" y="669.0"/>
      <point x="82.5" y="641.0"/>
      <point x="82.5" y="597.0" type="curve"/>
      <point x="82.5" y="432.0"/>
      <point x="82.5" y="264.5"/>
      <point x="82.5" y="106.0" type="curve" smooth="yes"/>
      <point x="82.5" y="56.0"/>
      <point x="104.5" y="0.0"/>
    </contour>
    <contour>
      <point x="423.0" y="205.0" type="curve"/>
      <point x="423.0" y="100.0"/>
      <point x="397.0" y="41.0"/>
      <point x="396.5" y="-4.0" type="curve"/>
      <point x="396.0" y="-25.0"/>
      <point x="418.5" y="-36.0"/>
      <point x="469.0" y="-36.0" type="curve"/>
      <point x="496.5" y="25.0"/>
      <point x="517.0" y="95.5"/>
      <point x="517.0" y="165.5" type="curve" smooth="yes"/>
      <point x="517.0" y="197.5"/>
      <point x="498.0" y="208.0"/>
      <point x="457.0" y="208.0" type="curve" smooth="yes"/>
      <point x="444.0" y="208.0"/>
      <point x="432.0" y="207.0"/>
    </contour>
  </outline>
</glyph>
<glyph name="M" format="2">
  <advance width="800.0"/>
  <unicode hex="004D"/>
  <outline>
    <contour>
      <point x="164.0909090909091" y="-5.454545454545454" type="curve"/>
      <point x="161.8181818181818" y="32.63636363636364"/>
      <point x="160.45454545454544" y="67.27272727272728"/>
      <point x="160.45454545454544" y="118.9090909090909" type="curve"/>
      <point x="160.45454545454544" y="268.54545454545456"/>
      <point x="176.1818181818182" y="414.27272727272725"/>
      <point x="192.54545454545453" y="577.090909090909" type="curve"/>
      <point x="175.0909090909091" y="549.2727272727273" type="line"/>
      <point x="219.54545454545456" y="549.2727272727273" type="line"/>
      <point x="190.63636363636365" y="576.8181818181819" type="line"/>
      <point x="231.0909090909091" y="361.27272727272725"/>
      <point x="309.3636363636364" y="187.90909090909088"/>
      <point x="365.72727272727275" y="125.09090909090911" type="curve" smooth="yes"/>
      <point x="375.3636363636364" y="115.81818181818181"/>
      <point x="385.54545454545456" y="113.36363636363636"/>
      <point x="402.45454545454544" y="113.36363636363636" type="curve" smooth="yes"/>
      <point x="414.2727272727273" y="113.36363636363636"/>
      <point x="425.6363636363636" y="114.72727272727272"/>
      <point x="434.27272727272725" y="117.9090909090909" type="curve"/>
      <point x="487.4545454545455" y="189.36363636363637"/>
      <point x="576.0" y="407.1818181818182"/>
      <point x="601.0" y="582.3636363636364" type="curve"/>
      <point x="574.3636363636364" y="544.9090909090909" type="line"/>
      <point x="616.0909090909091" y="544.9090909090909" type="line"/>
      <point x="596.9090909090909" y="578.1818181818182" type="line"/>
      <point x="617.7272727272727" y="411.09090909090907"/>
      <point x="632.2727272727273" y="237.27272727272728"/>
      <point x="632.2727272727273" y="130.36363636363637" type="curve"/>
      <point x="632.2727272727273" y="101.54545454545455"/>
      <point x="631.3636363636364" y="70.63636363636364"/>
      <point x="631.3636363636364" y="53.727272727272734" type="curve" smooth="yes"/>
      <point x="631.3636363636364" y="6.636363636363637"/>
      <point x="647.6363636363636" y="-9.09090909090909"/>
      <point x="698.3636363636364" y="-9.09090909090909" type="curve"/>
      <point x="715.2727272727273" y="-9.09090909090909"/>
      <point x="731.8181818181819" y="-7.181818181818182"/>
      <point x="742.3636363636364" y="-3.818181818181818" type="curve"/>
      <point x="734.909090909091" y="28.90909090909091"/>
      <point x="729.5454545454546" y="66.63636363636364"/>
      <point x="726.7272727272727" y="141.8181818181818" type="curve"/>
      <point x="722.2727272727273" y="305.0909090909091"/>
      <point x="710.8181818181819" y="456.0909090909091"/>
      <point x="688.2727272727273" y="628.5454545454545" type="curve" smooth="yes"/>
      <point x="679.7272727272727" y="693.4545454545454"/>
      <point x="667.0909090909091" y="709.0909090909091"/>
      <point x="594.909090909091" y="709.0909090909091" type="curve" smooth="yes"/>
      <point x="569.2727272727273" y="709.0909090909091"/>
      <point x="555.2727272727274" y="707.1818181818181"/>
      <point x="542.7272727272727" y="704.3636363636364" type="curve"/>
      <point x="513.6363636363636" y="527.1818181818181"/>
      <point x="456.54545454545456" y="329.8181818181818"/>
      <point x="388.0" y="205.00000000000003" type="curve"/>
      <point x="429.54545454545456" y="232.81818181818184" type="line"/>
      <point x="372.5454545454545" y="232.81818181818184" type="line"/>
      <point x="411.54545454545456" y="202.90909090909093" type="line"/>
      <point x="351.09090909090907" y="318.72727272727275"/>
      <point x="286.90909090909093" y="500.8181818181818"/>
      <point x="262.8181818181818" y="653.2727272727274" type="curve" smooth="yes"/>
      <point x="256.54545454545456" y="692.9090909090909"/>
      <point x="230.1818181818182" y="709.0909090909091"/>
      <point x="156.8181818181818" y="709.0909090909091" type="curve" smooth="yes"/>
      <point x="129.27272727272725" y="709.0909090909091"/>
      <point x="114.09090909090911" y="707.1818181818181"/>
      <point x="100.9090909090909" y="704.3636363636364" type="curve"/>
      <point x="105.18181818181817" y="686.4545454545455"/>
      <point x="107.18181818181817" y="661.090909090909"/>
      <point x="102.81818181818181" y="618.9090909090909" type="curve"/>
      <point x="94.0909090909091" y="510.4545454545455"/>
      <point x="64.0909090909091" y="311.1818181818182"/>
      <point x="64.0909090909091" y="42.63636363636364" type="curve" smooth="yes"/>
      <point x="64.0909090909091" y="3.7272727272727284"/>
      <point x="93.0" y="-9.09090909090909"/>
      <point x="126.36363636363636" y="-9.09090909090909" type="curve"/>
      <point x="137.0909090909091" y="-9.09090909090909"/>
      <point x="157.45454545454544" y="-8.181818181818182"/>
    </contour>
  </outline>
</glyph>
<glyph name="O" format="2">
  <advance width="650.0"/>
  <unicode hex="004F"/>
  <outline>
    <contour>
      <point x="326.5" y="720.0" type="curve"/>
      <point x="151.0" y="720.0"/>
      <point x="62.5" y="578.5"/>
      <point x="62.5" y="352.5" type="curve" smooth="yes"/>
      <point x="62.5" y="315.5" type="line" smooth="yes"/>
      <point x="62.5" y="96.5"/>
      <point x="153.5" y="-20.0"/>
      <point x="325.5" y="-20.0" type="curve" smooth="yes"/>
      <point x="485.5" y="-20.0"/>
      <point x="587.5" y="105.0"/>
      <point x="587.5" y="344.5" type="curve" smooth="yes"/>
      <point x="587.5" y="380.5" type="line" smooth="yes"/>
      <point x="587.5" y="605.5"/>
      <point x="492.0" y="720.0"/>
    </contour>
    <contour>
      <point x="162.5" y="312.5" type="curve" smooth="yes"/>
      <point x="162.5" y="341.5" type="line" smooth="yes"/>
      <point x="162.5" y="536.0"/>
      <point x="219.5" y="620.5"/>
      <point x="332.0" y="620.5" type="curve" smooth="yes"/>
      <point x="366.0" y="620.5"/>
      <point x="392.0" y="616.0"/>
      <point x="422.0" y="603.5" type="curve" smooth="yes"/>
      <point x="471.5" y="554.0"/>
      <point x="487.5" y="489.0"/>
      <point x="487.5" y="373.0" type="curve" smooth="yes"/>
      <point x="487.5" y="356.5" type="line" smooth="yes"/>
      <point x="487.5" y="153.0"/>
      <point x="423.5" y="79.5"/>
      <point x="312.5" y="79.5" type="curve" smooth="yes"/>
      <point x="278.0" y="79.5"/>
      <point x="252.0" y="85.5"/>
      <point x="226.0" y="97.0" type="curve" smooth="yes"/>
      <point x="186.5" y="133.0"/>
      <point x="162.5" y="202.5"/>
    </contour>
  </outline>
</glyph>
<glyph name="P" format="2">
  <advance width="600.0"/>
  <unicode hex="0050"/>
  <outline>
    <contour>
      <point x="201.5" y="-1.0" type="curve"/>
      <point x="194.0" y="32.0"/>
      <point x="192.5" y="66.5"/>
      <point x="192.5" y="100.5" type="curve" smooth="yes"/>
      <point x="192.5" y="248.5"/>
      <point x="192.5" y="393.5"/>
      <point x="192.5" y="534.5" type="curve" smooth="yes"/>
      <point x="192.5" y="568.2443181818"/>
      <point x="186.0400379559" y="591.9762738039001"/>
      <point x="166.5" y="607.5" type="curve"/>
      <point x="178.5" y="637.5" type="line"/>
      <point x="87.5" y="637.5" type="line"/>
      <point x="87.5" y="450.5"/>
      <point x="87.5" y="266.0"/>
      <point x="87.5" y="79.0" type="curve"/>
      <point x="87.5" y="19.5"/>
      <point x="110.5" y="-5.5"/>
      <point x="166.5" y="-5.5" type="curve" smooth="yes"/>
      <point x="180.5" y="-5.5"/>
      <point x="189.5" y="-4.0"/>
    </contour>
    <contour>
      <point x="35.5" y="700.0" type="curve"/>
      <point x="33.5" y="690.0"/>
      <point x="32.5" y="679.5"/>
      <point x="32.5" y="666.5" type="curve"/>
      <point x="32.5" y="622.0"/>
      <point x="42.5" y="600.0"/>
      <point x="68.0" y="600.0" type="curve" smooth="yes"/>
      <point x="88.5" y="600.0"/>
      <point x="176.5" y="620.0"/>
      <point x="280.0" y="620.0" type="curve" smooth="yes"/>
      <point x="344.0" y="620.0"/>
      <point x="382.0" y="610.0"/>
      <point x="417.5" y="586.0" type="curve" smooth="yes"/>
      <point x="429.0" y="562.0"/>
      <point x="433.5" y="533.5"/>
      <point x="433.5" y="502.5" type="curve" smooth="yes"/>
      <point x="433.5" y="487.5" type="line" smooth="yes"/>
      <point x="433.5" y="348.0"/>
      <point x="347.0" y="267.5"/>
      <point x="243.5" y="267.5" type="curve" smooth="yes"/>
      <point x="215.0" y="267.5"/>
      <point x="195.5" y="270.5"/>
      <point x="174.0" y="277.5" type="curve"/>
      <point x="174.0" y="205.0" type="line"/>
      <point x="198.5" y="208.5" type="line"/>
      <point x="214.5" y="185.0"/>
      <point x="236.5" y="171.5"/>
      <point x="267.5" y="171.5" type="curve" smooth="yes"/>
      <point x="405.5" y="171.5"/>
      <point x="537.5" y="290.0"/>
      <point x="537.5" y="487.5" type="curve" smooth="yes"/>
      <point x="537.5" y="503.0" type="line" smooth="yes"/>
      <point x="537.5" y="630.0"/>
      <point x="451.0" y="720.0"/>
      <point x="285.0" y="720.0" type="curve"/>
      <point x="210.5" y="720.0"/>
      <point x="126.5" y="715.0"/>
    </contour>
  </outline>
</glyph>
<glyph name="Q" format="2">
  <advance width="650.0"/>
  <unicode hex="0051"/>
  <outline>
    <contour>
      <point x="465.1818181818182" y="79.0909090909091" type="curve"/>
      <point x="396.72727272727275" y="31.636363636363633" type="line"/>
      <point x="410.8181818181818" y="-9.454545454545453"/>
      <point x="428.54545454545456" y="-46.45454545454545"/>
      <point x="452.1818181818182" y="-87.0909090909091" type="curve" smooth="yes"/>
      <point x="487.18181818181813" y="-142.45454545454544"/>
      <point x="522.8181818181818" y="-168.54545454545456"/>
      <point x="566.2727272727274" y="-168.54545454545456" type="curve" smooth="yes"/>
      <point x="587.1818181818182" y="-168.54545454545456"/>
      <point x="602.0909090909091" y="-164.0909090909091"/>
      <point x="613.8181818181818" y="-152.36363636363637" type="curve" smooth="yes"/>
      <point x="626.4545454545454" y="-139.72727272727275"/>
      <point x="634.5454545454545" y="-117.36363636363637"/>
      <point x="634.5454545454545" y="-86.45454545454547" type="curve" smooth="yes"/>
      <point x="634.5454545454545" y="-70.45454545454544"/>
      <point x="633.090909090909" y="-56.36363636363637"/>
      <point x="629.7272727272726" y="-41.90909090909091" type="curve"/>
      <point x="623.7272727272727" y="-41.90909090909091" type="line"/>
      <point x="612.8181818181819" y="-51.090909090909086"/>
      <point x="602.4545454545455" y="-55.81818181818181"/>
      <point x="586.0" y="-55.81818181818181" type="curve" smooth="yes"/>
      <point x="560.2727272727273" y="-55.81818181818181"/>
      <point x="536.6363636363636" y="-44.0"/>
      <point x="514.4545454545454" y="-9.272727272727266" type="curve"/>
      <point x="495.6363636363636" y="19.272727272727273"/>
      <point x="479.0" y="48.727272727272734"/>
    </contour>
    <contour>
      <point x="326.8181818181818" y="720.0" type="curve" smooth="yes"/>
      <point x="150.9090909090909" y="720.0"/>
      <point x="63.63636363636363" y="577.6363636363636"/>
      <point x="63.63636363636363" y="353.45454545454544" type="curve" smooth="yes"/>
      <point x="63.63636363636363" y="314.54545454545456" type="line" smooth="yes"/>
      <point x="63.63636363636363" y="96.81818181818181"/>
      <point x="153.27272727272728" y="-20.0"/>
      <point x="325.0" y="-20.0" type="curve" smooth="yes"/>
      <point x="485.0" y="-20.0"/>
      <point x="586.3636363636364" y="105.18181818181819"/>
      <point x="586.3636363636364" y="343.2727272727273" type="curve" smooth="yes"/>
      <point x="586.3636363636364" y="381.09090909090907" type="line" smooth="yes"/>
      <point x="586.3636363636364" y="605.3636363636364"/>
      <point x="492.09090909090907" y="720.0"/>
    </contour>
    <contour>
      <point x="159.0909090909091" y="312.45454545454544" type="curve" smooth="yes"/>
      <point x="159.0909090909091" y="343.0909090909091" type="line" smooth="yes"/>
      <point x="159.0909090909091" y="538.7272727272727"/>
      <point x="217.63636363636363" y="625.0"/>
      <point x="332.09090909090907" y="625.0" type="curve" smooth="yes"/>
      <point x="366.0" y="625.0"/>
      <point x="392.45454545454544" y="620.4545454545454"/>
      <point x="422.2727272727273" y="608.0909090909091" type="curve"/>
      <point x="474.45454545454544" y="557.3636363636364"/>
      <point x="490.9090909090909" y="490.9090909090909"/>
      <point x="490.9090909090909" y="370.4545454545455" type="curve" smooth="yes"/>
      <point x="490.9090909090909" y="353.6363636363636" type="line" smooth="yes"/>
      <point x="490.9090909090909" y="150.9090909090909"/>
      <point x="425.3636363636363" y="75.0"/>
      <point x="312.72727272727275" y="75.0" type="curve" smooth="yes"/>
      <point x="278.0" y="75.0"/>
      <point x="251.54545454545453" y="81.09090909090911"/>
      <point x="225.45454545454547" y="92.72727272727273" type="curve" smooth="yes"/>
      <point x="184.0" y="129.36363636363637"/>
      <point x="159.0909090909091" y="200.90909090909093"/>
    </contour>
  </outline>
</glyph>
<glyph name="S" format="2">
  <advance width="600.0"/>
  <unicode hex="0053"/>
  <outline>
    <contour>
      <point x="373.0" y="720.0" type="curve" smooth="yes"/>
      <point x="225.5" y="720.0"/>
      <point x="82.5" y="572.0"/>
      <point x="82.5" y="442.5" type="curve" smooth="yes"/>
      <point x="82.5" y="431.0" type="line" smooth="yes"/>
      <point x="82.5" y="368.0"/>
      <point x="120.0" y="321.5"/>
      <point x="264.0" y="268.0" type="curve" smooth="yes"/>
      <point x="353.0" y="235.0" type="line" smooth="yes"/>
      <point x="414.0" y="212.5"/>
      <point x="445.5" y="184.5"/>
      <point x="450.0" y="147.5" type="curve" smooth="yes"/>
      <point x="450.0" y="143.5" type="line" smooth="yes"/>
      <point x="427.0" y="105.0"/>
      <point x="375.0" y="84.0"/>
      <point x="302.5" y="84.0" type="curve" smooth="yes"/>
      <point x="199.0" y="84.0"/>
      <point x="129.0" y="115.0"/>
      <point x="78.5" y="174.0" type="curve"/>
      <point x="72.5" y="174.0" type="line"/>
      <point x="68.5" y="161.0"/>
      <point x="66.0" y="145.0"/>
      <point x="66.0" y="124.5" type="curve" smooth="yes"/>
      <point x="66.0" y="88.0"/>
      <point x="76.0" y="61.5"/>
      <point x="93.0" y="44.5" type="curve"/>
      <point x="129.5" y="8.0"/>
      <point x="209.0" y="-16.0"/>
      <point x="302.5" y="-16.0" type="curve" smooth="yes"/>
      <point x="455.5" y="-16.0"/>
      <point x="539.5" y="49.0"/>
      <point x="539.5" y="150.5" type="curve" smooth="yes"/>
      <point x="539.5" y="161.0" type="line" smooth="yes"/>
      <point x="539.5" y="216.0"/>
      <point x="500.5" y="271.0"/>
      <point x="383.0" y="313.5" type="curve" smooth="yes"/>
      <point x="293.5" y="346.0" type="line" smooth="yes"/>
      <point x="202.0" y="379.0"/>
      <point x="183.5" y="402.5"/>
      <point x="182.5" y="435.5" type="curve" smooth="yes"/>
      <point x="182.5" y="441.0" type="line" smooth="yes"/>
      <point x="182.5" y="523.5"/>
      <point x="290.0" y="620.0"/>
      <point x="376.5" y="620.0" type="curve" smooth="yes"/>
      <point x="398.5" y="620.0"/>
      <point x="418.5" y="617.0"/>
      <point x="436.5" y="602.5" type="curve"/>
      <point x="414.5" y="642.5" type="line"/>
      <point x="420.5" y="598.5"/>
      <point x="415.0" y="579.5"/>
      <point x="415.0" y="497.5" type="curve" smooth="yes"/>
      <point x="415.0" y="456.5"/>
      <point x="438.5" y="439.5"/>
      <point x="481.0" y="439.5" type="curve"/>
      <point x="495.0" y="439.5"/>
      <point x="506.5" y="442.5"/>
      <point x="515.0" y="446.0" type="curve"/>
      <point x="515.0" y="485.5"/>
      <point x="515.0" y="527.0"/>
      <point x="515.0" y="568.5" type="curve"/>
      <point x="515.0" y="609.0"/>
      <point x="508.5" y="647.5"/>
      <point x="479.5" y="676.5" type="curve" smooth="yes"/>
      <point x="453.0" y="703.0"/>
      <point x="422.0" y="720.0"/>
    </contour>
  </outline>
</glyph>
<glyph name="T" format="2">
  <advance width="600.0"/>
  <unicode hex="0054"/>
  <outline>
    <contour>
      <point x="38.0" y="700.0" type="line"/>
      <point x="35.54545454545455" y="691.0"/>
      <point x="34.54545454545455" y="682.2727272727273"/>
      <point x="34.54545454545455" y="671.7272727272727" type="curve" smooth="yes"/>
      <point x="34.54545454545455" y="630.0"/>
      <point x="58.09090909090909" y="604.5454545454545"/>
      <point x="124.0909090909091" y="604.5454545454545" type="curve" smooth="yes"/>
      <point x="558.0" y="604.5454545454545" type="line"/>
      <point x="560.3636363636364" y="613.5454545454545"/>
      <point x="562.7272727272726" y="625.3636363636364"/>
      <point x="562.7272727272726" y="638.5454545454545" type="curve" smooth="yes"/>
      <point x="562.7272727272726" y="674.8181818181819"/>
      <point x="550.1818181818181" y="700.0"/>
      <point x="517.4545454545454" y="700.0" type="curve"/>
    </contour>
    <contour>
      <point x="358.8181818181818" y="-1.0909090909090908" type="curve"/>
      <point x="351.45454545454544" y="32.090909090909086"/>
      <point x="350.0" y="66.63636363636363"/>
      <point x="350.0" y="100.9090909090909" type="curve"/>
      <point x="350.0" y="247.63636363636365"/>
      <point x="350.0" y="391.1818181818182"/>
      <point x="350.0" y="528.0909090909091" type="curve"/>
      <point x="350.0" y="560.7272727272727"/>
      <point x="342.8181818181818" y="584.7272727272727"/>
      <point x="325.09090909090907" y="599.6363636363636" type="curve" smooth="yes"/>
      <point x="337.3636363636364" y="629.0909090909091" type="line"/>
      <point x="250.0" y="629.0909090909091" type="line"/>
      <point x="250.0" y="442.6363636363636"/>
      <point x="250.0" y="262.1818181818182"/>
      <point x="250.0" y="76.81818181818181" type="curve" smooth="yes"/>
      <point x="250.0" y="24.90909090909091"/>
      <point x="269.09090909090907" y="-5.454545454545455"/>
      <point x="324.3636363636364" y="-5.454545454545455" type="curve" smooth="yes"/>
      <point x="338.72727272727275" y="-5.454545454545455"/>
      <point x="347.3636363636364" y="-4.0"/>
    </contour>
  </outline>
</glyph>
<glyph name="U" format="2">
  <advance width="650.0"/>
  <unicode hex="0055"/>
  <outline>
    <contour>
      <point x="581.0" y="-3.5" type="curve"/>
      <point x="571.5" y="30.0"/>
      <point x="568.0" y="63.5"/>
      <point x="568.0" y="100.5" type="curve" smooth="yes"/>
      <point x="568.0" y="281.5"/>
      <point x="568.0" y="462.5"/>
      <point x="568.0" y="644.0" type="curve" smooth="yes"/>
      <point x="568.0" y="690.0"/>
      <point x="546.0" y="710.0"/>
      <point x="499.0" y="710.0" type="curve" smooth="yes"/>
      <point x="487.0" y="710.0"/>
      <point x="475.5" y="708.5"/>
      <point x="465.0" y="705.0" type="curve"/>
      <point x="465.0" y="550.0"/>
      <point x="465.0" y="394.0"/>
      <point x="465.0" y="113.5" type="curve" smooth="yes"/>
      <point x="465.0" y="16.5"/>
      <point x="487.0" y="-9.0"/>
      <point x="538.0" y="-9.0" type="curve" smooth="yes"/>
      <point x="554.0" y="-9.0"/>
      <point x="570.0" y="-7.0"/>
    </contour>
    <contour>
      <point x="237.5" y="-15.0" type="curve" smooth="yes"/>
      <point x="318.5" y="-15.0"/>
      <point x="401.0" y="20.0"/>
      <point x="459.0" y="138.5" type="curve"/>
      <point x="494.5" y="138.5" type="line"/>
      <point x="494.5" y="273.5" type="line"/>
      <point x="408.5" y="140.5"/>
      <point x="328.5" y="95.0"/>
      <point x="249.5" y="95.0" type="curve" smooth="yes"/>
      <point x="210.0" y="95.0"/>
      <point x="183.5" y="111.0"/>
      <point x="170.5" y="165.0" type="curve" smooth="yes"/>
      <point x="188.5" y="318.5"/>
      <point x="197.0" y="423.5"/>
      <point x="197.0" y="558.0" type="curve"/>
      <point x="197.0" y="670.5"/>
      <point x="164.5" y="710.0"/>
      <point x="109.0" y="710.0" type="curve"/>
      <point x="93.0" y="710.0"/>
      <point x="81.0" y="708.5"/>
      <point x="65.5" y="703.0" type="curve"/>
      <point x="76.0" y="669.5"/>
      <point x="80.5" y="629.5"/>
      <point x="80.5" y="580.0" type="curve" smooth="yes"/>
      <point x="80.5" y="444.0"/>
      <point x="80.5" y="303.5"/>
      <point x="80.5" y="167.5" type="curve" smooth="yes"/>
      <point x="80.5" y="55.5"/>
      <point x="150.0" y="-15.0"/>
    </contour>
  </outline>
</glyph>
<glyph name="V" format="2">
  <advance width="650.0"/>
  <unicode hex="0056"/>
  <outline>
    <contour>
      <point x="95.5" y="709.0" type="curve"/>
      <point x="82.0" y="709.0"/>
      <point x="69.0" y="707.0"/>
      <point x="56.5" y="703.5" type="curve"/>
      <point x="59.0" y="649.0"/>
      <point x="62.0" y="597.5"/>
      <point x="66.0" y="549.5" type="curve" smooth="yes"/>
      <point x="86.0" y="283.5"/>
      <point x="137.5" y="132.5"/>
      <point x="237.5" y="24.5" type="curve" smooth="yes"/>
      <point x="267.0" y="-6.0"/>
      <point x="292.5" y="-10.0"/>
      <point x="318.0" y="-10.0" type="curve"/>
      <point x="338.0" y="-10.0"/>
      <point x="356.0" y="-8.5"/>
      <point x="373.0" y="-4.5" type="curve"/>
      <point x="504.5" y="109.0"/>
      <point x="576.0" y="316.0"/>
      <point x="592.5" y="635.0" type="curve"/>
      <point x="595.5" y="688.0"/>
      <point x="572.5" y="709.0"/>
      <point x="529.5" y="709.0" type="curve"/>
      <point x="515.5" y="709.0"/>
      <point x="502.5" y="707.0"/>
      <point x="490.0" y="703.5" type="curve"/>
      <point x="478.0" y="367.5"/>
      <point x="440.5" y="228.0"/>
      <point x="322.5" y="74.5" type="curve"/>
      <point x="361.0" y="81.0" type="line"/>
      <point x="286.0" y="81.0" type="line"/>
      <point x="325.0" y="74.5" type="line"/>
      <point x="217.0" y="217.5"/>
      <point x="178.5" y="341.0"/>
      <point x="166.0" y="640.5" type="curve"/>
      <point x="163.0" y="696.0"/>
      <point x="136.5" y="709.0"/>
    </contour>
  </outline>
</glyph>
<glyph name="W" format="2">
  <advance width="900.0"/>
  <unicode hex="0057"/>
  <outline>
    <contour>
      <point x="46.5" y="703.0" type="curve"/>
      <point x="50.0" y="669.0"/>
      <point x="52.5" y="630.5"/>
      <point x="53.5" y="585.5" type="curve" smooth="yes"/>
      <point x="63.5" y="238.0"/>
      <point x="132.0" y="109.0"/>
      <point x="204.0" y="25.0" type="curve"/>
      <point x="225.5" y="-3.5"/>
      <point x="242.0" y="-9.0"/>
      <point x="266.0" y="-9.0" type="curve"/>
      <point x="283.5" y="-9.0"/>
      <point x="294.5" y="-8.0"/>
      <point x="302.5" y="-6.0" type="curve"/>
      <point x="366.5" y="80.0"/>
      <point x="430.0" y="240.5"/>
      <point x="452.0" y="415.5" type="curve"/>
      <point x="423.5" y="371.0" type="line"/>
      <point x="474.0" y="371.0" type="line"/>
      <point x="446.5" y="415.5" type="line"/>
      <point x="467.0" y="233.5"/>
      <point x="523.0" y="100.0"/>
      <point x="579.0" y="18.5" type="curve" smooth="yes"/>
      <point x="595.5" y="-4.0"/>
      <point x="606.5" y="-9.0"/>
      <point x="635.5" y="-9.0" type="curve" smooth="yes"/>
      <point x="651.5" y="-9.0"/>
      <point x="667.5" y="-8.0"/>
      <point x="674.5" y="-6.0" type="curve"/>
      <point x="788.5" y="115.5"/>
      <point x="843.5" y="351.5"/>
      <point x="851.5" y="635.5" type="curve"/>
      <point x="852.0" y="693.5"/>
      <point x="836.5" y="709.0"/>
      <point x="788.5" y="709.0" type="curve"/>
      <point x="774.5" y="709.0"/>
      <point x="760.5" y="707.0"/>
      <point x="748.0" y="703.5" type="curve"/>
      <point x="742.5" y="378.5"/>
      <point x="704.5" y="203.0"/>
      <point x="615.0" y="70.0" type="curve"/>
      <point x="650.5" y="94.5" type="line"/>
      <point x="589.0" y="94.5" type="line"/>
      <point x="636.0" y="70.0" type="line"/>
      <point x="576.0" y="182.5"/>
      <point x="529.5" y="341.0"/>
      <point x="506.5" y="565.5" type="curve" smooth="yes"/>
      <point x="503.0" y="603.5"/>
      <point x="480.5" y="617.5"/>
      <point x="433.5" y="617.5" type="curve"/>
      <point x="405.0" y="617.5" type="line"/>
      <point x="376.0" y="356.5"/>
      <point x="325.5" y="184.5"/>
      <point x="253.5" y="70.5" type="curve"/>
      <point x="285.5" y="94.5" type="line"/>
      <point x="239.0" y="94.5" type="line"/>
      <point x="275.0" y="70.0" type="line"/>
      <point x="209.0" y="183.5"/>
      <point x="171.5" y="307.5"/>
      <point x="159.0" y="637.5" type="curve" smooth="yes"/>
      <point x="158.5" y="692.5"/>
      <point x="143.5" y="709.0"/>
      <point x="90.5" y="709.0" type="curve" smooth="yes"/>
      <point x="75.5" y="709.0"/>
      <point x="61.5" y="706.5"/>
    </contour>
  </outline>
</glyph>
<glyph name="X" format="2">
  <advance width="650.0"/>
  <unicode hex="0058"/>
  <outline>
    <contour>
      <point x="575.9090909090909" y="-10.90909090909091" type="curve" smooth="yes"/>
      <point x="594.4545454545454" y="-10.90909090909091"/>
      <point x="612.1818181818181" y="-7.454545454545455"/>
      <point x="624.7272727272727" y="0.0" type="curve"/>
      <point x="542.8181818181819" y="77.0909090909091"/>
      <point x="437.27272727272725" y="211.9090909090909"/>
      <point x="356.00000000000006" y="328.1818181818182" type="curve"/>
      <point x="328.45454545454544" y="375.81818181818187" type="line"/>
      <point x="254.9090909090909" y="484.90909090909093"/>
      <point x="201.0" y="576.4545454545455"/>
      <point x="160.63636363636363" y="668.8181818181818" type="curve" smooth="yes"/>
      <point x="146.45454545454547" y="700.1818181818181"/>
      <point x="127.18181818181817" y="709.0909090909091"/>
      <point x="77.72727272727273" y="709.0909090909091" type="curve" smooth="yes"/>
      <point x="59.81818181818181" y="709.0909090909091"/>
      <point x="44.45454545454545" y="707.0909090909091"/>
      <point x="27.727272727272727" y="703.2727272727273" type="curve"/>
      <point x="80.72727272727272" y="582.9090909090909"/>
      <point x="161.9090909090909" y="448.18181818181813"/>
      <point x="250.8181818181818" y="316.3636363636364" type="curve"/>
      <point x="277.1818181818182" y="276.3636363636364" type="line"/>
      <point x="352.72727272727275" y="169.54545454545456"/>
      <point x="427.90909090909093" y="77.54545454545453"/>
      <point x="483.09090909090907" y="23.545454545454547" type="curve" smooth="yes"/>
      <point x="510.0909090909091" y="-5.09090909090909"/>
      <point x="532.2727272727273" y="-10.90909090909091"/>
    </contour>
    <contour>
      <point x="557.0" y="709.0909090909091" type="curve"/>
      <point x="535.7272727272727" y="709.0909090909091"/>
      <point x="523.4545454545454" y="707.0909090909091"/>
      <point x="507.45454545454544" y="703.2727272727273" type="curve"/>
      <point x="470.09090909090907" y="572.5454545454546"/>
      <point x="409.3636363636364" y="466.09090909090907"/>
      <point x="336.45454545454544" y="375.6363636363637" type="curve"/>
      <point x="297.6363636363636" y="375.6363636363637" type="line"/>
      <point x="356.45454545454544" y="273.0" type="line"/>
      <point x="465.3636363636364" y="376.4545454545455"/>
      <point x="558.5454545454545" y="514.2727272727273"/>
      <point x="601.4545454545454" y="645.1818181818181" type="curve"/>
      <point x="616.0" y="695.5454545454546"/>
      <point x="598.9090909090909" y="709.0909090909091"/>
    </contour>
    <contour>
      <point x="81.45454545454547" y="-9.09090909090909" type="curve" smooth="yes"/>
      <point x="104.45454545454545" y="-9.09090909090909"/>
      <point x="118.45454545454547" y="-7.181818181818182"/>
      <point x="132.63636363636363" y="-3.2727272727272725" type="curve"/>
      <point x="166.45454545454544" y="80.18181818181817"/>
      <point x="228.27272727272728" y="171.27272727272725"/>
      <point x="292.54545454545456" y="242.0909090909091" type="curve"/>
      <point x="319.4545454545455" y="242.0909090909091" type="line"/>
      <point x="263.6363636363636" y="331.27272727272725" type="line"/>
      <point x="163.72727272727272" y="239.45454545454544"/>
      <point x="78.0909090909091" y="138.63636363636363"/>
      <point x="33.909090909090914" y="48.09090909090909" type="curve"/>
      <point x="21.72727272727273" y="19.363636363636367"/>
      <point x="31.0" y="-9.09090909090909"/>
    </contour>
  </outline>
</glyph>
<glyph name="Y" format="2">
  <advance width="600.0"/>
  <unicode hex="0059"/>
  <outline>
    <contour>
      <point x="361.09090909090907" y="-3.818181818181818" type="curve"/>
      <point x="352.3636363636364" y="30.272727272727273"/>
      <point x="350.0" y="66.18181818181817"/>
      <point x="350.0" y="104.54545454545455" type="curve"/>
      <point x="350.0" y="156.36363636363635"/>
      <point x="350.0" y="209.36363636363637"/>
      <point x="350.0" y="261.1818181818182" type="curve"/>
      <point x="250.0" y="261.1818181818182" type="line"/>
      <point x="250.0" y="197.36363636363637"/>
      <point x="250.0" y="132.0"/>
      <point x="250.0" y="68.18181818181819" type="curve" smooth="yes"/>
      <point x="250.0" y="23.545454545454547"/>
      <point x="263.09090909090907" y="-9.09090909090909"/>
      <point x="320.90909090909093" y="-9.09090909090909" type="curve" smooth="yes"/>
      <point x="335.54545454545456" y="-9.09090909090909"/>
      <point x="346.0" y="-7.181818181818182"/>
    </contour>
    <contour>
      <point x="45.09090909090909" y="703.2727272727273" type="curve"/>
      <point x="80.72727272727273" y="455.54545454545456"/>
      <point x="133.45454545454544" y="343.54545454545456"/>
      <point x="242.72727272727272" y="234.27272727272725" type="curve"/>
      <point x="263.90909090909093" y="213.0909090909091"/>
      <point x="283.72727272727275" y="210.72727272727275"/>
      <point x="334.72727272727275" y="210.72727272727275" type="curve"/>
      <point x="449.6363636363636" y="318.8181818181818"/>
      <point x="528.4545454545454" y="460.0"/>
      <point x="551.3636363636364" y="661.6363636363636" type="curve"/>
      <point x="554.2727272727274" y="690.4545454545454"/>
      <point x="535.6363636363636" y="709.0909090909091"/>
      <point x="499.2727272727273" y="709.0909090909091" type="curve"/>
      <point x="482.72727272727275" y="709.0909090909091"/>
      <point x="467.72727272727275" y="707.0909090909091"/>
      <point x="454.3636363636364" y="703.2727272727273" type="curve"/>
      <point x="430.8181818181818" y="513.0"/>
      <point x="400.9090909090909" y="424.0909090909091"/>
      <point x="287.0909090909091" y="285.0909090909091" type="curve"/>
      <point x="331.2727272727273" y="306.0" type="line"/>
      <point x="267.8181818181818" y="306.0" type="line"/>
      <point x="310.0" y="285.1818181818182" type="line"/>
      <point x="210.45454545454547" y="411.90909090909093"/>
      <point x="180.54545454545456" y="491.6363636363636"/>
      <point x="155.00000000000003" y="655.6363636363636" type="curve"/>
      <point x="149.72727272727275" y="696.7272727272727"/>
      <point x="126.18181818181817" y="709.0909090909091"/>
      <point x="88.9090909090909" y="709.0909090909091" type="curve" smooth="yes"/>
      <point x="73.45454545454547" y="709.0909090909091"/>
      <point x="57.90909090909091" y="707.0909090909091"/>
    </contour>
  </outline>
</glyph>
<glyph name="bracketleft" format="2">
  <advance width="478.27272727272725"/>
  <unicode hex="005B"/>
  <outline>
    <contour>
      <point x="396.5454545454545" y="-161.0" type="line"/>
      <point x="398.3636363636363" y="-152.54545454545453"/>
      <point x="399.27272727272725" y="-141.27272727272728"/>
      <point x="399.27272727272725" y="-129.1818181818182" type="curve" smooth="yes"/>
      <point x="399.27272727272725" y="-84.45454545454547"/>
      <point x="386.7272727272727" y="-65.54545454545455"/>
      <point x="358.5454545454545" y="-65.54545454545455" type="curve"/>
      <point x="188.72727272727275" y="-65.54545454545455" type="line"/>
      <point x="188.72727272727275" y="177.45454545454544"/>
      <point x="188.72727272727275" y="421.54545454545456"/>
      <point x="188.72727272727275" y="664.5454545454545" type="curve"/>
      <point x="394.0" y="664.5454545454545" type="line"/>
      <point x="397.3636363636363" y="673.6363636363636"/>
      <point x="398.8181818181818" y="685.5454545454545"/>
      <point x="398.8181818181818" y="698.3636363636364" type="curve" smooth="yes"/>
      <point x="398.8181818181818" y="739.0909090909091"/>
      <point x="387.0" y="760.0"/>
      <point x="361.3636363636363" y="760.0" type="curve"/>
      <point x="124.18181818181817" y="760.0" type="line" smooth="yes"/>
      <point x="107.36363636363636" y="760.0"/>
      <point x="94.36363636363636" y="758.5454545454546"/>
      <point x="79.0" y="754.6363636363636" type="curve"/>
      <point x="86.36363636363636" y="719.1818181818181"/>
      <point x="88.72727272727272" y="683.8181818181818"/>
      <point x="88.72727272727272" y="645.4545454545455" type="curve" smooth="yes"/>
      <point x="88.72727272727272" y="410.7272727272727"/>
      <point x="88.72727272727272" y="162.36363636363637"/>
      <point x="88.72727272727272" y="-79.18181818181817" type="curve" smooth="yes"/>
      <point x="88.72727272727272" y="-116.36363636363636"/>
      <point x="123.63636363636363" y="-161.0"/>
      <point x="154.1818181818182" y="-161.0" type="curve" smooth="yes"/>
    </contour>
  </outline>
</glyph>
<glyph name="backslash" format="2">
  <advance width="600.0"/>
  <unicode hex="005C"/>
  <outline>
    <contour>
      <point x="69.63636363636364" y="750.4545454545455" type="curve"/>
      <point x="144.27272727272728" y="434.45454545454544"/>
      <point x="253.90909090909088" y="155.54545454545456"/>
      <point x="398.45454545454544" y="-86.72727272727272" type="curve" smooth="yes"/>
      <point x="420.0" y="-122.63636363636364"/>
      <point x="446.3636363636364" y="-137.1818181818182"/>
      <point x="481.90909090909093" y="-137.1818181818182" type="curve" smooth="yes"/>
      <point x="503.45454545454544" y="-137.1818181818182"/>
      <point x="519.2727272727273" y="-133.36363636363637"/>
      <point x="536.9090909090909" y="-123.9090909090909" type="curve"/>
      <point x="516.5454545454546" y="-102.54545454545455"/>
      <point x="501.2727272727273" y="-79.81818181818181"/>
      <point x="482.8181818181818" y="-47.0" type="curve"/>
      <point x="350.3636363636364" y="186.1818181818182"/>
      <point x="250.9090909090909" y="443.1818181818182"/>
      <point x="183.27272727272728" y="721.2727272727273" type="curve"/>
      <point x="176.45454545454544" y="749.8181818181819"/>
      <point x="149.9090909090909" y="761.4545454545455"/>
      <point x="115.0909090909091" y="761.4545454545455" type="curve" smooth="yes"/>
      <point x="97.72727272727272" y="761.4545454545455"/>
      <point x="85.27272727272727" y="758.0909090909091"/>
    </contour>
  </outline>
</glyph>
<glyph name="bracketright" format="2">
  <advance width="478.27272727272725"/>
  <unicode hex="005D"/>
  <outline>
    <contour>
      <point x="81.72727272727272" y="760.0" type="line"/>
      <point x="79.9090909090909" y="751.5454545454545"/>
      <point x="79.0" y="740.2727272727273"/>
      <point x="79.0" y="728.1818181818181" type="curve" smooth="yes"/>
      <point x="79.0" y="683.4545454545454"/>
      <point x="91.54545454545455" y="664.5454545454545"/>
      <point x="119.72727272727272" y="664.5454545454545" type="curve"/>
      <point x="289.54545454545456" y="664.5454545454545" type="line"/>
      <point x="289.54545454545456" y="421.5454545454545"/>
      <point x="289.54545454545456" y="177.45454545454547"/>
      <point x="289.54545454545456" y="-65.54545454545453" type="curve"/>
      <point x="84.27272727272727" y="-65.54545454545453" type="line"/>
      <point x="80.9090909090909" y="-74.63636363636363"/>
      <point x="79.45454545454545" y="-86.54545454545455"/>
      <point x="79.45454545454545" y="-99.36363636363637" type="curve" smooth="yes"/>
      <point x="79.45454545454545" y="-140.0909090909091"/>
      <point x="91.27272727272727" y="-161.0"/>
      <point x="116.9090909090909" y="-161.0" type="curve"/>
      <point x="354.09090909090907" y="-161.0" type="line" smooth="yes"/>
      <point x="370.9090909090909" y="-161.0"/>
      <point x="383.9090909090909" y="-159.54545454545456"/>
      <point x="399.27272727272725" y="-155.63636363636365" type="curve"/>
      <point x="391.9090909090909" y="-120.18181818181819"/>
      <point x="389.54545454545456" y="-84.81818181818181"/>
      <point x="389.54545454545456" y="-46.45454545454545" type="curve" smooth="yes"/>
      <point x="389.54545454545456" y="188.27272727272725"/>
      <point x="389.54545454545456" y="436.6363636363637"/>
      <point x="389.54545454545456" y="678.1818181818181" type="curve" smooth="yes"/>
      <point x="389.54545454545456" y="715.3636363636364"/>
      <point x="354.6363636363636" y="760.0"/>
      <point x="324.09090909090907" y="760.0" type="curve" smooth="yes"/>
    </contour>
  </outline>
</glyph>
<glyph name="asciicircum" format="2">
  <advance width="600.0"/>
  <unicode hex="005E"/>
  <outline>
    <contour>
      <point x="268.5" y="760.0" type="curve"/>
      <point x="192.0" y="695.5"/>
      <point x="121.5" y="596.0"/>
      <point x="76.0" y="476.5" type="curve" smooth="yes"/>
      <point x="62.0" y="439.5"/>
      <point x="55.5" y="413.5"/>
      <point x="55.5" y="402.5" type="curve" smooth="yes"/>
      <point x="55.5" y="381.0"/>
      <point x="82.5" y="365.5"/>
      <point x="132.5" y="365.5" type="curve" smooth="yes"/>
      <point x="147.0" y="365.5" type="line"/>
      <point x="177.0" y="496.5"/>
      <point x="218.5" y="567.5"/>
      <point x="311.0" y="676.5" type="curve"/>
      <point x="262.0" y="659.5" type="line"/>
      <point x="328.0" y="659.5" type="line" smooth="yes"/>
      <point x="278.5" y="676.0" type="line"/>
      <point x="364.5" y="580.0"/>
      <point x="394.5" y="521.0"/>
      <point x="432.0" y="396.0" type="curve" smooth="yes"/>
      <point x="439.0" y="374.0"/>
      <point x="461.5" y="367.0"/>
      <point x="500.0" y="367.0" type="curve" smooth="yes"/>
      <point x="515.5" y="367.0"/>
      <point x="527.0" y="368.5"/>
      <point x="540.0" y="373.0" type="curve"/>
      <point x="496.0" y="544.5"/>
      <point x="438.5" y="639.0"/>
      <point x="358.0" y="726.5" type="curve" smooth="yes"/>
      <point x="332.0" y="754.5"/>
      <point x="320.0" y="760.0"/>
      <point x="300.5" y="760.0" type="curve" smooth="yes"/>
      <point x="290.0" y="760.0"/>
      <point x="279.0" y="760.0"/>
    </contour>
  </outline>
</glyph>
<glyph name="underscore" format="2">
  <advance width="600.0"/>
  <unicode hex="005F"/>
  <outline>
    <contour>
      <point x="55.45454545454546" y="-77.27272727272727" type="line"/>
      <point x="55.45454545454546" y="-81.63636363636363"/>
      <point x="55.45454545454546" y="-86.54545454545455"/>
      <point x="55.45454545454546" y="-91.36363636363636" type="curve" smooth="yes"/>
      <point x="55.45454545454546" y="-155.63636363636363"/>
      <point x="65.18181818181819" y="-172.72727272727272"/>
      <point x="117.72727272727273" y="-172.72727272727272" type="curve" smooth="yes"/>
      <point x="546.8181818181819" y="-172.72727272727272" type="line"/>
      <point x="548.6363636363637" y="-161.54545454545456"/>
      <point x="550.0" y="-148.90909090909088"/>
      <point x="550.0" y="-138.63636363636363" type="curve" smooth="yes"/>
      <point x="550.0" y="-96.63636363636363"/>
      <point x="539.5454545454546" y="-77.27272727272727"/>
      <point x="504.2727272727273" y="-77.27272727272727" type="curve" smooth="yes"/>
    </contour>
  </outline>
</glyph>
<glyph name="grave" format="2">
  <advance width="600.0"/>
  <unicode hex="0060"/>
  <outline>
    <contour>
      <point x="305.5" y="747.5" type="curve"/>
      <point x="276.5" y="751.0"/>
      <point x="252.5" y="750.5"/>
      <point x="232.5" y="748.0" type="curve" smooth="yes"/>
      <point x="206.5" y="745.0"/>
      <point x="187.5" y="733.5"/>
      <point x="187.5" y="705.0" type="curve" smooth="yes"/>
      <point x="187.5" y="635.5"/>
      <point x="257.0" y="507.5"/>
      <point x="308.5" y="460.0" type="curve" smooth="yes"/>
      <point x="326.0" y="444.5"/>
      <point x="336.5" y="440.0"/>
      <point x="361.0" y="440.0" type="curve" smooth="yes"/>
      <point x="382.5" y="440.0"/>
      <point x="401.5" y="446.0"/>
      <point x="416.0" y="458.0" type="curve"/>
      <point x="359.5" y="548.0"/>
      <point x="324.0" y="627.5"/>
    </contour>
  </outline>
</glyph>
<glyph name="a" format="2">
  <advance width="600.0"/>
  <unicode hex="0061"/>
  <outline>
    <contour>
      <point x="495.3636363636364" y="352.9090909090909" type="curve" smooth="yes"/>
      <point x="495.3636363636364" y="455.72727272727275"/>
      <point x="421.9090909090909" y="542.3636363636364"/>
      <point x="289.90909090909093" y="542.3636363636364" type="curve" smooth="yes"/>
      <point x="207.72727272727272" y="542.3636363636364"/>
      <point x="148.0909090909091" y="531.8181818181818"/>
      <point x="127.36363636363636" y="511.0909090909092" type="curve" smooth="yes"/>
      <point x="114.36363636363636" y="498.0909090909091"/>
      <point x="108.63636363636363" y="479.0909090909091"/>
      <point x="108.63636363636363" y="456.8181818181818" type="curve" smooth="yes"/>
      <point x="108.63636363636363" y="445.8181818181818"/>
      <point x="110.0909090909091" y="434.45454545454544"/>
      <point x="112.54545454545455" y="425.8181818181818" type="curve"/>
      <point x="118.54545454545455" y="425.8181818181818" type="line"/>
      <point x="161.63636363636363" y="441.8181818181818"/>
      <point x="210.9090909090909" y="450.09090909090907"/>
      <point x="269.1818181818182" y="450.09090909090907" type="curve" smooth="yes"/>
      <point x="328.27272727272725" y="450.09090909090907"/>
      <point x="367.2727272727273" y="441.1818181818182"/>
      <point x="399.72727272727275" y="418.0" type="curve" smooth="yes"/>
      <point x="399.0" y="363.3636363636364"/>
      <point x="395.3636363636364" y="317.72727272727275"/>
      <point x="395.3636363636364" y="242.0" type="curve" smooth="yes"/>
      <point x="395.3636363636364" y="210.0"/>
      <point x="395.3636363636364" y="163.72727272727275"/>
      <point x="395.3636363636364" y="124.0909090909091" type="curve" smooth="yes"/>
      <point x="395.3636363636364" y="53.63636363636364"/>
      <point x="434.09090909090907" y="-8.181818181818182"/>
      <point x="498.36363636363643" y="-8.181818181818182" type="curve" smooth="yes"/>
      <point x="516.1818181818181" y="-8.181818181818182"/>
      <point x="531.6363636363637" y="-1.818181818181818"/>
      <point x="546.4545454545455" y="13.0" type="curve" smooth="yes"/>
      <point x="560.8181818181819" y="27.363636363636367"/>
      <point x="570.8181818181819" y="55.36363636363637"/>
      <point x="570.8181818181819" y="83.9090909090909" type="curve" smooth="yes"/>
      <point x="570.8181818181819" y="90.0"/>
      <point x="570.3636363636364" y="93.9090909090909"/>
      <point x="569.4545454545455" y="99.0909090909091" type="curve"/>
      <point x="563.4545454545454" y="99.0909090909091" type="line"/>
      <point x="551.5454545454546" y="90.36363636363637"/>
      <point x="536.0909090909091" y="86.36363636363637"/>
      <point x="520.9090909090909" y="86.36363636363637" type="curve"/>
      <point x="513.2727272727274" y="86.36363636363637"/>
      <point x="504.2727272727272" y="88.36363636363637"/>
      <point x="498.09090909090907" y="91.9090909090909" type="curve" smooth="yes"/>
      <point x="495.9090909090909" y="108.54545454545455"/>
      <point x="495.3636363636364" y="123.54545454545455"/>
      <point x="495.3636363636364" y="142.27272727272728" type="curve" smooth="yes"/>
      <point x="495.3636363636364" y="212.1818181818182"/>
      <point x="495.3636363636364" y="282.54545454545456"/>
    </contour>
    <contour>
      <point x="169.1818181818182" y="143.1818181818182" type="curve" smooth="yes"/>
      <point x="169.1818181818182" y="145.72727272727275" type="line" smooth="yes"/>
      <point x="169.1818181818182" y="172.45454545454547"/>
      <point x="173.9090909090909" y="193.27272727272725"/>
      <point x="181.1818181818182" y="212.72727272727272" type="curve" smooth="yes"/>
      <point x="203.0909090909091" y="226.36363636363635"/>
      <point x="233.54545454545453" y="234.27272727272728"/>
      <point x="276.3636363636363" y="234.27272727272728" type="curve" smooth="yes"/>
      <point x="328.45454545454544" y="234.27272727272728"/>
      <point x="386.6363636363636" y="229.45454545454547"/>
      <point x="441.7272727272727" y="216.45454545454547" type="curve"/>
      <point x="442.27272727272725" y="245.63636363636365"/>
      <point x="437.3636363636364" y="262.72727272727275"/>
      <point x="425.9090909090909" y="272.0" type="curve" smooth="yes"/>
      <point x="406.27272727272725" y="288.3636363636364"/>
      <point x="333.2727272727273" y="303.3636363636364"/>
      <point x="253.3636363636364" y="303.3636363636364" type="curve" smooth="yes"/>
      <point x="147.0" y="303.3636363636364"/>
      <point x="69.18181818181819" y="228.63636363636365"/>
      <point x="69.18181818181819" y="144.90909090909093" type="curve" smooth="yes"/>
      <point x="69.18181818181819" y="138.54545454545456" type="line" smooth="yes"/>
      <point x="69.18181818181819" y="41.45454545454546"/>
      <point x="124.63636363636364" y="-10.0"/>
      <point x="220.36363636363635" y="-10.0" type="curve" smooth="yes"/>
      <point x="300.90909090909093" y="-10.0"/>
      <point x="365.3636363636364" y="41.81818181818181"/>
      <point x="394.2727272727273" y="95.45454545454545" type="curve"/>
      <point x="410.3636363636363" y="95.45454545454545" type="line"/>
      <point x="411.1818181818182" y="174.72727272727272" type="line"/>
      <point x="358.0909090909091" y="103.81818181818181"/>
      <point x="297.8181818181818" y="76.45454545454545"/>
      <point x="245.54545454545456" y="76.45454545454545" type="curve" smooth="yes"/>
      <point x="191.9090909090909" y="76.45454545454545"/>
      <point x="169.1818181818182" y="95.90909090909092"/>
    </contour>
  </outline>
</glyph>
<glyph name="b" format="2">
  <advance width="600.0"/>
  <unicode hex="0062"/>
  <outline>
    <contour>
      <point x="169.0" y="-2.5" type="curve" smooth="yes"/>
      <point x="179.62988509435002" y="36.2954981918"/>
      <point x="187.5" y="87.13846153845"/>
      <point x="187.5" y="130.5" type="curve"/>
      <point x="187.5" y="297.45991091315"/>
      <point x="187.5" y="459.22048997775"/>
      <point x="187.5" y="629.5" type="curve"/>
      <point x="187.5" y="722.0"/>
      <point x="149.0" y="754.5"/>
      <point x="102.5" y="754.5" type="curve" smooth="yes"/>
      <point x="92.5" y="754.5"/>
      <point x="82.0" y="752.5"/>
      <point x="72.0" y="750.0" type="curve"/>
      <point x="83.5" y="724.5"/>
      <point x="87.5" y="697.0"/>
      <point x="87.5" y="657.0" type="curve" smooth="yes"/>
      <point x="87.5" y="458.6589147287"/>
      <point x="87.5" y="295.3410852713"/>
      <point x="87.5" y="91.5" type="curve"/>
      <point x="87.5" y="38.08695652175"/>
      <point x="105.5925925926" y="-4.0"/>
      <point x="151.5" y="-4.0" type="curve"/>
      <point x="157.0" y="-4.0"/>
      <point x="163.5" y="-4.0"/>
    </contour>
    <contour>
      <point x="171.5" y="68.5" type="line"/>
      <point x="191.0" y="68.5" type="line"/>
      <point x="217.0" y="30.0"/>
      <point x="269.0" y="-11.0"/>
      <point x="328.5" y="-11.0" type="curve" smooth="yes"/>
      <point x="446.5" y="-11.0"/>
      <point x="542.5" y="87.0"/>
      <point x="542.5" y="318.0" type="curve" smooth="yes"/>
      <point x="542.5" y="337.5" type="line" smooth="yes"/>
      <point x="542.5" y="457.0"/>
      <point x="474.0" y="544.0"/>
      <point x="385.5" y="544.0" type="curve" smooth="yes"/>
      <point x="307.0" y="544.0"/>
      <point x="231.0" y="477.0"/>
      <point x="195.0" y="378.5" type="curve"/>
      <point x="177.5" y="378.5" type="line"/>
      <point x="177.5" y="231.0" type="line"/>
      <point x="234.5" y="385.5"/>
      <point x="299.5" y="438.5"/>
      <point x="378.5" y="438.5" type="curve" smooth="yes"/>
      <point x="400.0" y="438.5"/>
      <point x="416.0" y="429.0"/>
      <point x="427.0" y="415.0" type="curve" smooth="yes"/>
      <point x="437.0" y="387.5"/>
      <point x="440.0" y="360.0"/>
      <point x="440.0" y="317.0" type="curve" smooth="yes"/>
      <point x="440.0" y="307.0" type="line" smooth="yes"/>
      <point x="440.0" y="162.0"/>
      <point x="396.0" y="86.0"/>
      <point x="304.0" y="86.0" type="curve" smooth="yes"/>
      <point x="247.5" y="86.0"/>
      <point x="209.5" y="109.5"/>
      <point x="171.5" y="154.5" type="curve"/>
    </contour>
  </outline>
</glyph>
<glyph name="c" format="2">
  <advance width="500.0"/>
  <unicode hex="0063"/>
  <outline>
    <contour>
      <point x="321.5" y="544.0" type="curve" smooth="yes"/>
      <point x="164.0" y="544.0"/>
      <point x="60.5" y="424.5"/>
      <point x="60.5" y="243.5" type="curve" smooth="yes"/>
      <point x="60.5" y="229.0" type="line" smooth="yes"/>
      <point x="60.5" y="65.83697392925001"/>
      <point x="158.49818842960002" y="-12.0"/>
      <point x="298.0" y="-11.0" type="curve" smooth="yes"/>
      <point x="360.0" y="-11.0"/>
      <point x="411.0" y="4.5"/>
      <point x="432.0" y="25.5" type="curve" smooth="yes"/>
      <point x="449.0" y="42.5"/>
      <point x="455.5" y="70.0"/>
      <point x="455.5" y="106.0" type="curve" smooth="yes"/>
      <point x="455.5" y="121.0"/>
      <point x="454.5" y="130.0"/>
      <point x="452.5" y="139.5" type="curve"/>
      <point x="447.5" y="139.5" type="line"/>
      <point x="405.5" y="102.5"/>
      <point x="367.0" y="86.5"/>
      <point x="302.0" y="86.5" type="curve" smooth="yes"/>
      <point x="258.0" y="86.5"/>
      <point x="223.5" y="95.5"/>
      <point x="191.0" y="118.0" type="curve" smooth="yes"/>
      <point x="171.0" y="146.5"/>
      <point x="160.5" y="183.0"/>
      <point x="160.5" y="222.0" type="curve" smooth="yes"/>
      <point x="160.5" y="235.5" type="line" smooth="yes"/>
      <point x="160.5" y="354.0"/>
      <point x="214.0" y="442.0"/>
      <point x="312.5" y="442.0" type="curve" smooth="yes"/>
      <point x="367.0" y="442.0"/>
      <point x="397.5" y="430.0"/>
      <point x="435.5" y="398.0" type="curve"/>
      <point x="440.5" y="398.0" type="line"/>
      <point x="447.5" y="415.5"/>
      <point x="450.5" y="432.5"/>
      <point x="450.5" y="454.5" type="curve"/>
      <point x="450.5" y="483.5"/>
      <point x="445.0" y="499.0"/>
      <point x="431.5" y="512.5" type="curve" smooth="yes"/>
      <point x="411.0" y="533.0"/>
      <point x="373.0" y="544.0"/>
    </contour>
  </outline>
</glyph>
<glyph name="d" format="2">
  <advance width="600.0"/>
  <unicode hex="0064"/>
  <outline>
    <contour>
      <point x="271.5" y="544.0" type="curve" smooth="yes"/>
      <point x="153.5" y="544.0"/>
      <point x="57.5" y="446.0"/>
      <point x="57.5" y="215.0" type="curve" smooth="yes"/>
      <point x="57.5" y="195.5" type="line" smooth="yes"/>
      <point x="57.5" y="76.0"/>
      <point x="126.0" y="-11.0"/>
      <point x="214.5" y="-11.0" type="curve" smooth="yes"/>
      <point x="292.5" y="-11.0"/>
      <point x="368.0" y="59.0"/>
      <point x="406.0" y="150.5" type="curve"/>
      <point x="421.5" y="150.5" type="line"/>
      <point x="421.5" y="301.0" type="line"/>
      <point x="366.0" y="147.5"/>
      <point x="300.5" y="94.5"/>
      <point x="221.5" y="94.5" type="curve" smooth="yes"/>
      <point x="199.5" y="94.5"/>
      <point x="181.5" y="103.5"/>
      <point x="168.0" y="123.0" type="curve" smooth="yes"/>
      <point x="161.5" y="151.0"/>
      <point x="160.0" y="179.0"/>
      <point x="160.0" y="216.0" type="curve" smooth="yes"/>
      <point x="160.0" y="226.0" type="line" smooth="yes"/>
      <point x="160.0" y="371.0"/>
      <point x="204.0" y="447.0"/>
      <point x="296.0" y="447.0" type="curve" smooth="yes"/>
      <point x="350.5" y="447.0"/>
      <point x="385.0" y="429.0"/>
      <point x="424.5" y="383.0" type="curve"/>
      <point x="424.5" y="470.5" type="line"/>
      <point x="406.5" y="470.5" type="line"/>
      <point x="381.0" y="511.0"/>
      <point x="329.5" y="544.0"/>
    </contour>
    <contour>
      <point x="427.5" y="757.0" type="curve" smooth="yes"/>
      <point x="417.5" y="757.0"/>
      <point x="407.0" y="755.0"/>
      <point x="397.0" y="752.5" type="curve"/>
      <point x="408.5" y="727.0"/>
      <point x="412.5" y="699.5"/>
      <point x="412.5" y="659.5" type="curve" smooth="yes"/>
      <point x="412.5" y="467.0"/>
      <point x="412.5" y="310.0"/>
      <point x="412.5" y="112.0" type="curve" smooth="yes"/>
      <point x="412.5" y="46.0"/>
      <point x="437.5" y="-5.5"/>
      <point x="491.0" y="-5.5" type="curve" smooth="yes"/>
      <point x="503.5" y="-5.5"/>
      <point x="514.0" y="-3.0"/>
      <point x="526.5" y="0.0" type="curve"/>
      <point x="515.5" y="34.0"/>
      <point x="512.5" y="59.5"/>
      <point x="512.5" y="103.0" type="curve" smooth="yes"/>
      <point x="512.5" y="278.5"/>
      <point x="512.5" y="452.5"/>
      <point x="512.5" y="632.0" type="curve"/>
      <point x="512.5" y="727.0"/>
      <point x="472.0" y="757.0"/>
    </contour>
  </outline>
</glyph>
<glyph name="f" format="2">
  <advance width="400.0"/>
  <unicode hex="0066"/>
  <outline>
    <contour>
      <point x="25.909090909090907" y="532.3636363636364" type="line"/>
      <point x="25.909090909090907" y="528.0"/>
      <point x="25.909090909090907" y="523.0909090909091"/>
      <point x="25.909090909090907" y="518.2727272727273" type="curve" smooth="yes"/>
      <point x="25.909090909090907" y="460.8181818181818"/>
      <point x="43.0" y="436.90909090909093"/>
      <point x="105.27272727272728" y="436.90909090909093" type="curve"/>
      <point x="369.2727272727273" y="436.90909090909093" type="line"/>
      <point x="371.0909090909091" y="446.27272727272725"/>
      <point x="372.4545454545455" y="458.90909090909093"/>
      <point x="372.4545454545455" y="471.0" type="curve" smooth="yes"/>
      <point x="372.4545454545455" y="513.0"/>
      <point x="358.8181818181818" y="532.3636363636364"/>
      <point x="313.0909090909091" y="532.3636363636364" type="curve"/>
    </contour>
    <contour>
      <point x="204.0909090909091" y="71.36363636363636" type="curve" smooth="yes"/>
      <point x="204.0909090909091" y="204.45454545454547"/>
      <point x="204.0909090909091" y="426.2727272727273"/>
      <point x="204.0909090909091" y="555.2727272727273" type="curve" smooth="yes"/>
      <point x="200.9090909090909" y="592.090909090909"/>
      <point x="200.18181818181816" y="624.9090909090909"/>
      <point x="208.36363636363637" y="650.3636363636364" type="curve" smooth="yes"/>
      <point x="231.8181818181818" y="665.9090909090909"/>
      <point x="256.3636363636363" y="671.6363636363636"/>
      <point x="286.54545454545456" y="671.6363636363636" type="curve" smooth="yes"/>
      <point x="332.1818181818182" y="671.6363636363636"/>
      <point x="365.4545454545455" y="664.1818181818182"/>
      <point x="392.1818181818182" y="649.6363636363636" type="curve"/>
      <point x="397.09090909090907" y="649.6363636363636" type="line"/>
      <point x="400.45454545454544" y="660.0909090909091"/>
      <point x="401.90909090909093" y="673.0"/>
      <point x="401.90909090909093" y="685.0" type="curve" smooth="yes"/>
      <point x="401.90909090909093" y="708.2727272727274"/>
      <point x="396.45454545454544" y="728.0"/>
      <point x="385.54545454545456" y="738.9090909090909" type="curve" smooth="yes"/>
      <point x="373.72727272727275" y="750.7272727272727"/>
      <point x="349.0" y="763.4545454545454"/>
      <point x="298.4545454545455" y="763.4545454545454" type="curve" smooth="yes"/>
      <point x="179.45454545454547" y="763.4545454545454"/>
      <point x="108.63636363636364" y="681.3636363636364"/>
      <point x="108.63636363636364" y="563.6363636363636" type="curve" smooth="yes"/>
      <point x="108.63636363636364" y="411.2727272727273"/>
      <point x="108.63636363636364" y="253.81818181818184"/>
      <point x="108.63636363636364" y="101.45454545454545" type="curve" smooth="yes"/>
      <point x="108.63636363636364" y="57.09090909090909"/>
      <point x="103.45454545454545" y="31.09090909090909"/>
      <point x="94.63636363636364" y="0.0" type="curve"/>
      <point x="102.72727272727273" y="-3.3636363636363638"/>
      <point x="114.81818181818181" y="-6.7272727272727275"/>
      <point x="132.72727272727272" y="-6.7272727272727275" type="curve" smooth="yes"/>
      <point x="178.00000000000003" y="-6.7272727272727275"/>
      <point x="204.0909090909091" y="13.818181818181818"/>
    </contour>
  </outline>
</glyph>
<glyph name="g" format="2">
  <advance width="600.0"/>
  <unicode hex="0067"/>
  <outline>
    <contour>
      <point x="169.5" y="71.0" type="curve" smooth="yes"/>
      <point x="169.5" y="20.0"/>
      <point x="212.5" y="-27.0"/>
      <point x="289.0" y="-32.0" type="curve" smooth="yes"/>
      <point x="397.0" y="-39.0" type="line" smooth="yes"/>
      <point x="438.5" y="-41.0"/>
      <point x="458.5" y="-68.0"/>
      <point x="458.5" y="-99.5" type="curve" smooth="yes"/>
      <point x="458.5" y="-104.0" type="line" smooth="yes"/>
      <point x="458.5" y="-122.0"/>
      <point x="455.0" y="-140.5"/>
      <point x="446.5" y="-154.0" type="curve" smooth="yes"/>
      <point x="400.5" y="-171.0"/>
      <point x="356.5" y="-176.5"/>
      <point x="290.5" y="-176.5" type="curve"/>
      <point x="259.5" y="-176.5" type="line" smooth="yes"/>
      <point x="184.0" y="-176.5"/>
      <point x="145.0" y="-151.0"/>
      <point x="145.0" y="-106.5" type="curve" smooth="yes"/>
      <point x="145.0" y="-101.0" type="line" smooth="yes"/>
      <point x="145.0" y="-52.5"/>
      <point x="173.5" y="-20.0"/>
      <point x="238.0" y="-2.0" type="curve"/>
      <point x="183.0" y="37.0" type="line"/>
      <point x="183.0" y="17.0" type="line"/>
      <point x="102.0" y="11.5"/>
      <point x="45.0" y="-42.5"/>
      <point x="45.0" y="-110.0" type="curve" smooth="yes"/>
      <point x="45.0" y="-116.0" type="line" smooth="yes"/>
      <point x="45.0" y="-189.5"/>
      <point x="113.5" y="-250.0"/>
      <point x="244.0" y="-250.0" type="curve" smooth="yes"/>
      <point x="272.0" y="-250.0" type="line" smooth="yes"/>
      <point x="481.0" y="-250.0"/>
      <point x="557.5" y="-173.5"/>
      <point x="557.5" y="-79.0" type="curve" smooth="yes"/>
      <point x="557.5" y="-71.5" type="line" smooth="yes"/>
      <point x="557.5" y="-2.5"/>
      <point x="507.5" y="47.5"/>
      <point x="425.0" y="53.0" type="curve" smooth="yes"/>
      <point x="305.5" y="61.5" type="line" smooth="yes"/>
      <point x="276.0" y="64.0"/>
      <point x="263.5" y="76.5"/>
      <point x="263.5" y="97.5" type="curve" smooth="yes"/>
      <point x="263.5" y="124.5"/>
      <point x="272.5" y="152.5"/>
      <point x="294.0" y="173.5" type="curve"/>
      <point x="224.5" y="177.0" type="line"/>
      <point x="224.5" y="161.5" type="line"/>
      <point x="189.5" y="143.0"/>
      <point x="169.5" y="108.0"/>
    </contour>
    <contour>
      <point x="342.5" y="468.0" type="line"/>
      <point x="409.5" y="436.0"/>
      <point x="424.5" y="382.5"/>
      <point x="424.5" y="345.5" type="curve" smooth="yes"/>
      <point x="424.5" y="337.5" type="line" smooth="yes"/>
      <point x="424.5" y="272.5"/>
      <point x="375.5" y="238.5"/>
      <point x="298.0" y="238.5" type="curve" smooth="yes"/>
      <point x="254.5" y="238.5"/>
      <point x="225.0" y="244.5"/>
      <point x="194.0" y="257.5" type="curve" smooth="yes"/>
      <point x="173.5" y="283.0"/>
      <point x="168.0" y="311.5"/>
      <point x="168.0" y="332.5" type="curve" smooth="yes"/>
      <point x="168.0" y="338.5" type="line" smooth="yes"/>
      <point x="168.0" y="419.5"/>
      <point x="222.0" y="458.0"/>
      <point x="319.5" y="458.0" type="curve" smooth="yes"/>
      <point x="443.5" y="458.0"/>
      <point x="496.5" y="444.5"/>
      <point x="533.0" y="444.5" type="curve" smooth="yes"/>
      <point x="559.5" y="444.5"/>
      <point x="569.0" y="470.0"/>
      <point x="569.0" y="505.0" type="curve" smooth="yes"/>
      <point x="569.0" y="516.5"/>
      <point x="567.5" y="528.5"/>
      <point x="565.5" y="535.0" type="curve"/>
      <point x="481.5" y="542.5"/>
      <point x="411.0" y="547.0"/>
      <point x="326.0" y="547.0" type="curve" smooth="yes"/>
      <point x="165.5" y="547.0"/>
      <point x="75.0" y="468.5"/>
      <point x="75.0" y="352.0" type="curve" smooth="yes"/>
      <point x="75.0" y="345.0" type="line" smooth="yes"/>
      <point x="75.0" y="228.0"/>
      <point x="167.0" y="158.5"/>
      <point x="299.0" y="160.5" type="curve" smooth="yes"/>
      <point x="421.5" y="160.5"/>
      <point x="513.5" y="220.0"/>
      <point x="513.5" y="319.0" type="curve" smooth="yes"/>
      <point x="513.5" y="326.5" type="line" smooth="yes"/>
      <point x="513.5" y="382.0"/>
      <point x="483.0" y="421.0"/>
      <point x="439.0" y="444.5" type="curve"/>
      <point x="439.0" y="469.5" type="line"/>
    </contour>
  </outline>
</glyph>
<glyph name="h" format="2">
  <advance width="600.0"/>
  <unicode hex="0068"/>
  <outline>
    <contour>
      <point x="155.0" y="-4.090909090909091" type="curve" smooth="yes"/>
      <point x="163.45454545454544" y="-4.090909090909091"/>
      <point x="169.72727272727275" y="-4.090909090909091"/>
      <point x="179.54545454545456" y="-2.727272727272727" type="curve"/>
      <point x="179.54545454545456" y="211.72727272727275"/>
      <point x="179.54545454545456" y="417.8181818181818"/>
      <point x="179.54545454545456" y="634.0909090909091" type="curve" smooth="yes"/>
      <point x="179.54545454545456" y="723.6363636363636"/>
      <point x="139.72727272727275" y="754.3636363636364"/>
      <point x="98.18181818181819" y="754.3636363636364" type="curve"/>
      <point x="88.63636363636363" y="754.3636363636364"/>
      <point x="78.54545454545453" y="752.4545454545455"/>
      <point x="69.0" y="750.0" type="curve"/>
      <point x="80.27272727272727" y="724.3636363636364"/>
      <point x="84.09090909090908" y="698.1818181818182"/>
      <point x="84.09090909090908" y="657.5454545454545" type="curve" smooth="yes"/>
      <point x="84.09090909090908" y="444.45454545454544"/>
      <point x="84.09090909090908" y="267.4545454545455"/>
      <point x="84.09090909090908" y="48.45454545454545" type="curve" smooth="yes"/>
      <point x="84.09090909090908" y="18.181818181818183"/>
      <point x="105.27272727272727" y="-4.090909090909091"/>
    </contour>
    <contour>
      <point x="165.0909090909091" y="186.18181818181816" type="line"/>
      <point x="215.36363636363635" y="348.27272727272725"/>
      <point x="293.5454545454545" y="440.6363636363637"/>
      <point x="369.54545454545456" y="440.6363636363637" type="curve" smooth="yes"/>
      <point x="399.0909090909091" y="440.6363636363637"/>
      <point x="418.3636363636364" y="420.8181818181818"/>
      <point x="431.6363636363636" y="382.81818181818187" type="curve" smooth="yes"/>
      <point x="416.3636363636364" y="280.00000000000006"/>
      <point x="409.3636363636364" y="214.45454545454544"/>
      <point x="409.3636363636364" y="129.54545454545453" type="curve" smooth="yes"/>
      <point x="409.3636363636364" y="23.636363636363637"/>
      <point x="443.0" y="-3.8181818181818183"/>
      <point x="495.8181818181818" y="-3.8181818181818183" type="curve" smooth="yes"/>
      <point x="508.09090909090907" y="-3.8181818181818183"/>
      <point x="518.5454545454545" y="-2.3636363636363638"/>
      <point x="530.3636363636364" y="0.0" type="curve"/>
      <point x="517.0909090909091" y="50.27272727272728"/>
      <point x="513.1818181818182" y="85.18181818181819"/>
      <point x="513.1818181818182" y="139.9090909090909" type="curve" smooth="yes"/>
      <point x="513.1818181818182" y="223.63636363636363"/>
      <point x="513.1818181818182" y="307.3636363636364"/>
      <point x="513.1818181818182" y="391.09090909090907" type="curve" smooth="yes"/>
      <point x="513.1818181818182" y="467.0"/>
      <point x="464.90909090909093" y="543.8181818181818"/>
      <point x="395.4545454545455" y="543.8181818181818" type="curve"/>
      <point x="311.90909090909093" y="543.8181818181818"/>
      <point x="232.36363636363637" y="466.0"/>
      <point x="186.0" y="361.3636363636364" type="curve"/>
      <point x="163.45454545454547" y="361.3636363636364" type="line"/>
    </contour>
  </outline>
</glyph>
<glyph name="i" format="2">
  <advance width="350.0"/>
  <unicode hex="0069"/>
  <outline>
    <contour>
      <point x="142.5" y="98.0" type="curve"/>
      <point x="142.5" y="18.5"/>
      <point x="168.5" y="-4.0"/>
      <point x="223.0" y="-4.0" type="curve" smooth="yes"/>
      <point x="236.0" y="-4.0"/>
      <point x="247.0" y="-2.5"/>
      <point x="259.5" y="0.0" type="curve"/>
      <point x="245.0" y="50.0"/>
      <point x="242.5" y="81.0"/>
      <point x="242.5" y="131.5" type="curve"/>
      <point x="242.5" y="238.5"/>
      <point x="242.5" y="372.0"/>
      <point x="242.5" y="481.5" type="curve" smooth="yes"/>
      <point x="242.5" y="525.0"/>
      <point x="203.5" y="543.0"/>
      <point x="151.0" y="543.0" type="curve" smooth="yes"/>
      <point x="117.5" y="543.0"/>
      <point x="81.5" y="539.5"/>
      <point x="44.0" y="533.0" type="curve"/>
      <point x="40.0" y="520.0"/>
      <point x="38.0" y="503.0"/>
      <point x="38.0" y="486.0" type="curve" smooth="yes"/>
      <point x="38.0" y="445.5"/>
      <point x="51.5" y="424.0"/>
      <point x="75.0" y="424.0" type="curve" smooth="yes"/>
      <point x="95.5" y="424.0"/>
      <point x="117.5" y="431.0"/>
      <point x="137.0" y="440.0" type="curve"/>
      <point x="142.5" y="438.0" type="line"/>
      <point x="142.5" y="334.0"/>
      <point x="142.5" y="195.5"/>
    </contour>
    <contour>
      <point x="113.5" y="754.5" type="curve"/>
      <point x="113.5" y="700.5" type="line" smooth="yes"/>
      <point x="113.5" y="662.5"/>
      <point x="148.0" y="639.0"/>
      <point x="198.5" y="639.0" type="curve" smooth="yes"/>
      <point x="220.5" y="639.0"/>
      <point x="241.0" y="642.5"/>
      <point x="257.5" y="649.0" type="curve"/>
      <point x="257.5" y="711.0" type="line" smooth="yes"/>
      <point x="257.5" y="749.0"/>
      <point x="226.0" y="764.5"/>
      <point x="178.5" y="764.5" type="curve" smooth="yes"/>
      <point x="155.0" y="764.5"/>
      <point x="130.0" y="760.5"/>
    </contour>
  </outline>
</glyph>
<glyph name="j" format="2">
  <advance width="350.0"/>
  <unicode hex="006A"/>
  <outline>
    <contour>
      <point x="168.18181818181816" y="542.3636363636364" type="curve" smooth="yes"/>
      <point x="129.0" y="542.3636363636364"/>
      <point x="83.36363636363636" y="538.1818181818182"/>
      <point x="45.272727272727266" y="534.1818181818182" type="curve"/>
      <point x="42.36363636363636" y="524.6363636363636"/>
      <point x="40.90909090909091" y="511.72727272727275"/>
      <point x="40.90909090909091" y="496.90909090909093" type="curve" smooth="yes"/>
      <point x="40.90909090909091" y="458.54545454545456"/>
      <point x="52.09090909090909" y="438.72727272727275"/>
      <point x="73.45454545454545" y="438.72727272727275" type="curve" smooth="yes"/>
      <point x="94.72727272727272" y="438.72727272727275"/>
      <point x="127.18181818181819" y="445.3636363636364"/>
      <point x="162.18181818181816" y="452.54545454545456" type="curve"/>
      <point x="168.1818181818182" y="449.0909090909091" type="line"/>
      <point x="168.1818181818182" y="293.3636363636364"/>
      <point x="168.1818181818182" y="137.1818181818182"/>
      <point x="168.1818181818182" y="-18.545454545454547" type="curve" smooth="yes"/>
      <point x="168.1818181818182" y="-71.36363636363636"/>
      <point x="163.27272727272728" y="-108.72727272727272"/>
      <point x="144.54545454545456" y="-141.1818181818182" type="curve"/>
      <point x="131.0909090909091" y="-149.72727272727272"/>
      <point x="115.45454545454545" y="-154.54545454545453"/>
      <point x="96.36363636363636" y="-154.54545454545453" type="curve" smooth="yes"/>
      <point x="63.63636363636364" y="-154.54545454545453"/>
      <point x="44.90909090909091" y="-149.45454545454547"/>
      <point x="17.636363636363633" y="-134.27272727272728" type="curve"/>
      <point x="12.181818181818182" y="-134.27272727272728" type="line"/>
      <point x="9.181818181818182" y="-143.0"/>
      <point x="8.181818181818182" y="-152.27272727272728"/>
      <point x="8.181818181818182" y="-164.0909090909091" type="curve" smooth="yes"/>
      <point x="8.181818181818182" y="-189.27272727272728"/>
      <point x="15.272727272727273" y="-215.72727272727275"/>
      <point x="28.272727272727273" y="-228.72727272727275" type="curve" smooth="yes"/>
      <point x="44.54545454545455" y="-245.0"/>
      <point x="68.81818181818181" y="-250.0"/>
      <point x="99.0909090909091" y="-250.0" type="curve" smooth="yes"/>
      <point x="201.90909090909093" y="-250.0"/>
      <point x="263.6363636363636" y="-158.0"/>
      <point x="263.6363636363636" y="-47.00000000000001" type="curve" smooth="yes"/>
      <point x="263.6363636363636" y="148.90909090909093"/>
      <point x="263.6363636363636" y="323.90909090909093"/>
      <point x="263.6363636363636" y="498.45454545454544" type="curve" smooth="yes"/>
      <point x="263.6363636363636" y="528.2727272727274"/>
      <point x="230.36363636363637" y="542.3636363636364"/>
    </contour>
    <contour>
      <point x="138.54545454545453" y="754.4545454545454" type="curve"/>
      <point x="138.54545454545453" y="700.6363636363636" type="line" smooth="yes"/>
      <point x="138.54545454545453" y="664.0909090909091"/>
      <point x="171.63636363636363" y="641.5454545454546"/>
      <point x="220.36363636363635" y="641.5454545454546" type="curve" smooth="yes"/>
      <point x="241.45454545454544" y="641.5454545454546"/>
      <point x="261.0" y="644.8181818181819"/>
      <point x="276.72727272727275" y="650.909090909091" type="curve"/>
      <point x="276.72727272727275" y="712.0" type="line" smooth="yes"/>
      <point x="276.72727272727275" y="748.5454545454545"/>
      <point x="246.45454545454547" y="763.8181818181818"/>
      <point x="200.36363636363637" y="763.8181818181818" type="curve" smooth="yes"/>
      <point x="177.9090909090909" y="763.8181818181818"/>
      <point x="154.27272727272725" y="760.090909090909"/>
    </contour>
  </outline>
</glyph>
<glyph name="l" format="2">
  <advance width="350.0"/>
  <unicode hex="006C"/>
  <outline>
    <contour>
      <point x="102.27272727272727" y="661.3636363636364" type="curve" smooth="yes"/>
      <point x="102.27272727272727" y="491.1818181818182"/>
      <point x="102.27272727272727" y="315.45454545454544"/>
      <point x="102.27272727272727" y="137.54545454545453" type="curve" smooth="yes"/>
      <point x="102.27272727272727" y="57.54545454545455"/>
      <point x="136.54545454545456" y="-10.0"/>
      <point x="230.63636363636365" y="-10.0" type="curve" smooth="yes"/>
      <point x="257.90909090909093" y="-10.0"/>
      <point x="282.27272727272725" y="-5.454545454545455"/>
      <point x="296.1818181818182" y="8.454545454545455" type="curve" smooth="yes"/>
      <point x="309.8181818181818" y="22.090909090909093"/>
      <point x="316.45454545454544" y="41.0"/>
      <point x="316.45454545454544" y="73.18181818181819" type="curve" smooth="yes"/>
      <point x="316.45454545454544" y="87.54545454545453"/>
      <point x="315.45454545454544" y="96.72727272727272"/>
      <point x="313.54545454545456" y="104.81818181818183" type="curve"/>
      <point x="307.54545454545456" y="104.81818181818183" type="line"/>
      <point x="291.6363636363636" y="91.27272727272728"/>
      <point x="274.0" y="83.18181818181819"/>
      <point x="246.8181818181818" y="83.18181818181819" type="curve" smooth="yes"/>
      <point x="230.1818181818182" y="83.18181818181819"/>
      <point x="218.36363636363635" y="87.18181818181817"/>
      <point x="209.1818181818182" y="94.36363636363637" type="curve" smooth="yes"/>
      <point x="199.72727272727272" y="114.45454545454545"/>
      <point x="197.72727272727272" y="137.45454545454544"/>
      <point x="197.72727272727272" y="176.8181818181818" type="curve" smooth="yes"/>
      <point x="197.72727272727272" y="336.8181818181818"/>
      <point x="197.72727272727272" y="500.63636363636357"/>
      <point x="197.72727272727272" y="660.6363636363636" type="curve" smooth="yes"/>
      <point x="197.72727272727272" y="732.1818181818182"/>
      <point x="166.8181818181818" y="758.1818181818181"/>
      <point x="125.45454545454544" y="758.1818181818181" type="curve" smooth="yes"/>
      <point x="112.72727272727272" y="758.1818181818181"/>
      <point x="99.45454545454547" y="756.7272727272727"/>
      <point x="89.45454545454545" y="753.8181818181819" type="curve"/>
      <point x="98.45454545454545" y="728.1818181818181"/>
      <point x="102.27272727272727" y="702.0"/>
    </contour>
  </outline>
</glyph>
<glyph name="m" format="2">
  <advance width="850.0"/>
  <unicode hex="006D"/>
  <outline>
    <contour>
      <point x="783.5" y="0.0" type="curve"/>
      <point x="771.0" y="51.0"/>
      <point x="767.5" y="86.0"/>
      <point x="767.5" y="141.5" type="curve" smooth="yes"/>
      <point x="767.5" y="229.63568773235"/>
      <point x="767.5" y="317.0"/>
      <point x="767.5" y="386.0" type="curve" smooth="yes"/>
      <point x="767.5" y="465.5"/>
      <point x="721.0" y="544.0"/>
      <point x="650.0" y="544.0" type="curve" smooth="yes"/>
      <point x="586.0" y="544.0"/>
      <point x="526.0" y="490.0"/>
      <point x="483.0" y="399.5" type="curve"/>
      <point x="464.5" y="399.5" type="line"/>
      <point x="464.5" y="251.0" type="line"/>
      <point x="507.58029797845" y="373.56431467979996"/>
      <point x="562.0" y="435.5"/>
      <point x="620.0" y="435.5" type="curve" smooth="yes"/>
      <point x="653.0" y="435.5"/>
      <point x="668.5" y="420.5"/>
      <point x="678.0" y="383.0" type="curve" smooth="yes"/>
      <point x="664.5" y="270.5"/>
      <point x="658.5" y="208.068627451"/>
      <point x="658.5" y="124.5" type="curve" smooth="yes"/>
      <point x="658.5" y="20.5"/>
      <point x="688.5" y="-4.0"/>
      <point x="746.5" y="-4.0" type="curve" smooth="yes"/>
      <point x="761.5" y="-4.0"/>
      <point x="772.0" y="-2.5"/>
    </contour>
    <contour>
      <point x="477.0" y="0.0" type="curve"/>
      <point x="477.4291633413" y="134.65784782815"/>
      <point x="474.69918830874997" y="269.41792199844997"/>
      <point x="477.0" y="386.5" type="curve" smooth="yes"/>
      <point x="477.0" y="456.34507042255"/>
      <point x="431.9104477612" y="543.0"/>
      <point x="361.5" y="543.0" type="curve" smooth="yes"/>
      <point x="295.39737991264997" y="543.0"/>
      <point x="232.0" y="491.0"/>
      <point x="193.5" y="396.5" type="curve"/>
      <point x="174.0" y="396.5" type="line"/>
      <point x="174.0" y="249.5" type="line"/>
      <point x="224.65309416075" y="382.63808667065"/>
      <point x="280.5" y="435.5"/>
      <point x="327.5" y="435.5" type="curve" smooth="yes"/>
      <point x="360.5" y="435.5"/>
      <point x="376.0" y="418.0"/>
      <point x="387.0" y="384.5" type="curve" smooth="yes"/>
      <point x="374.5" y="264.5"/>
      <point x="368.5" y="208.07017543860002"/>
      <point x="368.5" y="127.0" type="curve" smooth="yes"/>
      <point x="368.5" y="27.2113402062"/>
      <point x="391.987012987" y="-4.0"/>
      <point x="436.0" y="-4.0" type="curve"/>
      <point x="454.0681818182" y="-4.0"/>
      <point x="466.5" y="-2.5"/>
    </contour>
    <contour>
      <point x="187.5" y="-2.5" type="curve"/>
      <point x="187.5" y="137.67970660145"/>
      <point x="187.5" y="278.0"/>
      <point x="187.5" y="418.0" type="curve" smooth="yes"/>
      <point x="187.5" y="500.5"/>
      <point x="144.13513513515" y="539.0"/>
      <point x="99.5" y="539.0" type="curve" smooth="yes"/>
      <point x="90.0" y="539.0"/>
      <point x="80.0" y="538.0"/>
      <point x="70.5" y="535.5" type="curve"/>
      <point x="79.5" y="504.0"/>
      <point x="82.5" y="482.0"/>
      <point x="82.5" y="439.0" type="curve" smooth="yes"/>
      <point x="82.5" y="315.02631578945"/>
      <point x="82.5" y="190.97368421055"/>
      <point x="82.5" y="67.0" type="curve" smooth="yes"/>
      <point x="82.5" y="4.87096774195"/>
      <point x="110.90217391305" y="-5.5"/>
      <point x="153.5" y="-5.5" type="curve" smooth="yes"/>
      <point x="168.2205882353" y="-5.5"/>
      <point x="177.42097681715" y="-4.7877395154"/>
    </contour>
  </outline>
</glyph>
<glyph name="n" format="2">
  <advance width="600.0"/>
  <unicode hex="006E"/>
  <outline>
    <contour>
      <point x="532.0" y="0.0" type="curve"/>
      <point x="518.5" y="51.0"/>
      <point x="514.5" y="86.0"/>
      <point x="514.5" y="141.5" type="curve" smooth="yes"/>
      <point x="514.5" y="224.5"/>
      <point x="514.5" y="307.5"/>
      <point x="514.5" y="390.5" type="curve" smooth="yes"/>
      <point x="514.5" y="466.5"/>
      <point x="466.0" y="544.5"/>
      <point x="397.5" y="544.5" type="curve" smooth="yes"/>
      <point x="314.0" y="544.5"/>
      <point x="234.5" y="467.0"/>
      <point x="189.0" y="363.0" type="curve"/>
      <point x="166.0" y="363.0" type="line"/>
      <point x="167.5" y="182.0" type="line"/>
      <point x="218.0" y="347.0"/>
      <point x="294.5" y="436.0"/>
      <point x="369.0" y="436.0" type="curve" smooth="yes"/>
      <point x="397.0" y="436.0"/>
      <point x="415.5" y="417.5"/>
      <point x="428.5" y="382.0" type="curve" smooth="yes"/>
      <point x="413.0" y="280.5"/>
      <point x="405.5" y="213.5"/>
      <point x="405.5" y="129.5" type="curve" smooth="yes"/>
      <point x="405.5" y="23.5"/>
      <point x="440.0" y="-4.0"/>
      <point x="495.5" y="-4.0" type="curve"/>
      <point x="508.5" y="-4.0"/>
      <point x="519.5" y="-2.5"/>
    </contour>
    <contour>
      <point x="183.0" y="-2.5" type="curve"/>
      <point x="183.0" y="127.0"/>
      <point x="183.0" y="272.5"/>
      <point x="183.0" y="414.0" type="curve"/>
      <point x="183.0" y="507.5"/>
      <point x="148.5" y="539.0"/>
      <point x="98.0" y="539.0" type="curve" smooth="yes"/>
      <point x="88.0" y="539.0"/>
      <point x="77.5" y="537.0"/>
      <point x="67.5" y="534.5" type="curve"/>
      <point x="79.0" y="509.0"/>
      <point x="83.0" y="481.5"/>
      <point x="83.0" y="441.5" type="curve" smooth="yes"/>
      <point x="83.0" y="315.5"/>
      <point x="83.0" y="190.5"/>
      <point x="83.0" y="53.5" type="curve" smooth="yes"/>
      <point x="83.0" y="17.0"/>
      <point x="104.0" y="-4.0"/>
      <point x="156.0" y="-4.0" type="curve" smooth="yes"/>
      <point x="165.0" y="-4.0"/>
      <point x="172.5" y="-4.0"/>
    </contour>
  </outline>
</glyph>
<glyph name="o" format="2">
  <advance width="600.0"/>
  <unicode hex="006F"/>
  <outline>
    <contour>
      <point x="301.8181818181818" y="543.2727272727273" type="curve" smooth="yes"/>
      <point x="163.9090909090909" y="543.2727272727273"/>
      <point x="63.63636363636363" y="426.45454545454544"/>
      <point x="63.63636363636363" y="243.27272727272728" type="curve" smooth="yes"/>
      <point x="63.63636363636363" y="232.54545454545456" type="line" smooth="yes"/>
      <point x="63.63636363636363" y="71.81818181818181"/>
      <point x="162.45454545454544" y="-10.90909090909091"/>
      <point x="297.72727272727275" y="-10.90909090909091" type="curve" smooth="yes"/>
      <point x="441.0909090909091" y="-10.90909090909091"/>
      <point x="536.3636363636364" y="82.27272727272727"/>
      <point x="536.3636363636364" y="233.27272727272728" type="curve" smooth="yes"/>
      <point x="536.3636363636364" y="244.00000000000003" type="line" smooth="yes"/>
      <point x="536.3636363636364" y="432.7272727272727"/>
      <point x="431.27272727272725" y="543.2727272727273"/>
    </contour>
    <contour>
      <point x="312.0909090909091" y="452.3636363636364" type="curve" smooth="yes"/>
      <point x="339.27272727272725" y="452.3636363636364"/>
      <point x="360.45454545454544" y="450.3636363636364"/>
      <point x="379.1818181818182" y="444.3636363636364" type="curve" smooth="yes"/>
      <point x="424.0" y="398.45454545454544"/>
      <point x="443.18181818181813" y="330.09090909090907"/>
      <point x="443.18181818181813" y="244.63636363636365" type="curve" smooth="yes"/>
      <point x="443.18181818181813" y="238.1818181818182" type="line" smooth="yes"/>
      <point x="443.18181818181813" y="139.0"/>
      <point x="394.09090909090907" y="80.0"/>
      <point x="285.6363636363636" y="80.0" type="curve" smooth="yes"/>
      <point x="255.09090909090907" y="80.0"/>
      <point x="231.0909090909091" y="83.0909090909091"/>
      <point x="204.9090909090909" y="89.81818181818181" type="curve" smooth="yes"/>
      <point x="168.45454545454547" y="125.90909090909092"/>
      <point x="156.8181818181818" y="178.45454545454547"/>
      <point x="156.8181818181818" y="231.36363636363637" type="curve" smooth="yes"/>
      <point x="156.8181818181818" y="237.8181818181818" type="line" smooth="yes"/>
      <point x="156.8181818181818" y="366.0909090909091"/>
      <point x="207.00000000000003" y="452.3636363636364"/>
    </contour>
  </outline>
</glyph>
<glyph name="p" format="2">
  <advance width="600.0"/>
  <unicode hex="0070"/>
  <outline>
    <contour>
      <point x="74.45454545454545" y="534.5454545454545" type="curve"/>
      <point x="85.72727272727272" y="508.9090909090908"/>
      <point x="89.54545454545455" y="482.72727272727275"/>
      <point x="89.54545454545455" y="442.0909090909091" type="curve" smooth="yes"/>
      <point x="89.54545454545455" y="244.22727272727272"/>
      <point x="89.54545454545455" y="76.57111436950001"/>
      <point x="89.54545454545455" y="-126.09090909090908" type="curve" smooth="yes"/>
      <point x="89.54545454545455" y="-172.72727272727272"/>
      <point x="110.72727272727272" y="-210.45454545454544"/>
      <point x="160.45454545454544" y="-210.45454545454544" type="curve" smooth="yes"/>
      <point x="168.9090909090909" y="-210.45454545454544"/>
      <point x="175.1818181818182" y="-210.45454545454544"/>
      <point x="185.0" y="-209.0909090909091" type="curve"/>
      <point x="185.0" y="2.2705291254545443"/>
      <point x="185.0" y="205.5195478096818"/>
      <point x="185.0" y="418.6363636363636" type="curve" smooth="yes"/>
      <point x="185.0" y="507.0909090909091"/>
      <point x="148.45454545454547" y="538.9090909090909"/>
      <point x="103.63636363636364" y="538.9090909090909" type="curve"/>
      <point x="94.0909090909091" y="538.9090909090909"/>
      <point x="84.0" y="537.0"/>
    </contour>
    <contour>
      <point x="383.72727272727275" y="543.2727272727273" type="curve" smooth="yes"/>
      <point x="305.0" y="543.2727272727273"/>
      <point x="229.00000000000003" y="476.9090909090909"/>
      <point x="192.63636363636363" y="377.27272727272725" type="curve"/>
      <point x="176.1818181818182" y="377.27272727272725" type="line"/>
      <point x="176.1818181818182" y="234.36363636363637" type="line"/>
      <point x="233.54545454545456" y="389.3636363636364"/>
      <point x="299.0" y="442.8181818181818"/>
      <point x="375.09090909090907" y="442.8181818181818" type="curve" smooth="yes"/>
      <point x="401.54545454545456" y="442.8181818181818"/>
      <point x="419.1818181818182" y="432.45454545454544"/>
      <point x="433.0" y="409.09090909090907" type="curve" smooth="yes"/>
      <point x="441.1818181818182" y="383.1818181818182"/>
      <point x="443.1818181818182" y="354.7272727272727"/>
      <point x="443.1818181818182" y="317.6363636363636" type="curve" smooth="yes"/>
      <point x="443.1818181818182" y="307.72727272727275" type="line" smooth="yes"/>
      <point x="443.1818181818182" y="159.36363636363637"/>
      <point x="398.45454545454544" y="81.81818181818181"/>
      <point x="304.8181818181818" y="81.81818181818181" type="curve" smooth="yes"/>
      <point x="246.54545454545456" y="81.81818181818181"/>
      <point x="213.27272727272725" y="104.0"/>
      <point x="173.45454545454544" y="148.00000000000003" type="curve"/>
      <point x="173.45454545454544" y="65.27272727272727" type="line"/>
      <point x="192.1818181818182" y="65.27272727272727" type="line"/>
      <point x="217.0909090909091" y="26.999999999999996"/>
      <point x="266.09090909090907" y="-10.90909090909091"/>
      <point x="326.54545454545456" y="-10.90909090909091" type="curve" smooth="yes"/>
      <point x="446.27272727272725" y="-10.90909090909091"/>
      <point x="540.909090909091" y="87.18181818181817"/>
      <point x="540.909090909091" y="317.63636363636357" type="curve" smooth="yes"/>
      <point x="540.909090909091" y="336.90909090909093" type="line" smooth="yes"/>
      <point x="540.909090909091" y="457.0909090909091"/>
      <point x="473.1818181818182" y="543.2727272727273"/>
    </contour>
  </outline>
</glyph>
<glyph name="q" format="2">
  <advance width="600.0"/>
  <unicode hex="0071"/>
  <outline>
    <contour>
      <point x="424.1818181818182" y="533.7272727272727" type="curve"/>
      <point x="417.4545454545455" y="506.0"/>
      <point x="415.0" y="481.0"/>
      <point x="415.0" y="436.2727272727273" type="curve"/>
      <point x="415.0" y="258.9090909090909"/>
      <point x="415.0" y="80.0"/>
      <point x="415.0" y="-97.36363636363636" type="curve"/>
      <point x="415.0" y="-162.0"/>
      <point x="437.8181818181818" y="-209.0"/>
      <point x="488.6363636363637" y="-209.0" type="curve" smooth="yes"/>
      <point x="498.1818181818182" y="-209.0"/>
      <point x="505.5454545454545" y="-208.45454545454544"/>
      <point x="516.4545454545455" y="-206.0" type="curve"/>
      <point x="511.54545454545456" y="-174.45454545454544"/>
      <point x="510.45454545454544" y="-150.99999999999997"/>
      <point x="510.45454545454544" y="-109.45454545454545" type="curve" smooth="yes"/>
      <point x="510.45454545454544" y="72.63636363636363"/>
      <point x="510.45454545454544" y="252.09090909090907"/>
      <point x="510.45454545454544" y="437.3636363636364" type="curve"/>
      <point x="510.45454545454544" y="512.1818181818182"/>
      <point x="484.6363636363636" y="536.7272727272727"/>
      <point x="452.1818181818182" y="536.7272727272727" type="curve"/>
      <point x="442.27272727272725" y="536.7272727272727"/>
      <point x="433.6363636363636" y="535.7272727272727"/>
    </contour>
    <contour>
      <point x="426.54545454545456" y="151.27272727272725" type="line"/>
      <point x="426.54545454545456" y="298.90909090909093" type="line"/>
      <point x="369.2727272727273" y="143.0"/>
      <point x="302.2137862137727" y="89.54545454545455"/>
      <point x="222.1818181818182" y="89.54545454545455" type="curve" smooth="yes"/>
      <point x="198.54545454545456" y="89.54545454545455"/>
      <point x="179.27272727272728" y="99.36363636363636"/>
      <point x="165.0" y="120.54545454545455" type="curve" smooth="yes"/>
      <point x="158.8181818181818" y="149.8181818181818"/>
      <point x="156.81818181818184" y="178.36363636363637"/>
      <point x="156.81818181818184" y="214.72727272727275" type="curve" smooth="yes"/>
      <point x="156.81818181818184" y="224.63636363636365" type="line" smooth="yes"/>
      <point x="156.81818181818184" y="373.0"/>
      <point x="201.54545454545453" y="450.54545454545456"/>
      <point x="295.1818181818182" y="450.54545454545456" type="curve" smooth="yes"/>
      <point x="350.72727272727275" y="450.54545454545456"/>
      <point x="385.6363636363636" y="432.1818181818182"/>
      <point x="426.54545454545456" y="384.3636363636364" type="curve"/>
      <point x="426.54545454545456" y="470.3636363636363" type="line"/>
      <point x="408.90909090909093" y="470.3636363636363" type="line"/>
      <point x="382.9090909090909" y="510.27272727272737"/>
      <point x="331.1818181818182" y="543.2727272727273"/>
      <point x="273.45454545454544" y="543.2727272727273" type="curve" smooth="yes"/>
      <point x="153.72727272727272" y="543.2727272727273"/>
      <point x="59.090909090909086" y="445.1818181818182"/>
      <point x="59.090909090909086" y="214.72727272727275" type="curve" smooth="yes"/>
      <point x="59.090909090909086" y="195.45454545454547" type="line" smooth="yes"/>
      <point x="59.090909090909086" y="75.27272727272728"/>
      <point x="126.81818181818181" y="-10.90909090909091"/>
      <point x="216.27272727272728" y="-10.90909090909091" type="curve" smooth="yes"/>
      <point x="294.45454545454544" y="-10.90909090909091"/>
      <point x="369.9090909090909" y="58.72727272727273"/>
      <point x="408.45454545454544" y="150.72727272727272" type="curve"/>
    </contour>
  </outline>
</glyph>
<glyph name="r" format="2">
  <advance width="450.0"/>
  <unicode hex="0072"/>
  <outline>
    <contour>
      <point x="174.27272727272728" y="358.4545454545455" type="line"/>
      <point x="174.27272727272728" y="189.36363636363635" type="line"/>
      <point x="218.06396278122727" y="361.2139227046818"/>
      <point x="275.9132231405" y="437.54545454545456"/>
      <point x="353.72727272727275" y="437.54545454545456" type="curve" smooth="yes"/>
      <point x="379.5225066195909" y="437.54545454545456"/>
      <point x="395.4779737915" y="431.7484079445909"/>
      <point x="409.09090909090907" y="422.8181818181818" type="curve"/>
      <point x="415.09090909090907" y="422.8181818181818" type="line"/>
      <point x="421.26594917931817" y="438.5089718750909"/>
      <point x="423.3636363636364" y="456.64835164836364"/>
      <point x="423.3636363636364" y="476.0" type="curve" smooth="yes"/>
      <point x="423.3636363636364" y="507.0599613152727"/>
      <point x="417.2395797756818" y="523.8513293152273"/>
      <point x="406.3636363636364" y="534.7272727272726" type="curve" smooth="yes"/>
      <point x="396.50712359581814" y="545.1292400405455"/>
      <point x="381.15348288077274" y="549.0909090909091"/>
      <point x="356.27272727272725" y="549.0909090909091" type="curve" smooth="yes"/>
      <point x="282.1489361702273" y="549.0909090909091"/>
      <point x="222.7176345031818" y="477.50690164913635"/>
      <point x="187.9090909090909" y="358.4545454545455" type="curve"/>
    </contour>
    <contour>
      <point x="181.36363636363635" y="-2.727272727272727" type="curve"/>
      <point x="181.36363636363635" y="129.0909090909091"/>
      <point x="181.36363636363635" y="250.36363636363637"/>
      <point x="181.36363636363635" y="418.0909090909091" type="curve" smooth="yes"/>
      <point x="181.36363636363635" y="493.0909090909091"/>
      <point x="151.54545454545453" y="538.3636363636364"/>
      <point x="100.0" y="538.3636363636364" type="curve"/>
      <point x="90.45454545454547" y="538.3636363636364"/>
      <point x="80.36363636363636" y="536.4545454545455"/>
      <point x="70.81818181818181" y="534.0" type="curve"/>
      <point x="82.09090909090908" y="508.3636363636364"/>
      <point x="85.9090909090909" y="482.1818181818182"/>
      <point x="85.9090909090909" y="441.5454545454545" type="curve" smooth="yes"/>
      <point x="85.9090909090909" y="314.1818181818182"/>
      <point x="85.9090909090909" y="187.63636363636363"/>
      <point x="85.9090909090909" y="50.27272727272727" type="curve" smooth="yes"/>
      <point x="85.9090909090909" y="15.454545454545457"/>
      <point x="106.63636363636363" y="-4.090909090909091"/>
      <point x="155.9090909090909" y="-4.090909090909091" type="curve" smooth="yes"/>
      <point x="164.36363636363635" y="-4.090909090909091"/>
      <point x="171.54545454545456" y="-4.090909090909091"/>
    </contour>
  </outline>
</glyph>
<glyph name="s" format="2">
  <advance width="550.0"/>
  <unicode hex="0073"/>
  <outline>
    <contour>
      <point x="284.5" y="89.0" type="curve" smooth="yes"/>
      <point x="180.0" y="89.0"/>
      <point x="139.0" y="102.0"/>
      <point x="73.0" y="146.0" type="curve"/>
      <point x="67.0" y="146.0" type="line"/>
      <point x="65.0" y="137.0"/>
      <point x="63.5" y="126.5"/>
      <point x="63.5" y="111.0" type="curve" smooth="yes"/>
      <point x="63.5" y="73.0"/>
      <point x="72.0" y="48.5"/>
      <point x="87.5" y="33.0" type="curve" smooth="yes"/>
      <point x="115.5" y="4.5"/>
      <point x="183.0" y="-11.0"/>
      <point x="279.5" y="-11.0" type="curve" smooth="yes"/>
      <point x="416.0" y="-11.0"/>
      <point x="490.0" y="46.5"/>
      <point x="490.0" y="153.0" type="curve" smooth="yes"/>
      <point x="490.0" y="222.0"/>
      <point x="448.5" y="274.0"/>
      <point x="353.5" y="294.5" type="curve" smooth="yes"/>
      <point x="282.5" y="309.0" type="line" smooth="yes"/>
      <point x="199.5" y="326.0"/>
      <point x="186.0" y="344.5"/>
      <point x="186.0" y="374.0" type="curve" smooth="yes"/>
      <point x="186.0" y="411.5"/>
      <point x="232.5" y="445.5"/>
      <point x="317.5" y="445.5" type="curve" smooth="yes"/>
      <point x="381.5" y="445.5"/>
      <point x="413.5" y="434.5"/>
      <point x="455.5" y="413.5" type="curve"/>
      <point x="461.5" y="413.5" type="line"/>
      <point x="464.0" y="422.5"/>
      <point x="465.5" y="432.5"/>
      <point x="465.5" y="442.0" type="curve"/>
      <point x="465.5" y="478.0"/>
      <point x="458.5" y="502.0"/>
      <point x="443.0" y="517.5" type="curve" smooth="yes"/>
      <point x="428.0" y="532.5"/>
      <point x="389.0" y="545.5"/>
      <point x="321.5" y="545.5" type="curve" smooth="yes"/>
      <point x="178.0" y="545.5"/>
      <point x="86.0" y="471.5"/>
      <point x="86.0" y="374.5" type="curve" smooth="yes"/>
      <point x="86.0" y="298.0"/>
      <point x="125.5" y="257.0"/>
      <point x="236.0" y="233.5" type="curve" smooth="yes"/>
      <point x="318.5" y="216.0" type="line" smooth="yes"/>
      <point x="377.0" y="203.5"/>
      <point x="397.0" y="179.0"/>
      <point x="396.5" y="139.0" type="curve" smooth="yes"/>
      <point x="380.5" y="103.0"/>
      <point x="343.5" y="89.0"/>
    </contour>
  </outline>
</glyph>
